<svg width="484" height="302" viewBox="0 0 484 302" fill="none" xmlns="http://www.w3.org/2000/svg">
<path d="M273.09 123.423V60.0922C273.09 60.0922 265.636 39.5895 230.754 37.9893C191.742 36.1968 173.224 65.3005 160.299 97.9739C149.529 125.185 150.521 158.636 152.221 175.23C147.521 177.746 142.174 181.846 138.473 188.455L125.695 260.91L209.39 287.437L215.529 295.999L273.098 123.431L273.09 123.423Z" fill="#E8E6D9"/>
<path d="M71.58 234.345C71.58 234.345 50.4927 166.906 48.177 159.751C44.9382 149.742 51.816 149.835 51.816 149.835C51.2543 149.835 121.586 150.788 121.586 150.788C121.586 150.788 128.603 150.804 130.726 160.043C133.18 170.729 148.098 221.944 148.098 221.944L136.096 239.692L132.08 253.679L82.1045 250.186L71.58 234.353V234.345Z" fill="#FFFF7D"/>
<path d="M87.5898 239.223C81.8198 233.176 70.3491 230.199 63.3713 235.953C58.5553 239.923 57.0166 247.393 56.9935 253.34C56.9551 262.849 59.8708 272.381 65.0407 280.344C68.2181 285.236 73.5572 292.745 80.0119 293.068C87.8667 293.461 90.6594 293.599 90.6594 293.599" fill="#E8E6D9"/>
<path d="M87.5898 239.223C81.8198 233.176 70.3491 230.199 63.3713 235.953C58.5553 239.923 57.0166 247.393 56.9935 253.34C56.9551 262.849 59.8708 272.381 65.0407 280.344C68.2181 285.236 73.5572 292.745 80.0119 293.068C87.8667 293.461 90.6594 293.599 90.6594 293.599" stroke="#5200FF" stroke-width="0.8" stroke-linecap="round" stroke-linejoin="round"/>
<path d="M152.206 175.222C150.505 158.628 149.521 125.178 160.284 97.9663C173.216 65.2929 191.734 36.1969 230.739 37.9817C265.62 39.5819 273.075 60.0846 273.075 60.0846" stroke="#5200FF" stroke-width="0.8" stroke-linecap="round" stroke-linejoin="round"/>
<path d="M148.098 221.936C148.098 221.936 133.18 170.722 130.726 160.036C128.603 150.804 121.586 150.781 121.586 150.781C121.586 150.781 51.2543 149.819 51.816 149.827C51.816 149.827 44.9382 149.735 48.177 159.743C50.4927 166.906 71.0492 232.637 71.0492 232.637" stroke="#5200FF" stroke-width="0.8" stroke-linecap="round" stroke-linejoin="round"/>
<path d="M162.422 171.499C162.422 171.499 146.536 174.045 138.466 188.439" stroke="#5200FF" stroke-width="0.8" stroke-linecap="round" stroke-linejoin="round"/>
<path d="M162.938 249.824L194.08 250.247C194.08 250.247 196.327 250.094 196.419 243.723C196.504 237.361 193.319 237.5 193.319 237.5L176.201 237.269" fill="#FFFF7D"/>
<path d="M130.134 249.701L122.679 249.332C122.679 249.332 114.97 226.352 94.3291 234.322C73.688 242.292 73.6957 295.845 100.761 297.192C127.826 298.538 160.776 300.177 160.776 300.177C171.285 300.7 182.079 300.754 192.603 300.638C199.219 300.561 209.59 300.692 215.529 295.984L197.781 258.579L130.141 249.693L130.134 249.701Z" fill="#E8E6D9"/>
<path d="M215.522 295.992C209.59 300.7 199.212 300.569 192.596 300.646C182.071 300.762 171.277 300.708 160.768 300.185C160.768 300.185 127.818 298.546 100.753 297.2C73.688 295.853 73.688 242.293 94.3214 234.33C114.962 226.36 122.671 249.34 122.671 249.34L130.126 249.709" stroke="#5200FF" stroke-width="0.8" stroke-linecap="round" stroke-linejoin="round"/>
<path d="M162.938 249.824L194.08 250.247C194.08 250.247 196.327 250.094 196.419 243.723C196.504 237.361 193.319 237.5 193.319 237.5L176.201 237.269" stroke="#5200FF" stroke-width="0.8" stroke-linecap="round" stroke-linejoin="round"/>
<path d="M110.062 197.71L96.5371 189.809L83.7432 194.725C83.6355 203.511 90.6671 214.581 101.368 212.573C112.07 210.565 110.07 197.71 110.07 197.71H110.062Z" fill="#FFBA0D"/>
<path d="M92.9289 184.185C89.2131 184.924 84.8741 187.839 83.3046 191.64C82.0122 194.763 83.8509 195.217 86.5666 194.871C88.1052 194.679 91.6057 192.501 91.6057 192.501C91.3595 192.524 92.9443 198.51 97.2218 198.541C100.368 198.564 100.476 193.194 100.476 193.194C102.776 195.363 104.961 196.887 108.039 197.633C109.146 197.902 110.562 197.948 111.17 196.979C111.593 196.302 111.408 195.425 111.147 194.671C109.962 191.309 105.254 181.739 92.9289 184.185Z" fill="#FFE91B"/>
<path d="M92.9289 184.185C89.2131 184.924 84.8741 187.839 83.3046 191.64C82.0122 194.763 83.8509 195.217 86.5666 194.871C88.1052 194.679 91.6057 192.501 91.6057 192.501C91.3595 192.524 92.9443 198.51 97.2218 198.541C100.368 198.564 100.476 193.194 100.476 193.194C102.776 195.363 104.961 196.887 108.039 197.633C109.146 197.902 110.562 197.948 111.17 196.979C111.593 196.302 111.408 195.425 111.147 194.671C109.962 191.309 105.254 181.739 92.9289 184.185Z" stroke="#5200FF" stroke-width="0.8" stroke-linecap="round" stroke-linejoin="round"/>
<path d="M110.062 197.71C110.062 197.71 112.062 210.565 101.361 212.573C90.6594 214.581 83.6278 203.518 83.7355 194.725" stroke="#5200FF" stroke-width="0.8" stroke-linecap="round" stroke-linejoin="round"/>
<path d="M90.6671 201.872C90.7902 202.249 90.9133 202.618 91.0364 202.995C91.0364 203.011 91.0518 203.034 91.0518 203.049" stroke="#5200FF" stroke-width="0.8" stroke-linecap="round" stroke-linejoin="round"/>
<path d="M96.314 205.849L97.0294 207.365" stroke="#5200FF" stroke-width="0.8" stroke-linecap="round" stroke-linejoin="round"/>
<path d="M100.199 201.603L100.815 203.118" stroke="#5200FF" stroke-width="0.8" stroke-linecap="round" stroke-linejoin="round"/>
<path d="M104.769 203.718C104.892 204.126 105.015 204.526 105.146 204.934" stroke="#5200FF" stroke-width="0.8" stroke-linecap="round" stroke-linejoin="round"/>
<path d="M171.2 130.293C171.2 130.293 170.039 134.802 174.247 135.009C178.455 135.217 178.309 130.647 178.309 130.647" stroke="#5200FF" stroke-width="0.8" stroke-linecap="round" stroke-linejoin="round"/>
<path d="M185.402 120.285C175.132 114.291 168.292 119.431 168.292 119.431" stroke="#5200FF" stroke-width="0.8" stroke-linecap="round" stroke-linejoin="round"/>
<path d="M226.308 17.6714C216.722 26.4725 219.814 41.9129 231.077 47.5444C245.81 55.4531 265.497 40.3435 256.45 23.3567C250.511 12.2399 235.224 9.06258 226.377 17.6021L226.3 17.6714H226.308Z" fill="#FFBFDD"/>
<path d="M226.308 17.6714C216.722 26.4725 219.814 41.9129 231.077 47.5444C239.109 51.5603 250.549 49.5524 255.619 41.5744C261.866 31.7424 256.458 18.4715 246.395 14.294C239.225 11.3167 232.293 12.8938 226.384 17.6098L226.308 17.6791V17.6714Z" stroke="#5200FF" stroke-width="0.8" stroke-linecap="round" stroke-linejoin="round"/>
<path d="M97.1987 176.776C95.6215 178.215 94.5829 180.238 94.3444 182.362C94.106 184.485 94.6599 186.685 95.8754 188.439" stroke="#5200FF" stroke-width="0.8" stroke-linecap="round" stroke-linejoin="round"/>
<path d="M158.976 97.4739C154.806 96.4507 150.152 97.6662 146.705 101.059C138.796 108.822 138.535 123.254 145.089 131.932C148.621 136.602 154.521 138.479 159.922 135.863C164.061 133.856 166.808 129.97 168.269 125.701C170.362 119.569 170.277 112.353 167.992 106.275C166.446 102.159 163.392 98.551 158.983 97.4662L158.976 97.4739Z" fill="white"/>
<path d="M158.976 97.4739C154.806 96.4507 150.152 97.6662 146.705 101.059C138.796 108.822 138.535 123.254 145.089 131.932C148.621 136.602 154.521 138.479 159.922 135.863C164.061 133.856 166.808 129.97 168.269 125.701C170.362 119.569 170.277 112.353 167.992 106.275C166.446 102.159 163.392 98.551 158.983 97.4662L158.976 97.4739Z" stroke="#5200FF" stroke-width="0.8" stroke-linecap="round" stroke-linejoin="round"/>
<path d="M205.966 98.3355C200.604 97.2277 194.98 99.1048 191.011 102.79C186.433 107.044 184.702 113.414 184.733 119.507C184.733 120.084 184.756 120.654 184.794 121.223C185.525 132.855 197.235 143.426 208.636 136.779C209.513 136.271 210.336 135.679 211.106 135.017C217.683 129.332 220.061 119.046 217.86 110.814C216.283 104.936 212.175 99.6049 205.974 98.3278L205.966 98.3355Z" fill="white"/>
<path d="M205.966 98.3355C200.604 97.2277 194.98 99.1048 191.011 102.79C186.433 107.044 184.702 113.414 184.733 119.507C184.733 120.084 184.756 120.654 184.794 121.223C185.525 132.855 197.235 143.426 208.636 136.779C209.513 136.271 210.336 135.679 211.106 135.017C217.683 129.332 220.061 119.046 217.86 110.814C216.283 104.936 212.175 99.6049 205.974 98.3278L205.966 98.3355Z" stroke="#5200FF" stroke-width="0.8" stroke-linecap="round" stroke-linejoin="round"/>
<path d="M209.929 108.798L191.734 125.216" stroke="#5200FF" stroke-width="0.8" stroke-linecap="round" stroke-linejoin="round"/>
<path d="M162.938 110.168L147.944 125.154" stroke="#5200FF" stroke-width="0.8" stroke-linecap="round" stroke-linejoin="round"/>
<path d="M155.668 104.706L147.474 112.891" stroke="#5200FF" stroke-width="0.8" stroke-linecap="round" stroke-linejoin="round"/>
<path d="M209.382 116.976L202.935 123.423" stroke="#5200FF" stroke-width="0.8" stroke-linecap="round" stroke-linejoin="round"/>
<path d="M152.598 223.659C152.598 223.659 135.15 216.12 128.233 229.222C121.317 242.323 128.572 255.763 148.805 254.779C169.039 253.794 184.71 226.629 190.372 213.366" fill="#E8E6D9"/>
<path d="M152.598 223.659C152.598 223.659 135.15 216.12 128.233 229.222C121.317 242.323 128.572 255.763 148.805 254.779C169.039 253.794 184.71 226.629 190.372 213.366" stroke="#5200FF" stroke-width="0.8" stroke-linecap="round" stroke-linejoin="round"/>
<path d="M176.493 201.095C176.493 201.095 164.984 221.297 161.307 223.352C161.307 223.352 157.56 214.089 146.482 216.366" stroke="#5200FF" stroke-width="0.8" stroke-linecap="round" stroke-linejoin="round"/>
<path d="M448.905 43.6824C446.105 43.6824 443.551 44.7133 441.581 46.3981C441.527 42.1975 438.112 38.8125 433.896 38.8125C429.68 38.8125 426.202 42.2514 426.202 46.5058C426.202 48.583 427.026 50.4601 428.364 51.8449L413.255 82.9951L440.489 62.4001C442.551 64.7235 445.551 66.1929 448.898 66.1929C455.114 66.1929 460.153 61.1538 460.153 54.9376C460.153 48.7215 455.114 43.6824 448.898 43.6824H448.905Z" fill="white"/>
<path d="M426.295 242.3L228.654 245.093C213.875 245.554 202.135 257.671 202.135 272.458C202.135 287.575 214.391 299.838 229.516 299.838H426.295C426.295 299.761 426.295 242.3 426.295 242.3Z" fill="#D4FF00"/>
<path d="M270.067 271.881C270.067 257.764 280.338 246.024 293.755 244.177L228.654 245.101C213.875 245.562 202.135 257.679 202.135 272.466C202.135 287.583 214.391 299.846 229.516 299.846H426.295H297.447C282.33 299.846 270.067 287.329 270.067 271.889V271.881Z" fill="#FFBA0D"/>
<path d="M407.077 115.253L448.982 98.4664C448.982 98.4664 461.861 92.4348 466.169 108.152C471.077 126.078 472.162 137.356 467.292 139.225C462.422 141.095 455.683 136.233 455.683 136.233L436.711 145.349" fill="#FFFF7D"/>
<path d="M442.912 171.914C442.912 171.914 450.444 157.943 452.313 153.081C454.183 148.219 450.067 145.965 450.067 145.965L420.617 126.578L407.077 102.459C407.077 102.459 404.707 84.1568 382.151 93.5119L391.036 160.897L442.912 171.907V171.914Z" fill="#FFFF7D"/>
<path d="M235.693 151.027C227.454 131.186 233.824 101.751 240.932 84.3877C252.911 55.1224 293.285 58.6844 293.285 58.6844H311.318C311.318 58.6844 371.857 52.9375 384.028 86.9649C392.036 109.352 394.621 137.925 390.69 151.035" fill="#FFFF7D"/>
<path d="M263.751 82.8105C259.643 83.049 255.581 84.8646 252.557 87.8496C242.063 98.2125 246.51 119.084 264.112 119.477C277.676 119.777 283.692 100.244 277.076 89.7345C274.168 85.1262 269.121 82.5028 263.759 82.8105H263.751Z" fill="white"/>
<path d="M263.751 82.8105C259.643 83.049 255.581 84.8646 252.557 87.8496C242.063 98.2125 246.51 119.084 264.112 119.477C277.676 119.777 283.692 100.244 277.076 89.7345C274.168 85.1262 269.121 82.5028 263.759 82.8105H263.751Z" stroke="#5200FF" stroke-width="0.8" stroke-linecap="round" stroke-linejoin="round"/>
<path d="M255.781 90.5346C251.88 91.6655 250.68 98.174 250.818 101.844C251.149 110.845 253.642 113.199 256.719 114.13C259.797 115.061 262.989 110.799 262.758 101.805C262.658 98.074 262.605 91.4039 258.089 90.4807C257.227 90.3038 256.458 90.3345 255.773 90.5346H255.781Z" fill="#5200FF"/>
<path d="M323.189 118.784C328.813 120.569 335.091 119.761 339.884 116.253C344.153 113.122 347.154 107.76 347.477 102.467C348.292 89.2806 335.914 78.1792 323.343 83.7106C321.504 84.5184 319.804 85.6186 318.342 86.9649C308.457 96.0814 309.026 114.284 323.189 118.792V118.784Z" fill="white"/>
<path d="M297.109 244.108C282.061 244.577 270.113 256.91 270.113 271.965C270.113 287.36 282.592 299.838 297.986 299.838" stroke="#5200FF" stroke-width="0.8" stroke-linecap="round" stroke-linejoin="round"/>
<path d="M415.84 151.204L230.308 151.481L231.054 210.773L416.347 207.303C431.642 207.026 443.889 194.556 443.889 179.261C443.889 163.767 431.334 151.212 415.84 151.212V151.204Z" fill="white"/>
<path d="M415.84 151.204H360.871C360.871 151.204 386.09 154.312 386.451 180.3C384.636 207.65 358.04 208.35 358.04 208.35L416.347 207.296C431.642 207.019 443.889 194.548 443.889 179.254C443.889 163.959 431.334 151.204 415.84 151.204Z" fill="#E8E6D9"/>
<path d="M215.522 151.204H415.847C431.342 151.204 443.897 163.759 443.897 179.254C443.897 194.548 431.649 207.019 416.355 207.296L224.515 210.765" stroke="#5200FF" stroke-width="0.8" stroke-linecap="round" stroke-linejoin="round"/>
<path d="M420.617 126.578L450.067 145.965C450.067 145.965 454.183 148.211 452.314 153.081C450.444 157.951 442.912 171.914 442.912 171.914" stroke="#5200FF" stroke-width="0.8" stroke-linecap="round" stroke-linejoin="round"/>
<path d="M357.709 151.204C373.588 151.204 386.459 163.944 386.459 179.654C386.459 195.163 373.711 208.073 358.04 208.35" stroke="#5200FF" stroke-width="0.8" stroke-linecap="round" stroke-linejoin="round"/>
<path d="M323.889 58.1458C319.92 59.1536 312.588 58.769 306.441 58.8459C300.517 58.7613 292.67 59.146 288.408 58.2689C279.214 56.6456 275.283 45.9519 283.484 40.2051C288.039 36.62 298.655 37.7971 306.756 37.5893C315.057 37.7201 323.689 36.8739 328.028 40.0974C336.014 45.475 332.921 55.9532 324.082 58.092L323.897 58.1381L323.889 58.1458Z" fill="#FFFF7D"/>
<path d="M323.889 58.1458C319.92 59.1536 312.588 58.769 306.441 58.8459C300.517 58.7613 292.67 59.146 288.408 58.2689C279.214 56.6456 275.283 45.9519 283.484 40.2051C288.039 36.62 298.655 37.7971 306.756 37.5893C315.057 37.7201 323.689 36.8739 328.028 40.0974C336.014 45.475 332.921 55.9532 324.082 58.092L323.897 58.1381L323.889 58.1458Z" stroke="#5200FF" stroke-width="0.8" stroke-linecap="round" stroke-linejoin="round"/>
<path d="M305.887 1.30774L294.947 24.6723L315.204 15.1018C315.204 15.1018 312.095 30.2653 306.133 37.597" stroke="#5200FF" stroke-width="0.8" stroke-linecap="round" stroke-linejoin="round"/>
<path d="M235.924 151.204C227.685 131.363 234.055 101.928 241.163 84.5645C253.142 55.2993 293.516 58.8613 293.516 58.8613H311.549C311.549 58.8613 372.088 53.1144 384.259 87.1418C392.267 109.529 394.852 138.102 390.921 151.212" stroke="#5200FF" stroke-width="0.8" stroke-linecap="round" stroke-linejoin="round"/>
<path d="M395.406 102.913C395.406 102.913 414.639 92.7502 421.987 109.275C427.98 122.754 415.994 131.74 415.994 131.74" fill="#FFFF7D"/>
<path d="M395.406 102.913C395.406 102.913 414.639 92.7502 421.987 109.275C427.98 122.754 415.994 131.74 415.994 131.74" stroke="#5200FF" stroke-width="0.8" stroke-linecap="round" stroke-linejoin="round"/>
<path d="M385.982 92.3348C385.982 92.3348 400.276 85.6878 406.269 99.8203" stroke="#5200FF" stroke-width="0.8" stroke-linecap="round" stroke-linejoin="round"/>
<path d="M421.987 109.275L448.982 98.4664C448.982 98.4664 461.861 92.4348 466.169 108.152C471.077 126.078 472.162 137.356 467.292 139.225C462.423 141.095 455.683 136.233 455.683 136.233L443.889 141.903" stroke="#5200FF" stroke-width="0.8" stroke-linecap="round" stroke-linejoin="round"/>
<path d="M323.189 118.784C328.813 120.569 335.091 119.761 339.884 116.253C344.153 113.122 347.154 107.76 347.477 102.467C348.292 89.2806 335.914 78.1792 323.343 83.7106C321.504 84.5184 319.804 85.6186 318.342 86.9649C308.457 96.0814 309.026 114.284 323.189 118.792V118.784Z" stroke="#5200FF" stroke-width="0.8" stroke-linecap="round" stroke-linejoin="round"/>
<path d="M241.725 111.568C241.725 111.568 257.219 104.267 264.074 122.939L241.725 111.568Z" fill="#FFFF7D"/>
<path d="M241.725 111.568C241.725 111.568 257.219 104.267 264.074 122.939" stroke="#5200FF" stroke-width="0.8" stroke-linecap="round" stroke-linejoin="round"/>
<path d="M347.185 105.867C346.585 105.79 345.977 105.744 345.369 105.744C336.483 105.783 329.313 114.207 330.121 122.939L348.262 116.138L352.708 107.829C350.908 106.96 349.2 106.129 347.185 105.867Z" fill="#FFFF7D"/>
<path d="M330.121 122.939C329.313 114.245 336.96 105.406 345.877 105.767C348.308 105.867 350.547 106.783 352.708 107.829" stroke="#5200FF" stroke-width="0.8" stroke-linecap="round" stroke-linejoin="round"/>
<path d="M322.482 90.3191C321.251 90.2729 320.004 90.7576 319.012 91.8347C315.665 95.4967 315.873 103.336 316.704 108.106C317.265 111.329 319.104 114.43 322.089 114.345C326.751 114.222 328.544 108.191 328.298 101.313C328.198 98.4124 327.882 95.0736 326.382 92.6963C325.443 91.2038 323.974 90.3729 322.482 90.3114V90.3191Z" fill="#5200FF"/>
<path d="M283.561 118.73C283.561 118.73 291.285 125.331 300.686 118.73" stroke="#5200FF" stroke-width="0.8" stroke-linecap="round" stroke-linejoin="round"/>
<path d="M249.68 133.471C249.68 133.471 253.58 137.825 258.635 136.279C263.689 134.732 264.674 128.978 275.198 128.978C285.723 128.978 290.893 134.209 290.893 134.209C290.893 134.209 297.717 141.333 290.893 150.935C288.923 153.712 283.846 154.897 275.76 154.897C260.597 154.897 258.635 148.073 258.635 148.073" fill="#FFFF7D"/>
<path d="M249.68 133.471L258.635 136.279C261.012 133.471 264.674 128.978 275.198 128.978C285.723 128.978 290.893 134.209 290.893 134.209C290.893 134.209 297.717 141.333 290.893 150.935C288.923 153.712 283.846 154.897 275.76 154.897C260.597 154.897 258.635 148.073 258.635 148.073" stroke="#5200FF" stroke-width="0.8" stroke-linecap="round" stroke-linejoin="round"/>
<path d="M230.308 151.481L231.054 210.773" stroke="#5200FF" stroke-width="0.8" stroke-linecap="round" stroke-linejoin="round"/>
<path d="M426.295 242.3V299.838" stroke="#5200FF" stroke-width="0.8" stroke-linecap="round" stroke-linejoin="round"/>
<path d="M222.961 210.804C213.629 210.973 206.159 218.589 206.159 227.921C206.159 237.484 213.998 245.193 223.561 245.039L410.954 242.8L409.531 207.426L222.953 210.804H222.961Z" fill="#FFFF7D"/>
<path d="M278.037 244.262C268.474 244.423 260.635 236.715 260.635 227.144C260.635 217.574 268.113 210.204 277.437 210.027L409.539 207.634V207.419L222.953 210.796C213.621 210.965 206.151 218.582 206.151 227.914C206.151 237.246 213.991 245.185 223.553 245.031L410.947 242.792V242.669L278.03 244.254L278.037 244.262Z" fill="#69FFA9"/>
<path d="M277.606 209.773C268.19 209.942 260.643 217.628 260.643 227.052C260.643 236.646 268.451 244.4 278.045 244.331" stroke="#5200FF" stroke-width="0.8" stroke-linecap="round" stroke-linejoin="round"/>
<path d="M409.539 207.426L410.931 242.269" stroke="#5200FF" stroke-width="0.8" stroke-linecap="round" stroke-linejoin="round"/>
<path d="M392.729 224.813L275.229 226.106" stroke="#5200FF" stroke-width="0.8" stroke-linecap="round" stroke-linejoin="round"/>
<path d="M434.611 206.926L222.961 210.804C213.629 210.973 206.159 218.589 206.159 227.921C206.159 237.484 213.998 245.193 223.561 245.039L297.109 244.116" stroke="#5200FF" stroke-width="0.8" stroke-linecap="round" stroke-linejoin="round"/>
<path d="M400.022 281.559L414.124 281.682" stroke="#5200FF" stroke-width="0.8" stroke-linecap="round" stroke-linejoin="round"/>
<path d="M382.851 281.405L392.783 281.497" stroke="#5200FF" stroke-width="0.8" stroke-linecap="round" stroke-linejoin="round"/>
<path d="M363.394 259.279C363.394 259.279 373.88 267.826 370.134 290.099C370.134 290.099 386.459 282.421 386.459 274.373C386.459 274.373 393.537 279.613 397.468 290.845C397.468 290.845 405.323 271.011 397.268 258.579" fill="#BF88FF"/>
<path d="M284.338 280.559L360.217 281.213L370.942 281.305" stroke="#5200FF" stroke-width="0.8" stroke-linecap="round" stroke-linejoin="round"/>
<path d="M363.394 259.279C363.394 259.279 373.88 267.826 370.134 290.099C370.134 290.099 386.459 282.421 386.459 274.373C386.459 274.373 393.537 279.613 397.468 290.845C397.468 290.845 405.323 271.011 397.268 258.579" stroke="#5200FF" stroke-width="0.8" stroke-linecap="round" stroke-linejoin="round"/>
<path d="M241.725 165.99L366.956 163.113" stroke="#5200FF" stroke-width="0.8" stroke-linecap="round" stroke-linejoin="round"/>
<path d="M241.725 183.847C244.533 184.154 372.088 179.654 372.088 179.654" stroke="#5200FF" stroke-width="0.8" stroke-linecap="round" stroke-linejoin="round"/>
<path d="M244.533 196.217L363.394 193.517" stroke="#5200FF" stroke-width="0.8" stroke-linecap="round" stroke-linejoin="round"/>
<path d="M284.338 260.903L412.255 258.279" stroke="#5200FF" stroke-width="0.8" stroke-linecap="round" stroke-linejoin="round"/>
<path d="M319.304 143.811C317.996 149.042 313.25 152.473 308.31 153.989C301.933 155.951 291.554 156.974 286.423 151.65C283.276 148.388 281.953 142.187 282.346 137.756C283.346 126.393 301.225 126.932 309.08 129.309C311.242 129.963 313.35 131.124 315.096 132.648L331.929 130.286" fill="#FFFF7D"/>
<path d="M319.304 143.811C317.996 149.042 313.25 152.473 308.31 153.989C301.933 155.951 291.554 156.974 286.423 151.65C283.276 148.388 281.953 142.187 282.346 137.756C283.346 126.393 301.225 126.932 309.08 129.309C311.242 129.963 313.35 131.124 315.096 132.648L331.929 130.286" stroke="#5200FF" stroke-width="0.8" stroke-linecap="round" stroke-linejoin="round"/>
<path d="M448.905 66.1929C443.935 66.1929 439.72 62.9771 438.227 58.5073M448.905 43.6824C446.105 43.6824 443.551 44.7133 441.581 46.3981C441.527 42.1975 438.112 38.8125 433.896 38.8125C429.68 38.8125 426.202 42.2514 426.202 46.5058C426.202 48.583 427.026 50.4601 428.364 51.8449L413.255 82.9951L440.489 62.4001C442.551 64.7235 445.551 66.1929 448.898 66.1929C455.114 66.1929 460.153 61.1538 460.153 54.9376C460.153 48.7215 455.114 43.6824 448.898 43.6824H448.905Z" stroke="#5200FF" stroke-width="0.8" stroke-linecap="round" stroke-linejoin="round"/>
<path d="M443.889 241.762L228.654 245.093C213.875 245.554 202.135 257.671 202.135 272.458C202.135 287.575 214.391 299.838 229.516 299.838H443.897" stroke="#5200FF" stroke-width="0.8" stroke-linecap="round" stroke-linejoin="round"/>
<g clip-path="url(#clip0_2001_1909)">
<path d="M86 91H81V96H86V91Z" fill="#5200FF"/>
<path d="M81 96H76V101H81V96Z" fill="#5200FF"/>
<path d="M91 96H86V101H91V96Z" fill="#5200FF"/>
<path d="M76 101H71V106H76V101Z" fill="#5200FF"/>
<path d="M96 101H91V106H96V101Z" fill="#5200FF"/>
<path d="M81 106H76V111H81V106Z" fill="#5200FF"/>
<path d="M91 106H86V111H91V106Z" fill="#5200FF"/>
<path d="M86 111H81V116H86V111Z" fill="#5200FF"/>
</g>
<g clip-path="url(#clip1_2001_1909)">
<path d="M4.24003 186.05C-0.459966 191.98 -0.209967 192.23 5.73003 187.54C8.05003 185.71 11.32 185.71 13.64 187.54C19.57 192.23 19.82 191.98 15.13 186.05C13.3 183.73 13.3 180.46 15.13 178.15C19.83 172.22 19.58 171.97 13.64 176.66C11.32 178.49 7.47003 178.49 5.15003 176.66C-0.779966 171.97 -1.02997 172.22 3.67003 178.15C5.50003 180.47 6.08003 183.74 4.24003 186.05Z" stroke="#5200FF" stroke-width="0.8" stroke-linecap="round" stroke-linejoin="round"/>
</g>
<g clip-path="url(#clip2_2001_1909)">
<path d="M473.88 258.75C469.63 264.13 469.85 264.35 475.23 260.1C477.33 258.44 477.18 258.44 479.28 260.1C484.66 264.35 484.89 264.13 480.63 258.75C478.97 256.65 478.97 256.81 480.63 254.71C484.89 249.34 484.66 249.11 479.28 253.36C477.18 255.02 476.81 255.02 474.71 253.36C469.33 249.11 469.11 249.33 473.36 254.71C475.02 256.81 475.54 256.65 473.88 258.75Z" stroke="#5200FF" stroke-width="0.8" stroke-linecap="round" stroke-linejoin="round"/>
</g>
<defs>
<clipPath id="clip0_2001_1909">
<rect width="25" height="25" fill="white" transform="translate(71 91)"/>
</clipPath>
<clipPath id="clip1_2001_1909">
<rect width="18.8" height="18.2" fill="white" transform="translate(0 173)"/>
</clipPath>
<clipPath id="clip2_2001_1909">
<rect width="14" height="13.46" fill="white" transform="translate(470 250)"/>
</clipPath>
</defs>
</svg>
