<svg width="544" height="528" viewBox="0 0 544 528" fill="none" xmlns="http://www.w3.org/2000/svg">
<path d="M176.859 503.153C176.859 499.722 179.614 496.941 183.013 496.941H201.475C204.873 496.941 207.629 499.722 207.629 503.153V521.788C207.629 525.219 204.873 528 201.475 528H183.013C179.614 528 176.859 525.219 176.859 521.788V503.153Z" fill="white"/>
<path d="M207.629 441.035C207.629 437.605 210.384 434.824 213.783 434.824H232.244C235.643 434.824 238.398 437.605 238.398 441.035V459.671C238.398 463.101 235.643 465.882 232.244 465.882H213.783C210.384 465.882 207.629 463.101 207.629 459.671V441.035Z" fill="white"/>
<path d="M239.841 458.995C239.552 462.083 242.162 464.718 245.222 464.426C247.983 464.163 251.204 463.923 253.783 463.923C256.362 463.923 259.582 464.163 262.343 464.426C265.403 464.718 268.013 462.083 267.724 458.995C267.463 456.204 267.226 452.951 267.226 450.353C267.226 447.756 267.464 444.501 267.725 441.71C268.013 438.622 265.404 435.988 262.345 436.28C259.58 436.543 256.356 436.783 253.783 436.783C251.209 436.783 247.985 436.543 245.221 436.28C242.161 435.988 239.552 438.622 239.841 441.711C240.102 444.501 240.34 447.756 240.34 450.353C240.34 452.951 240.102 456.204 239.841 458.995Z" fill="white"/>
<path d="M146.09 503.153C146.09 499.722 148.845 496.941 152.244 496.941H170.705C174.104 496.941 176.859 499.722 176.859 503.153V521.788C176.859 525.219 174.104 528 170.705 528H152.244C148.845 528 146.09 525.219 146.09 521.788V503.153Z" fill="white"/>
<path d="M118.753 516.168C114.406 521.713 121.55 528.924 127.043 524.536C129.189 522.822 132.221 522.822 134.367 524.536C139.861 528.924 147.004 521.713 142.657 516.168C140.959 514.002 140.959 510.941 142.657 508.775C147.004 503.23 139.861 496.019 134.367 500.407C132.221 502.121 129.189 502.121 127.043 500.407C121.55 496.019 114.406 503.23 118.753 508.775C120.451 510.941 120.451 514.002 118.753 516.168Z" fill="white"/>
<path d="M176.859 409.976C176.859 406.546 179.614 403.765 183.013 403.765H201.475C204.873 403.765 207.629 406.546 207.629 409.976V428.612C207.629 432.042 204.873 434.824 201.475 434.824H183.013C179.614 434.824 176.859 432.042 176.859 428.612V409.976Z" fill="white"/>
<path d="M149.523 422.991C145.176 428.536 152.319 435.747 157.813 431.359C159.959 429.645 162.991 429.645 165.137 431.359C170.63 435.747 177.774 428.536 173.427 422.991C171.728 420.825 171.728 417.765 173.427 415.598C177.774 410.053 170.63 402.843 165.137 407.23C162.991 408.945 159.959 408.945 157.813 407.23C152.319 402.843 145.176 410.053 149.523 415.598C151.221 417.765 151.221 420.825 149.523 422.991Z" fill="white"/>
<path d="M124.667 421.839C121.166 426.304 123.921 429.086 128.345 425.552C130.073 424.172 131.23 424.172 132.959 425.552C137.382 429.086 140.138 426.304 136.637 421.839C135.27 420.095 135.27 418.494 136.637 416.75C140.138 412.285 137.81 409.504 133.387 413.037C131.659 414.417 130.073 414.417 128.345 413.037C123.921 409.504 121.166 412.285 124.667 416.75C126.034 418.494 126.034 420.095 124.667 421.839Z" fill="white"/>
<path d="M126.623 390.621C123.341 394.808 124.319 395.795 128.466 392.482C130.087 391.187 131.171 391.187 132.792 392.482C136.939 395.795 137.917 394.808 134.635 390.621C133.353 388.986 133.353 387.486 134.635 385.85C137.917 381.663 137.341 380.677 133.193 383.99C131.573 385.284 130.087 385.284 128.466 383.99C124.319 380.677 123.341 381.663 126.623 385.85C127.905 387.486 127.905 388.986 126.623 390.621Z" fill="white"/>
<path d="M127.938 359.319C125.419 362.533 125.553 362.668 128.737 360.125C129.98 359.132 131.738 359.132 132.982 360.125C136.166 362.668 136.3 362.533 133.78 359.319C132.796 358.064 132.796 356.29 133.78 355.034C136.3 351.82 136.166 351.685 132.982 354.228C131.738 355.222 129.672 355.222 128.428 354.228C125.244 351.685 125.11 351.82 127.63 355.034C128.614 356.29 128.922 358.064 127.938 359.319Z" fill="white"/>
<path d="M129.107 327.166C126.922 329.954 127.038 330.071 129.8 327.865C130.878 327.004 130.799 327.004 131.878 327.865C134.639 330.071 134.755 329.954 132.57 327.166C131.717 326.077 131.717 326.158 132.57 325.069C134.755 322.281 134.639 322.164 131.878 324.37C130.799 325.231 130.611 325.231 129.532 324.37C126.771 322.164 126.655 322.281 128.84 325.069C129.693 326.158 129.961 326.077 129.107 327.166Z" fill="white"/>
<path d="M207.629 316.8C207.629 313.369 210.384 310.588 213.783 310.588H232.244C235.643 310.588 238.398 313.369 238.398 316.8V335.435C238.398 338.866 235.643 341.647 232.244 341.647H213.783C210.384 341.647 207.629 338.866 207.629 335.435V316.8Z" fill="white"/>
<path d="M178.302 334.759C178.013 337.848 180.624 340.482 183.683 340.191C186.444 339.927 189.665 339.688 192.244 339.688C194.823 339.688 198.044 339.927 200.804 340.191C203.864 340.482 206.475 337.848 206.186 334.759C205.925 331.969 205.687 328.715 205.687 326.118C205.687 323.52 205.925 320.266 206.186 317.475C206.475 314.387 203.865 311.753 200.806 312.045C198.042 312.308 194.817 312.548 192.244 312.548C189.671 312.548 186.446 312.308 183.682 312.045C180.622 311.753 178.013 314.387 178.302 317.475C178.563 320.266 178.801 323.52 178.801 326.118C178.801 328.715 178.563 331.969 178.302 334.759Z" fill="white"/>
<path d="M238.398 223.624C238.398 220.193 241.153 217.412 244.552 217.412H263.014C266.412 217.412 269.167 220.193 269.167 223.624V242.259C269.167 245.689 266.412 248.471 263.014 248.471H244.552C241.153 248.471 238.398 245.689 238.398 242.259V223.624Z" fill="white"/>
<path d="M209.072 241.583C208.783 244.672 211.393 247.306 214.453 247.014C217.214 246.751 220.435 246.512 223.013 246.512C225.592 246.512 228.813 246.751 231.574 247.014C234.634 247.306 237.244 244.672 236.955 241.583C236.694 238.793 236.456 235.539 236.456 232.942C236.456 230.344 236.694 227.089 236.955 224.299C237.244 221.21 234.635 218.577 231.575 218.868C228.811 219.132 225.587 219.372 223.013 219.372C220.44 219.372 217.216 219.132 214.451 218.868C211.392 218.577 208.783 221.21 209.072 224.299C209.333 227.089 209.57 230.344 209.57 232.942C209.57 235.539 209.333 238.793 209.072 241.583Z" fill="white"/>
<path d="M184.275 235.651C180.547 240.406 184.849 244.748 189.56 240.985C191.4 239.516 192.632 239.515 194.472 240.985C199.183 244.748 203.484 240.406 199.757 235.651C198.301 233.793 198.757 232.089 200.213 230.232C203.94 225.477 199.639 221.135 194.928 224.897C193.088 226.367 191.4 226.367 189.56 224.897C184.849 221.135 180.547 225.477 184.275 230.232C185.731 232.089 185.731 233.793 184.275 235.651Z" fill="white"/>
<path d="M146.09 472.094C146.09 468.663 148.845 465.882 152.244 465.882H170.705C174.104 465.882 176.859 468.663 176.859 472.094V490.729C176.859 494.16 174.104 496.941 170.705 496.941H152.244C148.845 496.941 146.09 494.16 146.09 490.729V472.094Z" fill="white"/>
<path d="M120.758 485.769C116.787 490.835 121.37 495.461 126.388 491.453C128.349 489.887 132.576 489.887 134.536 491.453C139.555 495.461 144.138 490.835 140.167 485.769C138.615 483.79 139.101 479.033 140.653 477.054C144.624 471.989 140.041 467.362 135.022 471.371C133.062 472.937 128.349 472.937 126.388 471.371C121.37 467.362 116.787 471.989 120.758 477.054C122.309 479.033 122.309 483.79 120.758 485.769Z" fill="white"/>
<path d="M176.859 378.918C176.859 375.487 179.614 372.706 183.013 372.706H201.475C204.873 372.706 207.629 375.487 207.629 378.918V397.553C207.629 400.984 204.873 403.765 201.475 403.765H183.013C179.614 403.765 176.859 400.984 176.859 397.553V378.918Z" fill="white"/>
<path d="M151.527 392.593C147.556 397.659 152.139 402.285 157.158 398.276C159.118 396.71 163.345 396.71 165.306 398.276C170.324 402.285 174.907 397.659 170.936 392.593C169.385 390.614 169.87 385.857 171.422 383.878C175.393 378.812 170.81 374.186 165.792 378.194C163.831 379.76 159.118 379.76 157.158 378.194C152.139 374.186 147.556 378.812 151.527 383.878C153.079 385.857 153.079 390.614 151.527 392.593Z" fill="white"/>
<path d="M207.629 285.741C207.629 282.311 210.384 279.529 213.783 279.529H232.244C235.643 279.529 238.398 282.311 238.398 285.741V304.376C238.398 307.807 235.643 310.588 232.244 310.588H213.783C210.384 310.588 207.629 307.807 207.629 304.376V285.741Z" fill="white"/>
<path d="M180.292 298.756C175.945 304.301 183.089 311.512 188.582 307.124C190.728 305.41 193.76 305.41 195.906 307.124C201.399 311.512 208.543 304.301 204.196 298.756C202.498 296.59 202.498 293.529 204.196 291.363C208.543 285.818 201.399 278.607 195.906 282.995C193.76 284.709 190.728 284.709 188.582 282.995C183.089 278.607 175.945 285.818 180.292 291.363C181.99 293.529 181.99 296.59 180.292 298.756Z" fill="white"/>
<path d="M238.398 192.565C238.398 189.134 241.153 186.353 244.552 186.353H263.014C266.412 186.353 269.167 189.134 269.167 192.565V211.2C269.167 214.631 266.412 217.412 263.014 217.412H244.552C241.153 217.412 238.398 214.631 238.398 211.2V192.565Z" fill="white"/>
<path d="M211.061 205.58C206.714 211.125 213.858 218.335 219.351 213.948C221.497 212.233 224.529 212.233 226.675 213.948C232.169 218.335 239.312 211.125 234.965 205.58C233.267 203.413 233.267 200.353 234.965 198.187C239.312 192.642 232.169 185.431 226.675 189.819C224.529 191.533 221.497 191.533 219.351 189.819C213.858 185.431 206.714 192.642 211.061 198.187C212.76 200.353 212.76 203.413 211.061 205.58Z" fill="white"/>
<path d="M184.275 204.592C180.547 209.347 184.849 213.689 189.56 209.927C191.4 208.457 192.632 208.457 194.472 209.927C199.183 213.689 203.484 209.347 199.757 204.592C198.301 202.734 198.757 201.031 200.213 199.173C203.94 194.418 199.639 190.076 194.928 193.838C193.088 195.308 191.4 195.308 189.56 193.838C184.849 190.076 180.547 194.418 184.275 199.173C185.731 201.031 185.731 202.734 184.275 204.592Z" fill="white"/>
<path d="M147.533 458.995C147.244 462.083 149.854 464.718 152.914 464.426C155.675 464.163 158.896 463.923 161.475 463.923C164.053 463.923 167.274 464.163 170.035 464.426C173.095 464.718 175.705 462.083 175.416 458.995C175.155 456.204 174.918 452.951 174.918 450.353C174.918 447.756 175.155 444.501 175.416 441.71C175.705 438.622 173.096 435.988 170.037 436.28C167.272 436.543 164.048 436.783 161.475 436.783C158.901 436.783 155.677 436.543 152.913 436.28C149.853 435.988 147.244 438.622 147.533 441.711C147.794 444.501 148.032 447.756 148.032 450.353C148.032 452.951 147.794 456.204 147.533 458.995Z" fill="white"/>
<path d="M122.736 453.063C119.009 457.818 123.31 462.16 128.021 458.397C129.861 456.927 131.093 456.927 132.933 458.397C137.644 462.16 141.946 457.818 138.218 453.063C136.762 451.205 137.218 449.501 138.674 447.644C142.402 442.889 138.1 438.546 133.389 442.309C131.549 443.779 129.861 443.779 128.021 442.309C123.31 438.546 119.009 442.889 122.736 447.644C124.192 449.501 124.192 451.205 122.736 453.063Z" fill="white"/>
<path d="M176.859 347.859C176.859 344.428 179.614 341.647 183.013 341.647H201.475C204.873 341.647 207.629 344.428 207.629 347.859V366.494C207.629 369.925 204.873 372.706 201.475 372.706H183.013C179.614 372.706 176.859 369.925 176.859 366.494V347.859Z" fill="white"/>
<path d="M151.527 361.534C147.556 366.6 152.139 371.226 157.158 367.217C159.118 365.651 163.345 365.651 165.306 367.217C170.324 371.226 174.907 366.6 170.936 361.534C169.385 359.555 169.87 354.798 171.422 352.819C175.393 347.753 170.81 343.127 165.792 347.136C163.831 348.702 159.118 348.702 157.158 347.136C152.139 343.127 147.556 347.753 151.527 352.819C153.079 354.798 153.079 359.555 151.527 361.534Z" fill="white"/>
<path d="M153.505 328.827C149.778 333.582 154.08 337.924 158.79 334.162C160.63 332.692 161.863 332.692 163.703 334.162C168.413 337.924 172.715 333.582 168.988 328.827C167.531 326.97 167.987 325.266 169.444 323.408C173.171 318.653 168.869 314.311 164.159 318.074C162.318 319.544 160.63 319.544 158.79 318.074C154.08 314.311 149.778 318.653 153.505 323.408C154.962 325.266 154.962 326.97 153.505 328.827Z" fill="white"/>
<path d="M153.505 297.768C149.778 302.523 154.08 306.866 158.79 303.103C160.63 301.633 161.863 301.633 163.703 303.103C168.413 306.866 172.715 302.523 168.988 297.768C167.531 295.911 167.987 294.207 169.444 292.349C173.171 287.595 168.869 283.252 164.159 287.015C162.318 288.485 160.63 288.485 158.79 287.015C154.08 283.252 149.778 287.595 153.505 292.349C154.962 294.207 154.962 295.911 153.505 297.768Z" fill="white"/>
<path d="M153.505 266.71C149.778 271.465 154.08 275.807 158.79 272.044C160.63 270.574 161.863 270.574 163.703 272.044C168.413 275.807 172.715 271.465 168.988 266.71C167.531 264.852 167.987 263.148 169.444 261.291C173.171 256.536 168.869 252.194 164.159 255.956C162.318 257.426 160.63 257.426 158.79 255.956C154.08 252.194 149.778 256.536 153.505 261.291C154.962 263.148 154.962 264.852 153.505 266.71Z" fill="white"/>
<path d="M155.436 235.486C151.936 239.951 154.691 242.733 159.115 239.199C160.843 237.819 162 237.819 163.728 239.199C168.152 242.733 170.907 239.951 167.406 235.486C166.039 233.742 166.039 232.142 167.406 230.397C170.907 225.932 168.58 223.151 164.156 226.684C162.428 228.064 160.843 228.064 159.115 226.684C154.691 223.151 151.936 225.932 155.436 230.397C156.804 232.142 156.804 233.742 155.436 235.486Z" fill="white"/>
<path d="M157.393 204.268C154.111 208.455 155.088 209.442 159.236 206.129C160.856 204.835 161.941 204.835 163.561 206.129C167.709 209.442 168.686 208.455 165.404 204.268C164.122 202.633 164.122 201.133 165.404 199.497C168.686 195.31 168.11 194.324 163.963 197.637C162.342 198.931 160.856 198.931 159.236 197.637C155.088 194.324 154.111 195.31 157.393 199.497C158.675 201.133 158.675 202.633 157.393 204.268Z" fill="white"/>
<path d="M158.707 172.966C156.188 176.18 156.322 176.315 159.506 173.772C160.75 172.779 162.507 172.779 163.751 173.772C166.935 176.315 167.069 176.18 164.549 172.966C163.565 171.711 163.565 169.937 164.549 168.681C167.069 165.467 166.935 165.332 163.751 167.875C162.507 168.869 160.442 168.869 159.198 167.875C156.014 165.332 155.88 165.467 158.399 168.681C159.384 169.937 159.692 171.711 158.707 172.966Z" fill="white"/>
<path d="M207.629 254.682C207.629 251.252 210.384 248.471 213.783 248.471H232.244C235.643 248.471 238.398 251.252 238.398 254.682V273.318C238.398 276.748 235.643 279.529 232.244 279.529H213.783C210.384 279.529 207.629 276.748 207.629 273.318V254.682Z" fill="white"/>
<path d="M182.297 268.358C178.326 273.423 182.909 278.049 187.927 274.041C189.888 272.475 194.115 272.475 196.075 274.041C201.094 278.049 205.677 273.423 201.705 268.358C200.154 266.379 200.64 261.621 202.191 259.642C206.162 254.577 201.579 249.951 196.561 253.959C194.6 255.525 189.888 255.525 187.927 253.959C182.909 249.951 178.326 254.577 182.297 259.642C183.848 261.621 183.848 266.379 182.297 268.358Z" fill="white"/>
<path d="M238.398 161.506C238.398 158.075 241.153 155.294 244.552 155.294H263.014C266.412 155.294 269.167 158.075 269.167 161.506V180.141C269.167 183.572 266.412 186.353 263.014 186.353H244.552C241.153 186.353 238.398 183.572 238.398 180.141V161.506Z" fill="white"/>
<path d="M211.061 174.521C206.714 180.066 213.858 187.277 219.351 182.889C221.497 181.175 224.529 181.175 226.675 182.889C232.169 187.277 239.312 180.066 234.965 174.521C233.267 172.355 233.267 169.294 234.965 167.128C239.312 161.583 232.169 154.372 226.675 158.76C224.529 160.474 221.497 160.474 219.351 158.76C213.858 154.372 206.714 161.583 211.061 167.128C212.76 169.294 212.76 172.355 211.061 174.521Z" fill="white"/>
<path d="M184.275 173.533C180.547 178.288 184.849 182.63 189.56 178.868C191.4 177.398 192.632 177.398 194.472 178.868C199.183 182.63 203.484 178.288 199.757 173.533C198.301 171.676 198.757 169.972 200.213 168.114C203.94 163.359 199.639 159.017 194.928 162.78C193.088 164.249 191.4 164.249 189.56 162.78C184.849 159.017 180.547 163.359 184.275 168.114C185.731 169.972 185.731 171.676 184.275 173.533Z" fill="white"/>
<path d="M98.3377 513.519C96.1526 516.307 96.2688 516.424 99.0302 514.218C100.109 513.357 100.029 513.357 101.108 514.218C103.87 516.424 103.986 516.307 101.801 513.519C100.947 512.43 100.947 512.511 101.801 511.422C103.986 508.634 103.87 508.517 101.108 510.723C100.029 511.584 99.8418 511.584 98.7629 510.723C96.0015 508.517 95.8853 508.634 98.0704 511.422C98.9241 512.511 99.1914 512.43 98.3377 513.519Z" fill="white"/>
<path d="M97.1687 452.496C94.6492 455.71 94.7832 455.845 97.9672 453.302C99.2111 452.308 100.968 452.308 102.212 453.302C105.396 455.845 105.53 455.71 103.011 452.496C102.026 451.24 102.026 449.466 103.011 448.211C105.53 444.997 105.396 444.861 102.212 447.405C100.968 448.398 98.9029 448.398 97.659 447.405C94.475 444.861 94.3411 444.997 96.8605 448.211C97.8448 449.466 98.153 451.24 97.1687 452.496Z" fill="white"/>
<path d="M307.352 359.886C303.625 364.641 307.927 368.983 312.637 365.221C314.477 363.751 315.709 363.751 317.55 365.221C322.26 368.983 326.562 364.641 322.834 359.886C321.378 358.029 321.834 356.325 323.29 354.467C327.018 349.712 322.716 345.37 318.006 349.133C316.165 350.602 314.477 350.602 312.637 349.133C307.927 345.37 303.625 349.712 307.352 354.467C308.808 356.325 308.808 358.029 307.352 359.886Z" fill="white"/>
<path d="M276.583 453.063C272.855 457.818 277.157 462.16 281.868 458.397C283.708 456.927 284.94 456.927 286.78 458.397C291.491 462.16 295.793 457.818 292.065 453.063C290.609 451.205 291.065 449.501 292.521 447.644C296.249 442.889 291.947 438.546 287.236 442.309C285.396 443.779 283.708 443.779 281.868 442.309C277.157 438.546 272.855 442.889 276.583 447.644C278.039 449.501 278.039 451.205 276.583 453.063Z" fill="white"/>
<path d="M278.513 483.957C275.013 488.422 277.768 491.203 282.192 487.67C283.92 486.289 285.077 486.289 286.805 487.67C291.229 491.203 293.984 488.422 290.484 483.957C289.116 482.212 289.116 480.612 290.484 478.868C293.984 474.402 291.657 471.621 287.234 475.155C285.505 476.535 283.92 476.535 282.192 475.155C277.768 471.621 275.013 474.402 278.513 478.868C279.881 480.612 279.881 482.212 278.513 483.957Z" fill="white"/>
<path d="M280.47 514.857C277.188 519.043 278.166 520.03 282.313 516.717C283.933 515.423 285.018 515.423 286.639 516.717C290.786 520.03 291.764 519.043 288.482 514.857C287.199 513.221 287.199 511.721 288.482 510.085C291.764 505.899 291.188 504.912 287.04 508.225C285.42 509.519 283.933 509.519 282.313 508.225C278.166 504.912 277.188 505.899 280.47 510.085C281.752 511.721 281.752 513.221 280.47 514.857Z" fill="white"/>
<path d="M95.8539 483.798C92.5719 487.984 93.5493 488.971 97.6969 485.658C99.3172 484.364 100.402 484.364 102.022 485.658C106.17 488.971 107.147 487.984 103.865 483.798C102.583 482.162 102.583 480.662 103.865 479.026C107.147 474.84 106.571 473.853 102.424 477.166C100.804 478.46 99.3172 478.46 97.6969 477.166C93.5493 473.853 92.5719 474.84 95.8539 479.026C97.136 480.662 97.136 482.162 95.8539 483.798Z" fill="white"/>
<path d="M241.831 485.109C237.484 490.654 244.627 497.865 250.121 493.477C252.267 491.763 255.299 491.763 257.445 493.477C262.938 497.865 270.082 490.654 265.735 485.109C264.037 482.943 264.037 479.882 265.735 477.716C270.082 472.171 262.938 464.96 257.445 469.348C255.299 471.062 252.267 471.062 250.121 469.348C244.627 464.96 237.484 472.171 241.831 477.716C243.529 479.882 243.529 482.943 241.831 485.109Z" fill="white"/>
<path d="M207.629 378.918C207.629 375.487 210.384 372.706 213.783 372.706H232.244C235.643 372.706 238.398 375.487 238.398 378.918V397.553C238.398 400.984 235.643 403.765 232.244 403.765H213.783C210.384 403.765 207.629 400.984 207.629 397.553V378.918Z" fill="white"/>
<path d="M238.398 316.8C238.398 313.369 241.153 310.588 244.552 310.588H263.014C266.412 310.588 269.167 313.369 269.167 316.8V335.435C269.167 338.866 266.412 341.647 263.014 341.647H244.552C241.153 341.647 238.398 338.866 238.398 335.435V316.8Z" fill="white"/>
<path d="M238.398 254.682C238.398 251.252 241.153 248.471 244.552 248.471H263.014C266.412 248.471 269.167 251.252 269.167 254.682V273.318C269.167 276.748 266.412 279.529 263.014 279.529H244.552C241.153 279.529 238.398 276.748 238.398 273.318V254.682Z" fill="white"/>
<path d="M269.167 161.506C269.167 158.075 271.923 155.294 275.321 155.294H293.783C297.182 155.294 299.937 158.075 299.937 161.506V180.141C299.937 183.572 297.182 186.353 293.783 186.353H275.321C271.923 186.353 269.167 183.572 269.167 180.141V161.506Z" fill="white"/>
<path d="M299.937 68.3294C299.937 64.8988 302.692 62.1176 306.091 62.1176H324.552C327.951 62.1176 330.706 64.8988 330.706 68.3294V86.9647C330.706 90.3954 327.951 93.1765 324.552 93.1765H306.091C302.692 93.1765 299.937 90.3954 299.937 86.9647V68.3294Z" fill="white"/>
<path d="M269.167 68.3294C269.167 64.8988 271.923 62.1176 275.321 62.1176H293.783C297.182 62.1176 299.937 64.8988 299.937 68.3294V86.9647C299.937 90.3954 297.182 93.1765 293.783 93.1765H275.321C271.923 93.1765 269.167 90.3954 269.167 86.9647V68.3294Z" fill="white"/>
<path d="M238.398 68.3294C238.398 64.8988 241.153 62.1176 244.552 62.1176H263.014C266.412 62.1176 269.167 64.8988 269.167 68.3294V86.9647C269.167 90.3954 266.412 93.1765 263.014 93.1765H244.552C241.153 93.1765 238.398 90.3954 238.398 86.9647V68.3294Z" fill="white"/>
<path d="M207.629 68.3294C207.629 64.8988 210.384 62.1176 213.783 62.1176H232.244C235.643 62.1176 238.398 64.8988 238.398 68.3294V86.9647C238.398 90.3954 235.643 93.1765 232.244 93.1765H213.783C210.384 93.1765 207.629 90.3954 207.629 86.9647V68.3294Z" fill="white"/>
<path d="M330.706 6.21176C330.706 2.7811 333.461 0 336.86 0H355.322C358.72 0 361.475 2.7811 361.475 6.21176V24.8471C361.475 28.2777 358.72 31.0588 355.322 31.0588H336.86C333.461 31.0588 330.706 28.2777 330.706 24.8471V6.21176Z" fill="white"/>
<path d="M299.937 6.21176C299.937 2.7811 302.692 0 306.091 0H324.552C327.951 0 330.706 2.7811 330.706 6.21176V24.8471C330.706 28.2777 327.951 31.0588 324.552 31.0588H306.091C302.692 31.0588 299.937 28.2777 299.937 24.8471V6.21176Z" fill="white"/>
<path d="M269.167 6.21176C269.167 2.7811 271.923 0 275.321 0H293.783C297.182 0 299.937 2.7811 299.937 6.21176V24.8471C299.937 28.2777 297.182 31.0588 293.783 31.0588H275.321C271.923 31.0588 269.167 28.2777 269.167 24.8471V6.21176Z" fill="white"/>
<path d="M176.859 472.094C176.859 468.663 179.614 465.882 183.013 465.882H201.475C204.873 465.882 207.629 468.663 207.629 472.094V490.729C207.629 494.16 204.873 496.941 201.475 496.941H183.013C179.614 496.941 176.859 494.16 176.859 490.729V472.094Z" fill="white"/>
<path d="M207.629 409.976C207.629 406.546 210.384 403.765 213.783 403.765H232.244C235.643 403.765 238.398 406.546 238.398 409.976V428.612C238.398 432.042 235.643 434.824 232.244 434.824H213.783C210.384 434.824 207.629 432.042 207.629 428.612V409.976Z" fill="white"/>
<path d="M207.629 347.859C207.629 344.428 210.384 341.647 213.783 341.647H232.244C235.643 341.647 238.398 344.428 238.398 347.859V366.494C238.398 369.925 235.643 372.706 232.244 372.706H213.783C210.384 372.706 207.629 369.925 207.629 366.494V347.859Z" fill="white"/>
<path d="M238.398 285.741C238.398 282.311 241.153 279.529 244.552 279.529H263.014C266.412 279.529 269.167 282.311 269.167 285.741V304.376C269.167 307.807 266.412 310.588 263.014 310.588H244.552C241.153 310.588 238.398 307.807 238.398 304.376V285.741Z" fill="white"/>
<path d="M269.167 192.565C269.167 189.134 271.923 186.353 275.321 186.353H293.783C297.182 186.353 299.937 189.134 299.937 192.565V211.2C299.937 214.631 297.182 217.412 293.783 217.412H275.321C271.923 217.412 269.167 214.631 269.167 211.2V192.565Z" fill="white"/>
<path d="M299.937 99.3882C299.937 95.9576 302.692 93.1765 306.091 93.1765H324.552C327.951 93.1765 330.706 95.9576 330.706 99.3882V118.024C330.706 121.454 327.951 124.235 324.552 124.235H306.091C302.692 124.235 299.937 121.454 299.937 118.024V99.3882Z" fill="white"/>
<path d="M269.167 99.3882C269.167 95.9576 271.923 93.1765 275.321 93.1765H293.783C297.182 93.1765 299.937 95.9576 299.937 99.3882V118.024C299.937 121.454 297.182 124.235 293.783 124.235H275.321C271.923 124.235 269.167 121.454 269.167 118.024V99.3882Z" fill="white"/>
<path d="M238.398 99.3882C238.398 95.9576 241.153 93.1765 244.552 93.1765H263.014C266.412 93.1765 269.167 95.9576 269.167 99.3882V118.024C269.167 121.454 266.412 124.235 263.014 124.235H244.552C241.153 124.235 238.398 121.454 238.398 118.024V99.3882Z" fill="white"/>
<path d="M207.629 99.3882C207.629 95.9576 210.384 93.1765 213.783 93.1765H232.244C235.643 93.1765 238.398 95.9576 238.398 99.3882V118.024C238.398 121.454 235.643 124.235 232.244 124.235H213.783C210.384 124.235 207.629 121.454 207.629 118.024V99.3882Z" fill="white"/>
<path d="M176.859 99.3882C176.859 95.9576 179.614 93.1765 183.013 93.1765H201.475C204.873 93.1765 207.629 95.9576 207.629 99.3882V118.024C207.629 121.454 204.873 124.235 201.475 124.235H183.013C179.614 124.235 176.859 121.454 176.859 118.024V99.3882Z" fill="white"/>
<path d="M330.706 37.2706C330.706 33.8399 333.461 31.0588 336.86 31.0588H355.322C358.72 31.0588 361.475 33.8399 361.475 37.2706V55.9059C361.475 59.3365 358.72 62.1176 355.322 62.1176H336.86C333.461 62.1176 330.706 59.3365 330.706 55.9059V37.2706Z" fill="white"/>
<path d="M299.937 37.2706C299.937 33.8399 302.692 31.0588 306.091 31.0588H324.552C327.951 31.0588 330.706 33.8399 330.706 37.2706V55.9059C330.706 59.3365 327.951 62.1176 324.552 62.1176H306.091C302.692 62.1176 299.937 59.3365 299.937 55.9059V37.2706Z" fill="white"/>
<path d="M269.167 37.2706C269.167 33.8399 271.923 31.0588 275.321 31.0588H293.783C297.182 31.0588 299.937 33.8399 299.937 37.2706V55.9059C299.937 59.3365 297.182 62.1176 293.783 62.1176H275.321C271.923 62.1176 269.167 59.3365 269.167 55.9059V37.2706Z" fill="white"/>
<path d="M238.398 37.2706C238.398 33.8399 241.153 31.0588 244.552 31.0588H263.014C266.412 31.0588 269.167 33.8399 269.167 37.2706V55.9059C269.167 59.3365 266.412 62.1176 263.014 62.1176H244.552C241.153 62.1176 238.398 59.3365 238.398 55.9059V37.2706Z" fill="white"/>
<path d="M269.167 223.624C269.167 220.193 271.923 217.412 275.321 217.412H293.783C297.182 217.412 299.937 220.193 299.937 223.624V242.259C299.937 245.689 297.182 248.471 293.783 248.471H275.321C271.923 248.471 269.167 245.689 269.167 242.259V223.624Z" fill="white"/>
<path d="M299.937 130.447C299.937 127.016 302.692 124.235 306.091 124.235H324.552C327.951 124.235 330.706 127.016 330.706 130.447V149.082C330.706 152.513 327.951 155.294 324.552 155.294H306.091C302.692 155.294 299.937 152.513 299.937 149.082V130.447Z" fill="white"/>
<path d="M269.167 130.447C269.167 127.016 271.923 124.235 275.321 124.235H293.783C297.182 124.235 299.937 127.016 299.937 130.447V149.082C299.937 152.513 297.182 155.294 293.783 155.294H275.321C271.923 155.294 269.167 152.513 269.167 149.082V130.447Z" fill="white"/>
<path d="M238.398 130.447C238.398 127.016 241.153 124.235 244.552 124.235H263.014C266.412 124.235 269.167 127.016 269.167 130.447V149.082C269.167 152.513 266.412 155.294 263.014 155.294H244.552C241.153 155.294 238.398 152.513 238.398 149.082V130.447Z" fill="white"/>
<path d="M207.629 130.447C207.629 127.016 210.384 124.235 213.783 124.235H232.244C235.643 124.235 238.398 127.016 238.398 130.447V149.082C238.398 152.513 235.643 155.294 232.244 155.294H213.783C210.384 155.294 207.629 152.513 207.629 149.082V130.447Z" fill="white"/>
<path d="M176.859 130.447C176.859 127.016 179.614 124.235 183.013 124.235H201.475C204.873 124.235 207.629 127.016 207.629 130.447V149.082C207.629 152.513 204.873 155.294 201.475 155.294H183.013C179.614 155.294 176.859 152.513 176.859 149.082V130.447Z" fill="white"/>
<path d="M146.09 130.447C146.09 127.016 148.845 124.235 152.244 124.235H170.705C174.104 124.235 176.859 127.016 176.859 130.447V149.082C176.859 152.513 174.104 155.294 170.705 155.294H152.244C148.845 155.294 146.09 152.513 146.09 149.082V130.447Z" fill="white"/>
<path d="M116.764 148.406C116.475 151.495 119.085 154.129 122.145 153.838C124.906 153.575 128.126 153.335 130.705 153.335C133.284 153.335 136.505 153.575 139.266 153.838C142.326 154.129 144.936 151.495 144.647 148.406C144.386 145.616 144.148 142.362 144.148 139.765C144.148 137.167 144.386 133.913 144.647 131.122C144.936 128.034 142.327 125.4 139.267 125.692C136.503 125.955 133.279 126.195 130.705 126.195C128.132 126.195 124.908 125.955 122.143 125.692C119.084 125.4 116.474 128.034 116.763 131.122C117.024 133.913 117.262 137.167 117.262 139.765C117.262 142.362 117.025 145.616 116.764 148.406Z" fill="white"/>
<path d="M147.533 117.348C147.244 120.436 149.854 123.071 152.914 122.779C155.675 122.516 158.896 122.276 161.475 122.276C164.053 122.276 167.274 122.516 170.035 122.779C173.095 123.071 175.705 120.436 175.416 117.348C175.155 114.557 174.918 111.304 174.918 108.706C174.918 106.109 175.155 102.854 175.416 100.063C175.705 96.9751 173.096 94.3412 170.037 94.6329C167.272 94.8964 164.048 95.1364 161.475 95.1364C158.901 95.1364 155.677 94.8964 152.913 94.6329C149.853 94.3412 147.244 96.9751 147.533 100.063C147.794 102.854 148.032 106.109 148.032 108.706C148.032 111.304 147.794 114.557 147.533 117.348Z" fill="white"/>
<path d="M178.302 86.2887C178.013 89.3775 180.624 92.0118 183.683 91.7201C186.444 91.4569 189.665 91.2174 192.244 91.2174C194.823 91.2174 198.044 91.4569 200.804 91.7201C203.864 92.0118 206.475 89.3775 206.186 86.2887C205.925 83.4985 205.687 80.2447 205.687 77.6475C205.687 75.0498 205.925 71.7952 206.186 69.0046C206.475 65.9163 203.865 63.2824 200.806 63.574C198.042 63.8376 194.817 64.0775 192.244 64.0775C189.671 64.0775 186.446 63.8376 183.682 63.574C180.622 63.2824 178.013 65.9163 178.302 69.0046C178.563 71.7952 178.801 75.0498 178.801 77.6475C178.801 80.2447 178.563 83.4985 178.302 86.2887Z" fill="white"/>
<path d="M209.072 55.2299C208.783 58.3187 211.393 60.9529 214.453 60.6613C217.214 60.3981 220.435 60.1586 223.013 60.1586C225.592 60.1586 228.813 60.3981 231.574 60.6613C234.634 60.9529 237.244 58.3187 236.955 55.2299C236.694 52.4396 236.456 49.1859 236.456 46.5887C236.456 43.9909 236.694 40.7364 236.955 37.9458C237.244 34.8575 234.635 32.2236 231.575 32.5152C228.811 32.7787 225.587 33.0187 223.013 33.0187C220.44 33.0187 217.216 32.7787 214.451 32.5152C211.392 32.2236 208.783 34.8575 209.072 37.9458C209.333 40.7364 209.57 43.9909 209.57 46.5887C209.57 49.1859 209.333 52.4396 209.072 55.2299Z" fill="white"/>
<path d="M239.841 24.1711C239.552 27.2599 242.162 29.8941 245.222 29.6024C247.983 29.3392 251.204 29.0998 253.783 29.0998C256.362 29.0998 259.582 29.3392 262.343 29.6024C265.403 29.8941 268.013 27.2599 267.724 24.1711C267.463 21.3808 267.226 18.127 267.226 15.5298C267.226 12.9321 267.464 9.67756 267.725 6.88693C268.013 3.79867 265.404 1.16477 262.345 1.45639C259.58 1.71991 256.356 1.9599 253.783 1.9599C251.209 1.9599 247.985 1.71991 245.221 1.45639C242.161 1.16477 239.552 3.79867 239.841 6.88694C240.102 9.67756 240.34 12.9321 240.34 15.5298C240.34 18.127 240.102 21.3808 239.841 24.1711Z" fill="white"/>
<path d="M87.9839 143.462C83.637 149.007 90.7805 156.218 96.2738 151.83C98.4199 150.116 101.452 150.116 103.598 151.83C109.091 156.218 116.235 149.007 111.888 143.462C110.19 141.296 110.19 138.235 111.888 136.069C116.235 130.524 109.091 123.313 103.598 127.701C101.452 129.415 98.4199 129.415 96.2738 127.701C90.7805 123.313 83.637 130.524 87.9839 136.069C89.6821 138.235 89.6821 141.296 87.9839 143.462Z" fill="white"/>
<path d="M118.753 112.403C114.406 117.948 121.55 125.159 127.043 120.771C129.189 119.057 132.221 119.057 134.367 120.771C139.861 125.159 147.004 117.948 142.657 112.403C140.959 110.237 140.959 107.176 142.657 105.01C147.004 99.4651 139.861 92.2544 134.367 96.6422C132.221 98.3564 129.189 98.3564 127.043 96.6422C121.55 92.2544 114.406 99.4651 118.753 105.01C120.451 107.176 120.451 110.237 118.753 112.403Z" fill="white"/>
<path d="M149.523 81.3443C145.176 86.8894 152.319 94.1001 157.813 89.7123C159.959 87.9981 162.991 87.9981 165.137 89.7123C170.63 94.1001 177.774 86.8894 173.427 81.3443C171.728 79.1781 171.728 76.1176 173.427 73.9513C177.774 68.4063 170.63 61.1956 165.137 65.5834C162.991 67.2975 159.959 67.2975 157.813 65.5834C152.319 61.1956 145.176 68.4063 149.523 73.9513C151.221 76.1176 151.221 79.1781 149.523 81.3443Z" fill="white"/>
<path d="M180.292 50.2855C175.945 55.8305 183.089 63.0412 188.582 58.6535C190.728 56.9393 193.76 56.9393 195.906 58.6535C201.399 63.0412 208.543 55.8305 204.196 50.2855C202.498 48.1193 202.498 45.0587 204.196 42.8925C208.543 37.3474 201.399 30.1367 195.906 34.5245C193.76 36.2387 190.728 36.2387 188.582 34.5245C183.089 30.1367 175.945 37.3474 180.292 42.8925C181.99 45.0587 181.99 48.1193 180.292 50.2855Z" fill="white"/>
<path d="M211.061 19.2267C206.714 24.7717 213.858 31.9824 219.351 27.5946C221.497 25.8805 224.529 25.8805 226.675 27.5946C232.169 31.9824 239.312 24.7717 234.965 19.2267C233.267 17.0604 233.267 13.9999 234.965 11.8337C239.312 6.28862 232.169 -0.92208 226.675 3.46572C224.529 5.17988 221.497 5.17988 219.351 3.46572C213.858 -0.92208 206.714 6.28862 211.061 11.8337C212.76 13.9999 212.76 17.0604 211.061 19.2267Z" fill="white"/>
<path d="M59.2193 144.122C55.2482 149.188 59.8311 153.814 64.8495 149.806C66.8101 148.24 71.0372 148.24 72.9977 149.806C78.0162 153.814 82.5991 149.188 78.628 144.122C77.0767 142.143 77.5624 137.386 79.1138 135.407C83.0849 130.341 78.5019 125.715 73.4835 129.724C71.523 131.29 66.8101 131.29 64.8495 129.724C59.8311 125.715 55.2482 130.341 59.2193 135.407C60.7706 137.386 60.7706 142.143 59.2193 144.122Z" fill="white"/>
<path d="M89.9886 113.063C86.0175 118.129 90.6005 122.755 95.6189 118.747C97.5795 117.181 101.807 117.181 103.767 118.747C108.786 122.755 113.368 118.129 109.397 113.063C107.846 111.084 108.332 106.327 109.883 104.348C113.854 99.2826 109.271 94.6566 104.253 98.6651C102.292 100.231 97.5795 100.231 95.6189 98.6651C90.6005 94.6566 86.0175 99.2826 89.9886 104.348C91.54 106.327 91.54 111.084 89.9886 113.063Z" fill="white"/>
<path d="M120.758 82.0046C116.787 87.0703 121.37 91.6964 126.388 87.6879C128.349 86.1219 132.576 86.1219 134.536 87.6879C139.555 91.6964 144.138 87.0703 140.167 82.0046C138.615 80.0257 139.101 75.2684 140.653 73.2895C144.624 68.2238 140.041 63.5978 135.022 67.6062C133.062 69.1722 128.349 69.1722 126.388 67.6062C121.37 63.5978 116.787 68.2238 120.758 73.2895C122.309 75.2684 122.309 80.0257 120.758 82.0046Z" fill="white"/>
<path d="M151.527 50.9458C147.556 56.0115 152.139 60.6375 157.158 56.6291C159.118 55.0631 163.345 55.0631 165.306 56.6291C170.324 60.6375 174.907 56.0115 170.936 50.9458C169.385 48.9668 169.87 44.2096 171.422 42.2307C175.393 37.165 170.81 32.5389 165.792 36.5474C163.831 38.1134 159.118 38.1134 157.158 36.5474C152.139 32.5389 147.556 37.165 151.527 42.2307C153.079 44.2096 153.079 48.9668 151.527 50.9458Z" fill="white"/>
<path d="M182.297 19.887C178.326 24.9527 182.909 29.5787 187.927 25.5702C189.888 24.0043 194.115 24.0043 196.075 25.5702C201.094 29.5787 205.677 24.9527 201.705 19.887C200.154 17.908 200.64 13.1508 202.191 11.1718C206.162 6.10616 201.579 1.48012 196.561 5.48858C194.6 7.05455 189.888 7.05455 187.927 5.48858C182.909 1.48012 178.326 6.10616 182.297 11.1718C183.848 13.1508 183.848 17.908 182.297 19.887Z" fill="white"/>
<path d="M30.4279 142.474C26.7004 147.229 31.0022 151.571 35.7127 147.809C37.553 146.339 38.7851 146.339 40.6253 147.809C45.3359 151.571 49.6376 147.229 45.9102 142.474C44.454 140.617 44.9099 138.913 46.3661 137.055C50.0936 132.3 45.7918 127.958 41.0813 131.721C39.241 133.191 37.553 133.191 35.7127 131.721C31.0022 127.958 26.7004 132.3 30.4279 137.055C31.8841 138.913 31.8841 140.617 30.4279 142.474Z" fill="white"/>
<path d="M61.1973 111.416C57.4698 116.17 61.7716 120.513 66.4821 116.75C68.3224 115.28 69.5545 115.28 71.3947 116.75C76.1052 120.513 80.407 116.17 76.6795 111.416C75.2233 109.558 75.6793 107.854 77.1355 105.997C80.8629 101.242 76.5612 96.8994 71.8506 100.662C70.0104 102.132 68.3224 102.132 66.4821 100.662C61.7716 96.8994 57.4698 101.242 61.1973 105.997C62.6535 107.854 62.6535 109.558 61.1973 111.416Z" fill="white"/>
<path d="M91.9666 80.3567C88.2392 85.1116 92.5409 89.4538 97.2515 85.6913C99.0917 84.2214 100.324 84.2214 102.164 85.6913C106.875 89.4538 111.176 85.1116 107.449 80.3567C105.993 78.4992 106.449 76.7952 107.905 74.9377C111.632 70.1828 107.331 65.8406 102.62 69.6031C100.78 71.073 99.0917 71.073 97.2515 69.6031C92.5409 65.8406 88.2392 70.1828 91.9667 74.9377C93.4228 76.7952 93.4228 78.4992 91.9666 80.3567Z" fill="white"/>
<path d="M122.736 49.2979C119.009 54.0528 123.31 58.395 128.021 54.6325C129.861 53.1626 131.093 53.1626 132.933 54.6325C137.644 58.395 141.946 54.0528 138.218 49.2979C136.762 47.4403 137.218 45.7364 138.674 43.8789C142.402 39.124 138.1 34.7818 133.389 38.5443C131.549 40.0142 129.861 40.0142 128.021 38.5443C123.31 34.7818 119.009 39.124 122.736 43.8789C124.192 45.7364 124.192 47.4403 122.736 49.2979Z" fill="white"/>
<path d="M153.505 18.2391C149.778 22.9939 154.08 27.3362 158.79 23.5736C160.63 22.1037 161.863 22.1037 163.703 23.5736C168.413 27.3362 172.715 22.9939 168.988 18.2391C167.531 16.3815 167.987 14.6776 169.444 12.82C173.171 8.06518 168.869 3.72296 164.159 7.48549C162.318 8.95538 160.63 8.95538 158.79 7.48549C154.08 3.72296 149.778 8.06518 153.505 12.82C154.962 14.6776 154.962 16.3815 153.505 18.2391Z" fill="white"/>
<path d="M1.5892 142.31C-1.91129 146.775 0.843963 149.556 5.26767 146.023C6.99587 144.642 8.15293 144.642 9.88112 146.023C14.3048 149.556 17.0601 146.775 13.5596 142.31C12.1921 140.565 12.1921 138.965 13.5596 137.221C17.0601 132.755 14.733 129.974 10.3093 133.508C8.58112 134.888 6.99587 134.888 5.26767 133.508C0.843963 129.974 -1.91129 132.755 1.5892 137.221C2.95672 138.965 2.95672 140.565 1.5892 142.31Z" fill="white"/>
<path d="M3.54578 111.092C0.263802 115.278 1.24124 116.265 5.38881 112.952C7.00912 111.658 8.09396 111.658 9.71427 112.952C13.8618 116.265 14.8393 115.278 11.5573 111.092C10.2751 109.456 10.2751 107.956 11.5573 106.321C14.8393 102.134 14.2633 101.147 10.1157 104.46C8.49541 105.754 7.00912 105.754 5.38881 104.46C1.24124 101.147 0.263802 102.134 3.54578 106.321C4.82793 107.956 4.82793 109.456 3.54578 111.092Z" fill="white"/>
<path d="M4.86062 79.7898C2.34114 83.0037 2.47513 83.139 5.6591 80.5958C6.90296 79.6022 8.66032 79.6022 9.90419 80.5958C13.0882 83.139 13.2221 83.0037 10.7027 79.7898C9.71839 78.5342 9.71839 76.7603 10.7027 75.5048C13.2221 72.2908 13.0882 72.1556 9.90419 74.6988C8.66032 75.6923 6.59478 75.6923 5.35091 74.6988C2.16694 72.1556 2.03296 72.2908 4.55244 75.5048C5.53671 76.7603 5.8449 78.5342 4.86062 79.7898Z" fill="white"/>
<path d="M35.63 48.731C33.1105 51.9449 33.2445 52.0801 36.4285 49.5369C37.6723 48.5434 39.4297 48.5434 40.6736 49.5369C43.8575 52.0801 43.9915 51.9449 41.472 48.731C40.4878 47.4754 40.4878 45.7015 41.472 44.4459C43.9915 41.232 43.8575 41.0968 40.6736 43.64C39.4297 44.6335 37.3641 44.6335 36.1203 43.64C32.9363 41.0968 32.8023 41.232 35.3218 44.4459C36.3061 45.7015 36.6143 47.4754 35.63 48.731Z" fill="white"/>
<path d="M6.02962 47.6369C3.84446 50.4244 3.96067 50.5417 6.72214 48.336C7.80095 47.4743 7.72137 47.4743 8.80018 48.336C11.5617 50.5417 11.6779 50.4244 9.4927 47.6369C8.63904 46.548 8.63904 46.6283 9.4927 45.5394C11.6779 42.7519 11.5617 42.6346 8.80018 44.8403C7.72137 45.702 7.53366 45.702 6.45485 44.8403C3.69338 42.6346 3.57717 42.7519 5.76233 45.5394C6.61599 46.6283 6.88328 46.548 6.02962 47.6369Z" fill="white"/>
<path d="M36.799 16.5781C34.6138 19.3656 34.73 19.4829 37.4915 17.2772C38.5703 16.4155 38.4907 16.4155 39.5695 17.2772C42.331 19.4829 42.4472 19.3656 40.2621 16.5781C39.4084 15.4892 39.4084 15.5695 40.2621 14.4805C42.4472 11.6931 42.331 11.5758 39.5695 13.7815C38.4907 14.6432 38.303 14.6432 37.2242 13.7815C34.4627 11.5758 34.3465 11.6931 36.5317 14.4805C37.3854 15.5695 37.6527 15.4892 36.799 16.5781Z" fill="white"/>
<path d="M66.3994 17.6721C63.8799 20.8861 64.0139 21.0213 67.1978 18.4781C68.4417 17.4846 70.1991 17.4846 71.4429 18.4781C74.6269 21.0213 74.7609 20.8861 72.2414 17.6721C71.2571 16.4166 71.2571 14.6427 72.2414 13.3871C74.7609 10.1732 74.6269 10.0379 71.4429 12.5811C70.1991 13.5747 68.1335 13.5747 66.8896 12.5811C63.7057 10.0379 63.5717 10.1732 66.0912 13.3871C67.0754 14.6427 67.3836 16.4166 66.3994 17.6721Z" fill="white"/>
<path d="M34.3151 80.0331C31.0332 84.2197 32.0106 85.2063 36.1582 81.8934C37.7785 80.5992 38.8633 80.5992 40.4836 81.8934C44.6312 85.2063 45.6086 84.2197 42.3267 80.0331C41.0445 78.3975 41.0445 76.8972 42.3267 75.2617C45.6086 71.0751 45.0327 70.0885 40.8851 73.4013C39.2648 74.6955 37.7785 74.6955 36.1582 73.4013C32.0106 70.0885 31.0332 71.0751 34.3151 75.2617C35.5973 76.8972 35.5973 78.3975 34.3151 80.0331Z" fill="white"/>
<path d="M65.0845 48.9742C61.8025 53.1608 62.78 54.1475 66.9275 50.8346C68.5479 49.5404 69.6327 49.5404 71.253 50.8346C75.4006 54.1475 76.378 53.1608 73.096 48.9742C71.8139 47.3387 71.8139 45.8384 73.096 44.2029C76.378 40.0163 75.802 39.0296 71.6544 42.3425C70.0341 43.6367 68.5479 43.6367 66.9275 42.3425C62.78 39.0296 61.8025 40.0163 65.0845 44.2029C66.3667 45.8384 66.3667 47.3387 65.0845 48.9742Z" fill="white"/>
<path d="M95.8539 17.9154C92.5719 22.102 93.5493 23.0886 97.6969 19.7758C99.3172 18.4816 100.402 18.4816 102.022 19.7758C106.17 23.0886 107.147 22.102 103.865 17.9154C102.583 16.2799 102.583 14.7796 103.865 13.144C107.147 8.95746 106.571 7.97082 102.424 11.2837C100.804 12.5779 99.3172 12.5779 97.6969 11.2837C93.5493 7.97082 92.5719 8.95746 95.8539 13.144C97.136 14.7796 97.136 16.2799 95.8539 17.9154Z" fill="white"/>
<path d="M32.3586 111.251C28.8581 115.716 31.6133 118.497 36.037 114.964C37.7652 113.584 38.9223 113.584 40.6505 114.964C45.0742 118.497 47.8295 115.716 44.329 111.251C42.9614 109.506 42.9614 107.906 44.329 106.162C47.8295 101.696 45.5024 98.9153 41.0787 102.449C39.3505 103.829 37.7652 103.829 36.037 102.449C31.6133 98.9153 28.8581 101.696 32.3586 106.162C33.7261 107.906 33.7261 109.506 32.3586 111.251Z" fill="white"/>
<path d="M63.1279 80.192C59.6274 84.6573 62.3827 87.4385 66.8064 83.9051C68.5346 82.5247 69.6917 82.5247 71.4199 83.9051C75.8436 87.4385 78.5988 84.6573 75.0983 80.192C73.7308 78.4476 73.7308 76.8474 75.0983 75.103C78.5988 70.6376 76.2718 67.8565 71.848 71.3899C70.1199 72.7703 68.5346 72.7703 66.8064 71.3899C62.3827 67.8565 59.6274 70.6376 63.1279 75.103C64.4955 76.8474 64.4955 78.4476 63.1279 80.192Z" fill="white"/>
<path d="M93.8973 49.1332C90.3968 53.5985 93.1521 56.3797 97.5758 52.8463C99.304 51.4659 100.461 51.4659 102.189 52.8463C106.613 56.3797 109.368 53.5985 105.868 49.1332C104.5 47.3887 104.5 45.7886 105.868 44.0441C109.368 39.5788 107.041 36.7976 102.617 40.3311C100.889 41.7114 99.304 41.7114 97.5758 40.3311C93.1521 36.7976 90.3968 39.5788 93.8973 44.0441C95.2648 45.7886 95.2648 47.3887 93.8973 49.1332Z" fill="white"/>
<path d="M124.667 18.0744C121.166 22.5397 123.921 25.3209 128.345 21.7875C130.073 20.4071 131.23 20.4071 132.959 21.7875C137.382 25.3209 140.138 22.5397 136.637 18.0744C135.27 16.3299 135.27 14.7298 136.637 12.9853C140.138 8.51999 137.81 5.73881 133.387 9.27223C131.659 10.6526 130.073 10.6526 128.345 9.27223C123.921 5.73881 121.166 8.51999 124.667 12.9853C126.034 14.7298 126.034 16.3299 124.667 18.0744Z" fill="white"/>
<path d="M207.629 503.153C207.629 499.722 210.384 496.941 213.783 496.941H232.244C235.643 496.941 238.398 499.722 238.398 503.153V521.788C238.398 525.219 235.643 528 232.244 528H213.783C210.384 528 207.629 525.219 207.629 521.788V503.153Z" fill="white"/>
<path d="M176.859 441.035C176.859 437.605 179.614 434.824 183.013 434.824H201.475C204.873 434.824 207.629 437.605 207.629 441.035V459.671C207.629 463.101 204.873 465.882 201.475 465.882H183.013C179.614 465.882 176.859 463.101 176.859 459.671V441.035Z" fill="white"/>
<path d="M238.398 378.918C238.398 375.487 241.153 372.706 244.552 372.706H263.014C266.412 372.706 269.167 375.487 269.167 378.918V397.553C269.167 400.984 266.412 403.765 263.014 403.765H244.552C241.153 403.765 238.398 400.984 238.398 397.553V378.918Z" fill="white"/>
<path d="M269.167 316.8C269.167 313.369 271.923 310.588 275.321 310.588H293.783C297.182 310.588 299.937 313.369 299.937 316.8V335.435C299.937 338.866 297.182 341.647 293.783 341.647H275.321C271.923 341.647 269.167 338.866 269.167 335.435V316.8Z" fill="white"/>
<path d="M269.167 254.682C269.167 251.252 271.923 248.471 275.321 248.471H293.783C297.182 248.471 299.937 251.252 299.937 254.682V273.318C299.937 276.748 297.182 279.529 293.783 279.529H275.321C271.923 279.529 269.167 276.748 269.167 273.318V254.682Z" fill="white"/>
<path d="M301.38 272.642C301.091 275.73 303.701 278.365 306.761 278.073C309.522 277.81 312.743 277.57 315.321 277.57C317.9 277.57 321.121 277.81 323.882 278.073C326.942 278.365 329.552 275.73 329.263 272.642C329.002 269.851 328.765 266.598 328.765 264C328.765 261.403 329.002 258.148 329.263 255.358C329.552 252.269 326.943 249.635 323.884 249.927C321.119 250.19 317.895 250.43 315.321 250.43C312.748 250.43 309.524 250.19 306.759 249.927C303.7 249.635 301.091 252.269 301.38 255.358C301.641 258.148 301.878 261.403 301.878 264C301.878 266.598 301.641 269.851 301.38 272.642Z" fill="white"/>
<path d="M303.369 298.756C299.023 304.301 306.166 311.512 311.659 307.124C313.805 305.41 316.837 305.41 318.984 307.124C324.477 311.512 331.62 304.301 327.273 298.756C325.575 296.59 325.575 293.529 327.273 291.363C331.62 285.818 324.477 278.607 318.984 282.995C316.837 284.709 313.805 284.709 311.659 282.995C306.166 278.607 299.023 285.818 303.369 291.363C305.068 293.529 305.068 296.59 303.369 298.756Z" fill="white"/>
<path d="M299.937 161.506C299.937 158.075 302.692 155.294 306.091 155.294H324.552C327.951 155.294 330.706 158.075 330.706 161.506V180.141C330.706 183.572 327.951 186.353 324.552 186.353H306.091C302.692 186.353 299.937 183.572 299.937 180.141V161.506Z" fill="white"/>
<path d="M332.149 179.465C331.86 182.554 334.47 185.188 337.53 184.897C340.291 184.633 343.512 184.394 346.091 184.394C348.67 184.394 351.89 184.633 354.651 184.897C357.711 185.188 360.321 182.554 360.033 179.465C359.772 176.675 359.534 173.421 359.534 170.824C359.534 168.226 359.772 164.972 360.033 162.181C360.322 159.093 357.712 156.459 354.653 156.751C351.888 157.014 348.664 157.254 346.091 157.254C343.517 157.254 340.293 157.014 337.529 156.751C334.469 156.459 331.86 159.093 332.149 162.181C332.41 164.972 332.648 168.226 332.648 170.824C332.648 173.421 332.41 176.675 332.149 179.465Z" fill="white"/>
<path d="M336.144 206.24C332.172 211.306 336.755 215.932 341.774 211.923C343.734 210.357 347.962 210.357 349.922 211.923C354.94 215.932 359.523 211.306 355.552 206.24C354.001 204.261 354.487 199.504 356.038 197.525C360.009 192.459 355.426 187.833 350.408 191.842C348.447 193.408 343.734 193.408 341.774 191.842C336.755 187.833 332.172 192.459 336.144 197.525C337.695 199.504 337.695 204.261 336.144 206.24Z" fill="white"/>
<path d="M330.706 68.3294C330.706 64.8988 333.461 62.1176 336.86 62.1176H355.322C358.72 62.1176 361.475 64.8988 361.475 68.3294V86.9647C361.475 90.3954 358.72 93.1765 355.322 93.1765H336.86C333.461 93.1765 330.706 90.3954 330.706 86.9647V68.3294Z" fill="white"/>
<path d="M361.475 6.21176C361.475 2.7811 364.231 0 367.629 0H386.091C389.49 0 392.245 2.7811 392.245 6.21176V24.8471C392.245 28.2777 389.49 31.0588 386.091 31.0588H367.629C364.231 31.0588 361.475 28.2777 361.475 24.8471V6.21176Z" fill="white"/>
<path d="M207.629 472.094C207.629 468.663 210.384 465.882 213.783 465.882H232.244C235.643 465.882 238.398 468.663 238.398 472.094V490.729C238.398 494.16 235.643 496.941 232.244 496.941H213.783C210.384 496.941 207.629 494.16 207.629 490.729V472.094Z" fill="white"/>
<path d="M238.398 409.976C238.398 406.546 241.153 403.765 244.552 403.765H263.014C266.412 403.765 269.167 406.546 269.167 409.976V428.612C269.167 432.042 266.412 434.824 263.014 434.824H244.552C241.153 434.824 238.398 432.042 238.398 428.612V409.976Z" fill="white"/>
<path d="M238.398 347.859C238.398 344.428 241.153 341.647 244.552 341.647H263.014C266.412 341.647 269.167 344.428 269.167 347.859V366.494C269.167 369.925 266.412 372.706 263.014 372.706H244.552C241.153 372.706 238.398 369.925 238.398 366.494V347.859Z" fill="white"/>
<path d="M270.61 365.818C270.321 368.907 272.932 371.541 275.992 371.249C278.753 370.986 281.973 370.747 284.552 370.747C287.131 370.747 290.352 370.986 293.113 371.249C296.172 371.541 298.783 368.907 298.494 365.818C298.233 363.028 297.995 359.774 297.995 357.177C297.995 354.579 298.233 351.325 298.494 348.534C298.783 345.446 296.174 342.812 293.114 343.103C290.35 343.367 287.126 343.607 284.552 343.607C281.979 343.607 278.755 343.367 275.99 343.103C272.931 342.812 270.321 345.446 270.61 348.534C270.871 351.325 271.109 354.579 271.109 357.177C271.109 359.774 270.871 363.028 270.61 365.818Z" fill="white"/>
<path d="M272.6 391.933C268.253 397.478 275.397 404.688 280.89 400.301C283.036 398.586 286.068 398.586 288.214 400.301C293.707 404.688 300.851 397.478 296.504 391.933C294.806 389.766 294.806 386.706 296.504 384.54C300.851 378.995 293.707 371.784 288.214 376.172C286.068 377.886 283.036 377.886 280.89 376.172C275.397 371.784 268.253 378.995 272.6 384.54C274.298 386.706 274.298 389.766 272.6 391.933Z" fill="white"/>
<path d="M274.605 423.652C270.634 428.717 275.217 433.343 280.235 429.335C282.196 427.769 286.423 427.769 288.383 429.335C293.402 433.343 297.985 428.717 294.014 423.652C292.462 421.673 292.948 416.915 294.499 414.937C298.47 409.871 293.888 405.245 288.869 409.253C286.909 410.819 282.196 410.819 280.235 409.253C275.217 405.245 270.634 409.871 274.605 414.937C276.156 416.915 276.156 421.673 274.605 423.652Z" fill="white"/>
<path d="M243.835 516.828C239.864 521.894 244.447 526.52 249.466 522.511C251.426 520.945 255.653 520.945 257.614 522.511C262.632 526.52 267.215 521.894 263.244 516.828C261.693 514.849 262.179 510.092 263.73 508.113C267.701 503.047 263.118 498.421 258.1 502.43C256.139 503.996 251.426 503.996 249.466 502.43C244.447 498.421 239.864 503.047 243.835 508.113C245.387 510.092 245.387 514.849 243.835 516.828Z" fill="white"/>
<path d="M305.374 330.475C301.403 335.541 305.986 340.167 311.004 336.158C312.965 334.592 317.192 334.592 319.153 336.158C324.171 340.167 328.754 335.541 324.783 330.475C323.232 328.496 323.717 323.739 325.269 321.76C329.24 316.694 324.657 312.068 319.638 316.077C317.678 317.643 312.965 317.643 311.004 316.077C305.986 312.068 301.403 316.694 305.374 321.76C306.926 323.739 306.926 328.496 305.374 330.475Z" fill="white"/>
<path d="M340.052 235.486C336.552 239.951 339.307 242.733 343.731 239.199C345.459 237.819 346.616 237.819 348.344 239.199C352.768 242.733 355.523 239.951 352.023 235.486C350.655 233.742 350.655 232.142 352.023 230.397C355.523 225.932 353.196 223.151 348.772 226.684C347.044 228.064 345.459 228.064 343.731 226.684C339.307 223.151 336.552 225.932 340.052 230.397C341.42 232.142 341.42 233.742 340.052 235.486Z" fill="white"/>
<path d="M269.167 285.741C269.167 282.311 271.923 279.529 275.321 279.529H293.783C297.182 279.529 299.937 282.311 299.937 285.741V304.376C299.937 307.807 297.182 310.588 293.783 310.588H275.321C271.923 310.588 269.167 307.807 269.167 304.376V285.741Z" fill="white"/>
<path d="M299.937 192.565C299.937 189.134 302.692 186.353 306.091 186.353H324.552C327.951 186.353 330.706 189.134 330.706 192.565V211.2C330.706 214.631 327.951 217.412 324.552 217.412H306.091C302.692 217.412 299.937 214.631 299.937 211.2V192.565Z" fill="white"/>
<path d="M330.706 99.3882C330.706 95.9576 333.461 93.1765 336.86 93.1765H355.322C358.72 93.1765 361.475 95.9576 361.475 99.3882V118.024C361.475 121.454 358.72 124.235 355.322 124.235H336.86C333.461 124.235 330.706 121.454 330.706 118.024V99.3882Z" fill="white"/>
<path d="M393.688 117.348C393.399 120.436 396.009 123.071 399.069 122.779C401.83 122.516 405.051 122.276 407.63 122.276C410.208 122.276 413.429 122.516 416.19 122.779C419.25 123.071 421.86 120.436 421.571 117.348C421.31 114.557 421.073 111.304 421.073 108.706C421.073 106.109 421.31 102.854 421.571 100.063C421.86 96.9751 419.251 94.3412 416.192 94.6329C413.427 94.8964 410.203 95.1364 407.63 95.1364C405.056 95.1364 401.832 94.8964 399.067 94.6329C396.008 94.3412 393.399 96.9751 393.688 100.063C393.949 102.854 394.186 106.109 394.186 108.706C394.186 111.304 393.949 114.557 393.688 117.348Z" fill="white"/>
<path d="M424.457 86.2887C424.168 89.3775 426.779 92.0118 429.838 91.7201C432.599 91.4569 435.82 91.2174 438.399 91.2174C440.978 91.2174 444.198 91.4569 446.959 91.7201C450.019 92.0118 452.63 89.3775 452.341 86.2887C452.08 83.4985 451.842 80.2447 451.842 77.6475C451.842 75.0498 452.08 71.7952 452.341 69.0046C452.63 65.9163 450.02 63.2824 446.961 63.574C444.197 63.8376 440.972 64.0775 438.399 64.0775C435.825 64.0775 432.601 63.8376 429.837 63.574C426.777 63.2824 424.168 65.9163 424.457 69.0046C424.718 71.7952 424.956 75.0498 424.956 77.6475C424.956 80.2447 424.718 83.4985 424.457 86.2887Z" fill="white"/>
<path d="M455.227 55.2299C454.938 58.3187 457.548 60.9529 460.608 60.6613C463.369 60.3981 466.589 60.1586 469.168 60.1586C471.747 60.1586 474.968 60.3981 477.729 60.6613C480.789 60.9529 483.399 58.3187 483.11 55.2299C482.849 52.4396 482.611 49.1859 482.611 46.5887C482.611 43.9909 482.849 40.7364 483.11 37.9458C483.399 34.8575 480.79 32.2236 477.73 32.5152C474.966 32.7787 471.742 33.0187 469.168 33.0187C466.595 33.0187 463.371 32.7787 460.606 32.5152C457.547 32.2236 454.938 34.8575 455.226 37.9458C455.487 40.7364 455.725 43.9909 455.725 46.5887C455.725 49.1859 455.488 52.4396 455.227 55.2299Z" fill="white"/>
<path d="M485.996 24.1711C485.707 27.2599 488.317 29.8941 491.377 29.6024C494.138 29.3392 497.359 29.0998 499.938 29.0998C502.517 29.0998 505.737 29.3392 508.498 29.6024C511.558 29.8941 514.168 27.2599 513.879 24.1711C513.618 21.3808 513.381 18.127 513.381 15.5298C513.381 12.9321 513.618 9.67756 513.88 6.88693C514.168 3.79867 511.559 1.16477 508.5 1.45639C505.735 1.71991 502.511 1.9599 499.938 1.9599C497.364 1.9599 494.14 1.71991 491.376 1.45639C488.316 1.16477 485.707 3.79867 485.996 6.88694C486.257 9.67756 486.495 12.9321 486.495 15.5298C486.495 18.127 486.257 21.3808 485.996 24.1711Z" fill="white"/>
<path d="M361.475 37.2706C361.475 33.8399 364.231 31.0588 367.629 31.0588H386.091C389.49 31.0588 392.245 33.8399 392.245 37.2706V55.9059C392.245 59.3365 389.49 62.1176 386.091 62.1176H367.629C364.231 62.1176 361.475 59.3365 361.475 55.9059V37.2706Z" fill="white"/>
<path d="M392.245 6.21176C392.245 2.7811 395 0 398.399 0H416.86C420.259 0 423.014 2.7811 423.014 6.21176V24.8471C423.014 28.2777 420.259 31.0588 416.86 31.0588H398.399C395 31.0588 392.245 28.2777 392.245 24.8471V6.21176Z" fill="white"/>
<path d="M461.199 142.474C457.472 147.229 461.773 151.571 466.484 147.809C468.324 146.339 469.556 146.339 471.396 147.809C476.107 151.571 480.409 147.229 476.681 142.474C475.225 140.617 475.681 138.913 477.137 137.055C480.865 132.3 476.563 127.958 471.852 131.721C470.012 133.191 468.324 133.191 466.484 131.721C461.773 127.958 457.472 132.3 461.199 137.055C462.655 138.913 462.655 140.617 461.199 142.474Z" fill="white"/>
<path d="M491.968 111.416C488.241 116.17 492.543 120.513 497.253 116.75C499.094 115.28 500.326 115.28 502.166 116.75C506.876 120.513 511.178 116.17 507.451 111.416C505.994 109.558 506.45 107.854 507.907 105.997C511.634 101.242 507.332 96.8994 502.622 100.662C500.782 102.132 499.094 102.132 497.253 100.662C492.543 96.8994 488.241 101.242 491.968 105.997C493.425 107.854 493.425 109.558 491.968 111.416Z" fill="white"/>
<path d="M522.738 80.3567C519.01 85.1116 523.312 89.4538 528.023 85.6913C529.863 84.2214 531.095 84.2214 532.935 85.6913C537.646 89.4538 541.948 85.1116 538.22 80.3567C536.764 78.4992 537.22 76.7952 538.676 74.9377C542.403 70.1828 538.102 65.8406 533.391 69.6031C531.551 71.073 529.863 71.073 528.023 69.6031C523.312 65.8406 519.01 70.1828 522.738 74.9377C524.194 76.7952 524.194 78.4992 522.738 80.3567Z" fill="white"/>
<path d="M493.899 142.31C490.399 146.775 493.154 149.556 497.578 146.023C499.306 144.642 500.463 144.642 502.191 146.023C506.615 149.556 509.37 146.775 505.869 142.31C504.502 140.565 504.502 138.965 505.869 137.221C509.37 132.755 507.043 129.974 502.619 133.508C500.891 134.888 499.306 134.888 497.578 133.508C493.154 129.974 490.399 132.755 493.899 137.221C495.267 138.965 495.267 140.565 493.899 142.31Z" fill="white"/>
<path d="M524.668 111.251C521.168 115.716 523.923 118.497 528.347 114.964C530.075 113.584 531.232 113.584 532.96 114.964C537.384 118.497 540.139 115.716 536.639 111.251C535.271 109.506 535.271 107.906 536.639 106.162C540.139 101.696 537.812 98.9153 533.389 102.449C531.66 103.829 530.075 103.829 528.347 102.449C523.923 98.9153 521.168 101.696 524.668 106.162C526.036 107.906 526.036 109.506 524.668 111.251Z" fill="white"/>
<path d="M361.475 68.3294C361.475 64.8988 364.231 62.1176 367.629 62.1176H386.091C389.49 62.1176 392.245 64.8988 392.245 68.3294V86.9647C392.245 90.3954 389.49 93.1765 386.091 93.1765H367.629C364.231 93.1765 361.475 90.3954 361.475 86.9647V68.3294Z" fill="white"/>
<path d="M392.245 37.2706C392.245 33.8399 395 31.0588 398.399 31.0588H416.86C420.259 31.0588 423.014 33.8399 423.014 37.2706V55.9059C423.014 59.3365 420.259 62.1176 416.86 62.1176H398.399C395 62.1176 392.245 59.3365 392.245 55.9059V37.2706Z" fill="white"/>
<path d="M423.014 6.21176C423.014 2.7811 425.769 0 429.168 0H447.63C451.028 0 453.784 2.7811 453.784 6.21176V24.8471C453.784 28.2777 451.028 31.0588 447.63 31.0588H429.168C425.769 31.0588 423.014 28.2777 423.014 24.8471V6.21176Z" fill="white"/>
<path d="M426.447 112.403C422.1 117.948 429.243 125.159 434.737 120.771C436.883 119.057 439.915 119.057 442.061 120.771C447.554 125.159 454.698 117.948 450.351 112.403C448.653 110.237 448.653 107.176 450.351 105.01C454.698 99.4651 447.554 92.2544 442.061 96.6422C439.915 98.3564 436.883 98.3564 434.737 96.6422C429.243 92.2544 422.1 99.4651 426.447 105.01C428.145 107.176 428.145 110.237 426.447 112.403Z" fill="white"/>
<path d="M457.216 81.3443C452.869 86.8894 460.013 94.1001 465.506 89.7123C467.652 87.9981 470.684 87.9981 472.83 89.7123C478.324 94.1001 485.467 86.8894 481.12 81.3443C479.422 79.1781 479.422 76.1176 481.12 73.9513C485.467 68.4063 478.324 61.1956 472.83 65.5834C470.684 67.2975 467.652 67.2975 465.506 65.5834C460.013 61.1956 452.869 68.4063 457.216 73.9513C458.914 76.1176 458.914 79.1781 457.216 81.3443Z" fill="white"/>
<path d="M487.986 50.2855C483.639 55.8305 490.782 63.0412 496.276 58.6535C498.422 56.9393 501.454 56.9393 503.6 58.6535C509.093 63.0412 516.237 55.8305 511.89 50.2855C510.191 48.1193 510.191 45.0587 511.89 42.8925C516.237 37.3474 509.093 30.1367 503.6 34.5245C501.454 36.2387 498.422 36.2387 496.276 34.5245C490.782 30.1367 483.639 37.3474 487.986 42.8925C489.684 45.0587 489.684 48.1193 487.986 50.2855Z" fill="white"/>
<path d="M518.755 19.2267C514.408 24.7717 521.552 31.9824 527.045 27.5946C529.191 25.8805 532.223 25.8805 534.369 27.5946C539.862 31.9824 547.006 24.7717 542.659 19.2267C540.961 17.0604 540.961 13.9999 542.659 11.8337C547.006 6.28862 539.862 -0.92208 534.369 3.46572C532.223 5.17988 529.191 5.17988 527.045 3.46572C521.552 -0.92208 514.408 6.28862 518.755 11.8337C520.453 13.9999 520.453 17.0604 518.755 19.2267Z" fill="white"/>
<path d="M459.221 113.063C455.25 118.129 459.833 122.755 464.851 118.747C466.812 117.181 471.039 117.181 473 118.747C478.018 122.755 482.601 118.129 478.63 113.063C477.078 111.084 477.564 106.327 479.116 104.348C483.087 99.2826 478.504 94.6566 473.485 98.6651C471.525 100.231 466.812 100.231 464.851 98.6651C459.833 94.6566 455.25 99.2826 459.221 104.348C460.772 106.327 460.772 111.084 459.221 113.063Z" fill="white"/>
<path d="M489.99 82.0046C486.019 87.0703 490.602 91.6964 495.621 87.6879C497.581 86.1219 501.808 86.1219 503.769 87.6879C508.787 91.6964 513.37 87.0703 509.399 82.0046C507.848 80.0257 508.334 75.2684 509.885 73.2895C513.856 68.2238 509.273 63.5978 504.255 67.6062C502.294 69.1722 497.581 69.1722 495.621 67.6062C490.602 63.5978 486.019 68.2238 489.99 73.2895C491.542 75.2684 491.542 80.0257 489.99 82.0046Z" fill="white"/>
<path d="M520.76 50.9458C516.789 56.0115 521.372 60.6375 526.39 56.6291C528.351 55.0631 532.578 55.0631 534.538 56.6291C539.557 60.6375 544.14 56.0115 540.169 50.9458C538.617 48.9668 539.103 44.2096 540.654 42.2307C544.625 37.165 540.042 32.5389 535.024 36.5474C533.063 38.1134 528.351 38.1134 526.39 36.5474C521.372 32.5389 516.789 37.165 520.76 42.2307C522.311 44.2096 522.311 48.9668 520.76 50.9458Z" fill="white"/>
<path d="M428.452 144.122C424.481 149.188 429.063 153.814 434.082 149.806C436.042 148.24 440.27 148.24 442.23 149.806C447.249 153.814 451.832 149.188 447.86 144.122C446.309 142.143 446.795 137.386 448.346 135.407C452.317 130.341 447.734 125.715 442.716 129.724C440.755 131.29 436.042 131.29 434.082 129.724C429.063 125.715 424.481 130.341 428.452 135.407C430.003 137.386 430.003 142.143 428.452 144.122Z" fill="white"/>
<path d="M299.937 223.624C299.937 220.193 302.692 217.412 306.091 217.412H324.552C327.951 217.412 330.706 220.193 330.706 223.624V242.259C330.706 245.689 327.951 248.471 324.552 248.471H306.091C302.692 248.471 299.937 245.689 299.937 242.259V223.624Z" fill="white"/>
<path d="M330.706 130.447C330.706 127.016 333.461 124.235 336.86 124.235H355.322C358.72 124.235 361.475 127.016 361.475 130.447V149.082C361.475 152.513 358.72 155.294 355.322 155.294H336.86C333.461 155.294 330.706 152.513 330.706 149.082V130.447Z" fill="white"/>
<path d="M361.475 99.3882C361.475 95.9576 364.231 93.1765 367.629 93.1765H386.091C389.49 93.1765 392.245 95.9576 392.245 99.3882V118.024C392.245 121.454 389.49 124.235 386.091 124.235H367.629C364.231 124.235 361.475 121.454 361.475 118.024V99.3882Z" fill="white"/>
<path d="M392.245 68.3294C392.245 64.8988 395 62.1176 398.399 62.1176H416.86C420.259 62.1176 423.014 64.8988 423.014 68.3294V86.9647C423.014 90.3954 420.259 93.1765 416.86 93.1765H398.399C395 93.1765 392.245 90.3954 392.245 86.9647V68.3294Z" fill="white"/>
<path d="M423.014 37.2706C423.014 33.8399 425.769 31.0588 429.168 31.0588H447.63C451.028 31.0588 453.784 33.8399 453.784 37.2706V55.9059C453.784 59.3365 451.028 62.1176 447.63 62.1176H429.168C425.769 62.1176 423.014 59.3365 423.014 55.9059V37.2706Z" fill="white"/>
<path d="M453.784 6.21176C453.784 2.7811 456.539 0 459.937 0H478.399C481.798 0 484.553 2.7811 484.553 6.21176V24.8471C484.553 28.2777 481.798 31.0588 478.399 31.0588H459.937C456.539 31.0588 453.784 28.2777 453.784 24.8471V6.21176Z" fill="white"/>
<path d="M362.918 148.406C362.63 151.495 365.24 154.129 368.3 153.838C371.061 153.575 374.281 153.335 376.86 153.335C379.439 153.335 382.66 153.575 385.421 153.838C388.481 154.129 391.091 151.495 390.802 148.406C390.541 145.616 390.303 142.362 390.303 139.765C390.303 137.167 390.541 133.913 390.802 131.122C391.091 128.034 388.482 125.4 385.422 125.692C382.658 125.955 379.434 126.195 376.86 126.195C374.287 126.195 371.063 125.955 368.298 125.692C365.239 125.4 362.629 128.034 362.918 131.122C363.179 133.913 363.417 137.167 363.417 139.765C363.417 142.362 363.179 145.616 362.918 148.406Z" fill="white"/>
<path d="M395.678 143.462C391.331 149.007 398.474 156.218 403.967 151.83C406.114 150.116 409.146 150.116 411.292 151.83C416.785 156.218 423.928 149.007 419.582 143.462C417.883 141.296 417.883 138.235 419.582 136.069C423.928 130.524 416.785 123.313 411.292 127.701C409.146 129.415 406.114 129.415 403.967 127.701C398.474 123.313 391.331 130.524 395.678 136.069C397.376 138.235 397.376 141.296 395.678 143.462Z" fill="white"/>
</svg>
