<svg width="1920" height="381" viewBox="0 0 1920 381" fill="none" xmlns="http://www.w3.org/2000/svg">
<path fill-rule="evenodd" clip-rule="evenodd" d="M1674.35 380.461C1641.54 380.461 1612.74 376.074 1587.94 367.299C1563.52 358.524 1544.44 344.598 1530.71 325.522C1517.36 306.064 1510.68 280.502 1510.68 248.835C1510.68 231.666 1512.97 212.209 1517.55 190.462C1527.47 143.915 1542.73 106.908 1563.33 79.4377C1584.31 51.5863 1610.83 31.5562 1642.88 19.3474C1674.93 6.75708 1712.51 0.461914 1755.62 0.461914C1789.19 0.461914 1818.19 4.84945 1842.61 13.6245C1867.02 22.0181 1885.91 35.753 1899.26 54.8293C1912.62 73.9056 1919.29 99.0863 1919.29 130.371C1919.29 147.922 1917 167.952 1912.43 190.462C1902.51 236.626 1887.25 273.634 1866.64 301.486C1846.04 329.337 1819.72 349.558 1787.67 362.148C1756 374.357 1718.23 380.461 1674.35 380.461ZM1699.53 263.142C1719.76 263.142 1735.21 257.801 1745.89 247.118C1756.95 236.054 1765.35 217.168 1771.07 190.462C1772.6 183.213 1773.74 176.727 1774.5 171.004C1775.65 164.899 1776.22 155.94 1776.22 150.981C1776.22 137.627 1772.79 128.28 1765.92 122.938C1759.05 117.216 1747.23 114.354 1730.44 114.354C1710.22 114.354 1694.58 119.886 1683.51 130.951C1672.83 141.633 1664.63 163.755 1658.9 190.462C1657.38 197.711 1656.23 204.387 1655.47 210.492C1654.71 216.215 1654.32 221.556 1654.32 226.516C1654.32 239.488 1657.76 248.835 1664.63 254.558C1671.49 260.281 1683.13 263.142 1699.53 263.142ZM1151.32 374.738C1130.64 374.738 1115.2 355.696 1119.47 335.456L1183.55 32.0132C1186.73 16.9579 1200.02 6.18453 1215.4 6.18453H1407.62C1437 6.18453 1460.84 13.815 1479.16 29.0761C1497.85 44.3371 1507.2 64.3672 1507.2 89.1663C1507.2 96.7968 1506.44 103.855 1504.91 110.341C1501.09 128.654 1494.61 144.297 1485.45 157.269C1476.68 170.24 1466.18 180.542 1453.98 188.172C1464.28 193.514 1472.48 200.19 1478.58 208.202C1484.69 215.833 1487.74 226.325 1487.74 239.678C1487.74 243.112 1487.36 246.927 1486.6 251.124C1486.21 254.939 1485.64 258.945 1484.88 263.142C1477.63 297.861 1461.61 325.14 1436.81 344.979C1412.39 364.818 1377.48 374.738 1332.08 374.738H1151.32ZM1301.14 127.604C1298.92 137.855 1306.73 147.54 1317.21 147.54H1340.66C1358.98 147.54 1370.23 135.144 1373.28 122.931C1373.66 121.405 1374.29 118.705 1374.29 116.416C1373.28 105.403 1366.22 100.04 1350.96 100.04H1320.38C1312.64 100.04 1305.95 105.437 1304.31 113.003L1301.14 127.604ZM1272.68 260.948C1270.46 271.198 1278.27 280.883 1288.75 280.883H1312.05C1330.36 280.883 1341.28 269.503 1344.86 256.31C1345.54 254.258 1345.79 252.115 1345.79 249.984C1344.16 238.153 1337.61 233.383 1322.35 233.383H1291.92C1284.18 233.383 1277.49 238.781 1275.85 246.346L1272.68 260.948ZM743.906 335.456C739.632 355.696 755.073 374.738 775.759 374.738H874.105L893.562 280.883H899.285C906.916 280.883 911.494 284.889 913.02 292.901L925.452 349.202C928.745 364.118 941.966 374.738 957.241 374.738H1076.12L1053.8 274.588C1052.28 266.957 1050.75 260.408 1048.92 252.679C1072.19 240.089 1084.9 227.66 1100.16 209.347C1115.8 190.652 1126.1 168.905 1131.06 144.106C1133.35 133.042 1134.5 122.359 1134.5 112.058C1134.5 81.1543 1124.39 55.7829 1104.16 35.9435C1084.33 16.1042 1056.47 6.18453 1020.61 6.18453H839.84C824.453 6.18453 811.167 16.9579 807.988 32.0132L743.906 335.456ZM939.298 161.805C928.844 161.805 921.042 152.18 923.205 141.951L926.285 127.392C927.893 119.788 934.605 114.347 942.378 114.347H965.098C982.649 114.347 991.424 121.024 991.424 134.377C991.424 137.526 990.896 141.021 990.279 144.106C986.696 162.021 967.635 161.896 955.117 161.815C954.306 161.81 953.522 161.805 952.771 161.805H939.298ZM516.612 380.461C469.303 380.461 431.532 369.778 403.299 348.413C375.448 326.666 361.522 297.288 361.522 260.281C361.522 249.598 362.666 238.534 364.956 227.088L406.404 31.9749C409.599 16.9378 422.876 6.18453 438.249 6.18453H550.377L506.883 211.636C504.594 221.174 503.449 229.377 503.449 236.244C503.449 246.927 507.355 253.899 512.606 257.991C517.857 262.084 527.069 263.498 541.793 263.142C559.724 263.142 572.696 258.945 580.708 250.552C588.72 242.158 594.634 229.186 598.449 211.636L636.479 31.9973C639.664 16.9496 652.947 6.18453 668.328 6.18453H780.437L732.937 229.377C722.636 278.594 699.363 316.174 663.118 342.118C627.254 367.68 578.419 380.461 516.612 380.461ZM62.6944 335.495C58.4322 355.73 73.8711 374.76 94.5507 374.76H192.918L247.929 113.586H329.128C344.499 113.586 357.776 102.834 360.972 87.7982L378.312 6.20584L49.8903 6.20126C34.5184 6.20105 21.2411 16.9531 18.0457 31.9892L0.706055 113.581L109.435 113.586L62.6944 335.495Z" fill="black"/>
</svg>
