<svg width="1920" height="380" viewBox="0 0 1920 380" fill="none" xmlns="http://www.w3.org/2000/svg">
<path fill-rule="evenodd" clip-rule="evenodd" d="M1674.35 380C1641.54 380 1612.74 375.612 1587.94 366.837C1563.52 358.062 1544.44 344.136 1530.71 325.06C1517.36 305.602 1510.68 280.04 1510.68 248.374C1510.68 231.205 1512.97 211.747 1517.55 190C1527.47 143.454 1542.73 106.446 1563.33 78.9763C1584.31 51.1249 1610.83 31.0948 1642.88 18.886C1674.93 6.29565 1712.51 0.000488281 1755.62 0.000488281C1789.19 0.000488281 1818.19 4.38803 1842.61 13.1631C1867.02 21.5567 1885.91 35.2916 1899.26 54.3679C1912.62 73.4441 1919.29 98.6248 1919.29 129.91C1919.29 147.46 1917 167.49 1912.43 190C1902.51 236.165 1887.25 273.173 1866.64 301.024C1846.04 328.875 1819.72 349.096 1787.67 361.687C1756 373.895 1718.23 380 1674.35 380ZM1699.53 262.681C1719.76 262.681 1735.21 257.339 1745.89 246.657C1756.95 235.592 1765.35 216.707 1771.07 190C1772.6 182.751 1773.74 176.265 1774.5 170.542C1775.65 164.438 1776.22 155.479 1776.22 150.519C1776.22 137.166 1772.79 127.818 1765.92 122.477C1759.05 116.754 1747.23 113.893 1730.44 113.893C1710.22 113.893 1694.58 119.425 1683.51 130.489C1672.83 141.172 1664.63 163.293 1658.9 190C1657.38 197.249 1656.23 203.926 1655.47 210.03C1654.71 215.753 1654.32 221.095 1654.32 226.054C1654.32 239.026 1657.76 248.374 1664.63 254.096C1671.49 259.819 1683.13 262.681 1699.53 262.681ZM1151.32 374.277C1130.64 374.277 1115.2 355.235 1119.47 334.995L1183.55 31.5518C1186.73 16.4965 1200.02 5.7231 1215.4 5.7231H1407.62C1437 5.7231 1460.84 13.3536 1479.16 28.6146C1497.85 43.8757 1507.2 63.9058 1507.2 88.7049C1507.2 96.3354 1506.44 103.394 1504.91 109.88C1501.09 128.193 1494.61 143.835 1485.45 156.807C1476.68 169.779 1466.18 180.08 1453.98 187.711C1464.28 193.052 1472.48 199.729 1478.58 207.741C1484.69 215.371 1487.74 225.863 1487.74 239.217C1487.74 242.65 1487.36 246.466 1486.6 250.663C1486.21 254.478 1485.64 258.484 1484.88 262.681C1477.63 297.399 1461.61 324.678 1436.81 344.518C1412.39 364.357 1377.48 374.277 1332.08 374.277H1151.32ZM1301.14 127.143C1298.92 137.394 1306.73 147.078 1317.21 147.078H1340.66C1358.98 147.078 1370.23 134.683 1373.28 122.47C1373.66 120.944 1374.29 118.244 1374.29 115.955C1373.28 104.942 1366.22 99.5784 1350.96 99.5784H1320.38C1312.64 99.5784 1305.95 104.976 1304.31 112.541L1301.14 127.143ZM1272.68 260.486C1270.46 270.737 1278.27 280.421 1288.75 280.421H1312.05C1330.36 280.421 1341.28 269.041 1344.86 255.849C1345.54 253.797 1345.79 251.654 1345.79 249.523C1344.16 237.691 1337.61 232.922 1322.35 232.922H1291.92C1284.18 232.922 1277.49 238.319 1275.85 245.884L1272.68 260.486ZM743.906 334.995C739.632 355.235 755.073 374.277 775.759 374.277H874.105L893.562 280.421H899.285C906.916 280.421 911.494 284.427 913.02 292.44L925.452 348.741C928.745 363.657 941.966 374.277 957.241 374.277H1076.12L1053.8 274.126C1052.28 266.496 1050.75 259.946 1048.92 252.218C1072.19 239.627 1084.9 227.199 1100.16 208.885C1115.8 190.191 1126.1 168.444 1131.06 143.645C1133.35 132.58 1134.5 121.898 1134.5 111.596C1134.5 80.6929 1124.39 55.3214 1104.16 35.4821C1084.33 15.6428 1056.47 5.7231 1020.61 5.7231H839.84C824.453 5.7231 811.167 16.4965 807.988 31.5518L743.906 334.995ZM939.298 161.343C928.844 161.343 921.042 151.718 923.205 141.49L926.285 126.931C927.893 119.326 934.605 113.886 942.378 113.886H965.098C982.649 113.886 991.424 120.562 991.424 133.916C991.424 137.064 990.896 140.559 990.279 143.645C986.696 161.559 967.635 161.435 955.117 161.354C954.306 161.348 953.522 161.343 952.771 161.343H939.298ZM516.612 380C469.303 380 431.532 369.317 403.299 347.951C375.448 326.204 361.522 296.827 361.522 259.819C361.522 249.136 362.666 238.072 364.956 226.626L406.404 31.5135C409.599 16.4764 422.876 5.7231 438.249 5.7231H550.377L506.883 211.175C504.594 220.713 503.449 228.915 503.449 235.783C503.449 246.466 507.355 253.438 512.606 257.53C517.857 261.622 527.069 263.037 541.793 262.681C559.724 262.681 572.696 258.484 580.708 250.09C588.72 241.697 594.634 228.725 598.449 211.175L636.479 31.5359C639.664 16.4881 652.947 5.7231 668.328 5.7231H780.437L732.937 228.916C722.636 278.132 699.363 315.713 663.118 341.656C627.254 367.219 578.419 380 516.612 380ZM62.6944 335.033C58.4322 355.269 73.8711 374.298 94.5507 374.298H192.918L247.929 113.125H329.128C344.499 113.125 357.776 102.373 360.972 87.3368L378.312 5.74442L49.8903 5.73984C34.5184 5.73962 21.2411 16.4917 18.0457 31.5278L0.706055 113.12L109.435 113.125L62.6944 335.033Z" fill="white"/>
</svg>
