<?xml version="1.0" encoding="UTF-8" ?>
<svg version="1.1" width="160" height="160" xmlns="http://www.w3.org/2000/svg" shape-rendering="crispEdges">
<rect x="70" y="0" width="10" height="10" fill="#FFFFFF" />
<rect x="80" y="0" width="10" height="10" fill="#FFFFFF" />
<rect x="60" y="10" width="10" height="10" fill="#FFFFFF" />
<rect x="70" y="10" width="10" height="10" fill="#FFFFFF" />
<rect x="80" y="10" width="10" height="10" fill="#FFFFFF" />
<rect x="90" y="10" width="10" height="10" fill="#FFFFFF" />
<rect x="20" y="20" width="10" height="10" fill="#FFFFFF" />
<rect x="30" y="20" width="10" height="10" fill="#FFFFFF" />
<rect x="40" y="20" width="10" height="10" fill="#FFFFFF" />
<rect x="50" y="20" width="10" height="10" fill="#FFFFFF" />
<rect x="60" y="20" width="10" height="10" fill="#FFFFFF" />
<rect x="70" y="20" width="10" height="10" fill="#FFFFFF" />
<rect x="80" y="20" width="10" height="10" fill="#FFFFFF" />
<rect x="90" y="20" width="10" height="10" fill="#FFFFFF" />
<rect x="100" y="20" width="10" height="10" fill="#FFFFFF" />
<rect x="110" y="20" width="10" height="10" fill="#FFFFFF" />
<rect x="120" y="20" width="10" height="10" fill="#FFFFFF" />
<rect x="130" y="20" width="10" height="10" fill="#FFFFFF" />
<rect x="10" y="30" width="10" height="10" fill="#FFFFFF" />
<rect x="20" y="30" width="10" height="10" fill="#FFFFFF" />
<rect x="130" y="30" width="10" height="10" fill="#FFFFFF" />
<rect x="140" y="30" width="10" height="10" fill="#FFFFFF" />
<rect x="0" y="40" width="10" height="10" fill="#FFFFFF" />
<rect x="10" y="40" width="10" height="10" fill="#FFFFFF" />
<rect x="40" y="40" width="10" height="10" fill="#FFFFFF" />
<rect x="50" y="40" width="10" height="10" fill="#FFFFFF" />
<rect x="100" y="40" width="10" height="10" fill="#FFFFFF" />
<rect x="110" y="40" width="10" height="10" fill="#FFFFFF" />
<rect x="140" y="40" width="10" height="10" fill="#FFFFFF" />
<rect x="150" y="40" width="10" height="10" fill="#FFFFFF" />
<rect x="0" y="50" width="10" height="10" fill="#FFFFFF" />
<rect x="40" y="50" width="10" height="10" fill="#FFFFFF" />
<rect x="50" y="50" width="10" height="10" fill="#FFFFFF" />
<rect x="100" y="50" width="10" height="10" fill="#FFFFFF" />
<rect x="110" y="50" width="10" height="10" fill="#FFFFFF" />
<rect x="150" y="50" width="10" height="10" fill="#FFFFFF" />
<rect x="0" y="60" width="10" height="10" fill="#FFFFFF" />
<rect x="40" y="60" width="10" height="10" fill="#FFFFFF" />
<rect x="50" y="60" width="10" height="10" fill="#FFFFFF" />
<rect x="100" y="60" width="10" height="10" fill="#FFFFFF" />
<rect x="110" y="60" width="10" height="10" fill="#FFFFFF" />
<rect x="150" y="60" width="10" height="10" fill="#FFFFFF" />
<rect x="0" y="70" width="10" height="10" fill="#FFFFFF" />
<rect x="150" y="70" width="10" height="10" fill="#FFFFFF" />
<rect x="0" y="80" width="10" height="10" fill="#FFFFFF" />
<rect x="50" y="80" width="10" height="10" fill="#FFFFFF" />
<rect x="100" y="80" width="10" height="10" fill="#FFFFFF" />
<rect x="150" y="80" width="10" height="10" fill="#FFFFFF" />
<rect x="0" y="90" width="10" height="10" fill="#FFFFFF" />
<rect x="20" y="90" width="10" height="10" fill="#FFFFFF" />
<rect x="50" y="90" width="10" height="10" fill="#FFFFFF" />
<rect x="60" y="90" width="10" height="10" fill="#FFFFFF" />
<rect x="70" y="90" width="10" height="10" fill="#FFFFFF" />
<rect x="80" y="90" width="10" height="10" fill="#FFFFFF" />
<rect x="90" y="90" width="10" height="10" fill="#FFFFFF" />
<rect x="100" y="90" width="10" height="10" fill="#FFFFFF" />
<rect x="130" y="90" width="10" height="10" fill="#FFFFFF" />
<rect x="150" y="90" width="10" height="10" fill="#FFFFFF" />
<rect x="0" y="100" width="10" height="10" fill="#FFFFFF" />
<rect x="10" y="100" width="10" height="10" fill="#FFFFFF" />
<rect x="20" y="100" width="10" height="10" fill="#FFFFFF" />
<rect x="30" y="100" width="10" height="10" fill="#FFFFFF" />
<rect x="60" y="100" width="10" height="10" fill="#FFFFFF" />
<rect x="70" y="100" width="10" height="10" fill="#FFFFFF" />
<rect x="80" y="100" width="10" height="10" fill="#FFFFFF" />
<rect x="90" y="100" width="10" height="10" fill="#FFFFFF" />
<rect x="120" y="100" width="10" height="10" fill="#FFFFFF" />
<rect x="130" y="100" width="10" height="10" fill="#FFFFFF" />
<rect x="140" y="100" width="10" height="10" fill="#FFFFFF" />
<rect x="150" y="100" width="10" height="10" fill="#FFFFFF" />
<rect x="0" y="110" width="10" height="10" fill="#FFFFFF" />
<rect x="20" y="110" width="10" height="10" fill="#FFFFFF" />
<rect x="130" y="110" width="10" height="10" fill="#FFFFFF" />
<rect x="150" y="110" width="10" height="10" fill="#FFFFFF" />
<rect x="0" y="120" width="10" height="10" fill="#FFFFFF" />
<rect x="60" y="120" width="10" height="10" fill="#FFFFFF" />
<rect x="70" y="120" width="10" height="10" fill="#FFFFFF" />
<rect x="80" y="120" width="10" height="10" fill="#FFFFFF" />
<rect x="90" y="120" width="10" height="10" fill="#FFFFFF" />
<rect x="150" y="120" width="10" height="10" fill="#FFFFFF" />
<rect x="0" y="130" width="10" height="10" fill="#FFFFFF" />
<rect x="10" y="130" width="10" height="10" fill="#FFFFFF" />
<rect x="50" y="130" width="10" height="10" fill="#FFFFFF" />
<rect x="60" y="130" width="10" height="10" fill="#FFFFFF" />
<rect x="70" y="130" width="10" height="10" fill="#FFFFFF" />
<rect x="80" y="130" width="10" height="10" fill="#FFFFFF" />
<rect x="90" y="130" width="10" height="10" fill="#FFFFFF" />
<rect x="100" y="130" width="10" height="10" fill="#FFFFFF" />
<rect x="140" y="130" width="10" height="10" fill="#FFFFFF" />
<rect x="150" y="130" width="10" height="10" fill="#FFFFFF" />
<rect x="0" y="140" width="10" height="10" fill="#FFFFFF" />
<rect x="10" y="140" width="10" height="10" fill="#FFFFFF" />
<rect x="20" y="140" width="10" height="10" fill="#FFFFFF" />
<rect x="30" y="140" width="10" height="10" fill="#FFFFFF" />
<rect x="40" y="140" width="10" height="10" fill="#FFFFFF" />
<rect x="50" y="140" width="10" height="10" fill="#FFFFFF" />
<rect x="60" y="140" width="10" height="10" fill="#FFFFFF" />
<rect x="90" y="140" width="10" height="10" fill="#FFFFFF" />
<rect x="100" y="140" width="10" height="10" fill="#FFFFFF" />
<rect x="110" y="140" width="10" height="10" fill="#FFFFFF" />
<rect x="120" y="140" width="10" height="10" fill="#FFFFFF" />
<rect x="130" y="140" width="10" height="10" fill="#FFFFFF" />
<rect x="140" y="140" width="10" height="10" fill="#FFFFFF" />
<rect x="150" y="140" width="10" height="10" fill="#FFFFFF" />
<rect x="10" y="150" width="10" height="10" fill="#FFFFFF" />
<rect x="20" y="150" width="10" height="10" fill="#FFFFFF" />
<rect x="30" y="150" width="10" height="10" fill="#FFFFFF" />
<rect x="40" y="150" width="10" height="10" fill="#FFFFFF" />
<rect x="50" y="150" width="10" height="10" fill="#FFFFFF" />
<rect x="100" y="150" width="10" height="10" fill="#FFFFFF" />
<rect x="110" y="150" width="10" height="10" fill="#FFFFFF" />
<rect x="120" y="150" width="10" height="10" fill="#FFFFFF" />
<rect x="130" y="150" width="10" height="10" fill="#FFFFFF" />
<rect x="140" y="150" width="10" height="10" fill="#FFFFFF" />
</svg>