<svg width="481" height="291" viewBox="0 0 481 291" fill="none" xmlns="http://www.w3.org/2000/svg">
<path d="M296.1 287.13C296.1 287.13 267.54 273.38 246.22 194.48C224.9 115.58 281.18 151.44 306.33 215.99C294.18 184.82 289.76 145.56 290.53 107.52C291.18 75.32 289.38 8.27999 314.66 1.04999C354.95 -10.46 367.06 133.12 367.06 133.12C374.38 99.75 397.59 32.54 419.46 30.1C442.48 27.53 421.56 177.81 413.5 190.86C427.2 164.87 441.25 153.35 448.42 153.61C456.56 153.91 461.97 165.71 459.29 181.25C449.03 240.69 429.08 287.88 425.29 287.86C399.15 287.71 296.11 287.11 296.11 287.11L296.1 287.13Z" fill="#C9FFE0"/>
<path d="M296.1 287.13C296.1 287.13 267.54 273.38 246.22 194.48C224.9 115.58 281.18 151.44 306.33 215.99C294.18 184.82 289.76 145.56 290.53 107.52C291.18 75.32 289.38 8.27999 314.66 1.04999C354.95 -10.46 367.06 133.12 367.06 133.12C374.38 99.75 397.59 32.54 419.46 30.1C442.48 27.53 421.56 177.81 413.5 190.86C427.2 164.87 441.25 153.35 448.42 153.61C456.56 153.91 461.97 165.71 459.29 181.25C449.03 240.69 429.08 287.88 425.29 287.86C399.15 287.71 296.11 287.11 296.11 287.11L296.1 287.13Z" stroke="#5200FF" stroke-width="0.8" stroke-linecap="round" stroke-linejoin="round"/>
<path d="M137.99 84.5L138.78 204.09C138.87 217.14 149.52 217.37 162.56 217.29L321.12 216.43C334.11 216.36 344.6 216.1 344.63 203.11L344.89 84.38C344.92 71.3 334.32 60.67 321.24 60.67H161.63C148.5 60.67 137.89 71.36 137.98 84.49L137.99 84.5Z" fill="#E8E6D9"/>
<path d="M162.42 191.12C160.59 191.12 159.08 189.63 159.07 187.79L158.28 84.3501C158.28 83.2001 158.8 82.4201 159.25 81.9701C159.7 81.5201 160.48 80.9801 161.63 80.9801H321.24C322.39 80.9801 323.16 81.5201 323.61 81.9601C324.06 82.4101 324.59 83.1801 324.59 84.3301L324.33 186.91C324.33 188.74 322.83 190.24 321 190.25L162.42 191.11V191.12Z" fill="#CECCC2"/>
<path d="M137.99 84.5L138.78 204.09C138.87 217.14 149.52 217.37 162.56 217.29L321.12 216.43C334.11 216.36 344.6 216.1 344.63 203.11L344.89 84.38C344.92 71.3 334.32 60.67 321.24 60.67H161.63C148.5 60.67 137.89 71.36 137.98 84.49L137.99 84.5Z" stroke="#5200FF" stroke-width="0.8" stroke-linecap="round" stroke-linejoin="round"/>
<path d="M162.42 191.12C160.59 191.12 159.08 189.63 159.07 187.79L158.28 84.3501C158.28 83.2001 158.8 82.4201 159.25 81.9701C159.7 81.5201 160.48 80.9801 161.63 80.9801H321.24C322.39 80.9801 323.16 81.5201 323.61 81.9601C324.06 82.4101 324.59 83.1801 324.59 84.3301L324.33 186.91C324.33 188.74 322.83 190.24 321 190.25L162.42 191.11V191.12Z" stroke="#5200FF" stroke-width="0.8" stroke-linecap="round" stroke-linejoin="round"/>
<path d="M241.44 108.53H246.95H252.45V103.03H246.95H241.44H235.94H230.43V108.53H235.94H241.44Z" fill="#E8E6D9"/>
<path d="M230.43 114.04V108.53H224.93H219.42V114.04H224.93H230.43Z" fill="#E8E6D9"/>
<path d="M257.95 114.04H263.46V108.53H257.95H252.45V114.04H257.95Z" fill="#E8E6D9"/>
<path d="M219.42 119.54V114.04H213.92V119.54V125.04H219.42V119.54Z" fill="#E8E6D9"/>
<path d="M263.46 125.04H268.96V119.54V114.04H263.46V119.54V125.04Z" fill="#E8E6D9"/>
<path d="M252.45 130.55V136.05H257.95V130.55V125.04H252.45V130.55Z" fill="#E8E6D9"/>
<path d="M268.96 125.04V130.55V136.05V141.56V147.06H274.47V141.56V136.05V130.55V125.04H268.96Z" fill="#E8E6D9"/>
<path d="M230.43 130.55V125.04H224.93V130.55V136.05H230.43V130.55Z" fill="#E8E6D9"/>
<path d="M213.92 136.05V130.55V125.04H208.42V130.55V136.05V141.56V147.06H213.92V141.56V136.05Z" fill="#E8E6D9"/>
<path d="M235.93 141.56H230.43V147.06H235.93V141.56Z" fill="#E8E6D9"/>
<path d="M252.45 141.56H246.95V147.06H252.45V141.56Z" fill="#E8E6D9"/>
<path d="M219.42 147.06H213.92V152.57V158.07H219.42V152.57V147.06Z" fill="#E8E6D9"/>
<path d="M235.94 147.06V152.57H241.44H246.95V147.06H241.44H235.94Z" fill="#E8E6D9"/>
<path d="M263.46 152.57V158.07H268.96V152.57V147.06H263.46V152.57Z" fill="#E8E6D9"/>
<path d="M224.93 158.07H219.42V163.57H224.93H230.43V158.07H224.93Z" fill="#E8E6D9"/>
<path d="M252.45 158.07V163.57H257.95H263.46V158.07H257.95H252.45Z" fill="#E8E6D9"/>
<path d="M241.44 163.57H235.94H230.43V169.08H235.94H241.44H246.95H252.45V163.57H246.95H241.44Z" fill="#E8E6D9"/>
<path d="M263.12 208.61H245.88C244.775 208.61 243.88 209.506 243.88 210.61V219.79C243.88 220.895 244.775 221.79 245.88 221.79H263.12C264.225 221.79 265.12 220.895 265.12 219.79V210.61C265.12 209.506 264.225 208.61 263.12 208.61Z" fill="#FAFFB3"/>
<path d="M263.12 208.61H245.88C244.775 208.61 243.88 209.506 243.88 210.61V219.79C243.88 220.895 244.775 221.79 245.88 221.79H263.12C264.225 221.79 265.12 220.895 265.12 219.79V210.61C265.12 209.506 264.225 208.61 263.12 208.61Z" stroke="#5200FF" stroke-width="0.8" stroke-linecap="round" stroke-linejoin="round"/>
<path d="M296.97 208.61H279.73C278.625 208.61 277.73 209.506 277.73 210.61V219.79C277.73 220.895 278.625 221.79 279.73 221.79H296.97C298.075 221.79 298.97 220.895 298.97 219.79V210.61C298.97 209.506 298.075 208.61 296.97 208.61Z" fill="#FAFFB3"/>
<path d="M296.97 208.61H279.73C278.625 208.61 277.73 209.506 277.73 210.61V219.79C277.73 220.895 278.625 221.79 279.73 221.79H296.97C298.075 221.79 298.97 220.895 298.97 219.79V210.61C298.97 209.506 298.075 208.61 296.97 208.61Z" stroke="#5200FF" stroke-width="0.8" stroke-linecap="round" stroke-linejoin="round"/>
<path d="M204.04 184.86H196.04V221.79H204.04V184.86Z" fill="#CECCC2"/>
<path d="M204.04 184.86H196.04V221.79H204.04V184.86Z" stroke="#5200FF" stroke-width="0.8" stroke-linecap="round" stroke-linejoin="round"/>
<path d="M216.55 184.36C216.48 198.56 198.78 206.17 188.51 196.24C183.88 191.76 182.26 184.45 184.57 178.43C190.56 162.83 214.2 165.66 216.41 182.16C216.51 182.9 216.55 183.63 216.55 184.35V184.36Z" fill="#FFBFDD"/>
<path d="M216.55 184.36C216.48 198.56 198.78 206.17 188.51 196.24C183.88 191.76 182.26 184.45 184.57 178.43C190.56 162.83 214.2 165.66 216.41 182.16C216.51 182.9 216.55 183.63 216.55 184.35V184.36Z" stroke="#5200FF" stroke-width="0.8" stroke-linecap="round" stroke-linejoin="round"/>
<path d="M347.82 219.53V283.36C347.82 285.85 345.8 287.87 343.31 287.87H139.88C137.39 287.87 135.37 284.38 135.37 282.63V221.35C135.37 218.13 137.38 216.12 139.86 216.11L343.29 215.03C345.79 215.02 347.82 217.04 347.82 219.54V219.53Z" fill="#E8E6D9"/>
<path d="M228.35 238.93H319.18C321.63 238.93 323.62 240.92 323.62 243.37V254.27C323.62 256.72 321.63 258.71 319.18 258.71H228.65C226.26 258.71 224.3 256.82 224.22 254.43L223.93 243.53C223.84 241.02 225.85 238.94 228.36 238.94L228.35 238.93Z" fill="#CECCC2"/>
<path d="M231.42 249.12H313.93" stroke="#5200FF" stroke-width="0.8" stroke-linecap="round" stroke-linejoin="round"/>
<path d="M347.82 219.53V283.36C347.82 285.85 345.8 287.87 343.31 287.87H139.88C137.39 287.87 135.37 284.38 135.37 282.63V221.35C135.37 218.13 137.38 216.12 139.86 216.11L343.29 215.03C345.79 215.02 347.82 217.04 347.82 219.54V219.53Z" stroke="#5200FF" stroke-width="0.8" stroke-linecap="round" stroke-linejoin="round"/>
<path d="M160.53 234.08H160.01C158.905 234.08 158.01 234.976 158.01 236.08V257.99C158.01 259.095 158.905 259.99 160.01 259.99H160.53C161.635 259.99 162.53 259.095 162.53 257.99V236.08C162.53 234.976 161.635 234.08 160.53 234.08Z" fill="#5200FF"/>
<path d="M169.56 234.08H169.04C167.935 234.08 167.04 234.976 167.04 236.08V257.99C167.04 259.095 167.935 259.99 169.04 259.99H169.56C170.665 259.99 171.56 259.095 171.56 257.99V236.08C171.56 234.976 170.665 234.08 169.56 234.08Z" fill="#5200FF"/>
<path d="M151.5 234.08H150.98C149.875 234.08 148.98 234.976 148.98 236.08V257.99C148.98 259.095 149.875 259.99 150.98 259.99H151.5C152.605 259.99 153.5 259.095 153.5 257.99V236.08C153.5 234.976 152.605 234.08 151.5 234.08Z" fill="#5200FF"/>
<path d="M178.59 234.08H178.07C176.965 234.08 176.07 234.976 176.07 236.08V257.99C176.07 259.095 176.965 259.99 178.07 259.99H178.59C179.695 259.99 180.59 259.095 180.59 257.99V236.08C180.59 234.976 179.695 234.08 178.59 234.08Z" fill="#5200FF"/>
<path d="M187.63 234.08H187.11C186.005 234.08 185.11 234.976 185.11 236.08V257.99C185.11 259.095 186.005 259.99 187.11 259.99H187.63C188.735 259.99 189.63 259.095 189.63 257.99V236.08C189.63 234.976 188.735 234.08 187.63 234.08Z" fill="#5200FF"/>
<path d="M196.66 234.08H196.14C195.035 234.08 194.14 234.976 194.14 236.08V257.99C194.14 259.095 195.035 259.99 196.14 259.99H196.66C197.765 259.99 198.66 259.095 198.66 257.99V236.08C198.66 234.976 197.765 234.08 196.66 234.08Z" fill="#5200FF"/>
<path d="M205.69 234.08H205.17C204.065 234.08 203.17 234.976 203.17 236.08V257.99C203.17 259.095 204.065 259.99 205.17 259.99H205.69C206.795 259.99 207.69 259.095 207.69 257.99V236.08C207.69 234.976 206.795 234.08 205.69 234.08Z" fill="#5200FF"/>
<path d="M135.37 273.43L347.82 271.79" stroke="#5200FF" stroke-width="0.8" stroke-linecap="round" stroke-linejoin="round"/>
<path d="M250.4 245.56C250.4 269.69 269.84 289.31 293.97 289.53L299.73 289.58C307.36 289.65 314.88 287.73 321.54 284.02L326.31 281.36L354.1 281.56L357.86 283.84C364.62 287.93 372.35 290.13 380.25 290.2H380.67C405.1 290.42 425.03 270.67 425.03 246.23V245.57C425.03 221.28 405.34 201.6 381.06 201.6H294.37C270.08 201.6 250.4 221.29 250.4 245.57V245.56Z" fill="#FFFF7D"/>
<path d="M408.12 268.44C404.23 272.88 399.09 276.3 392.83 278.01C377.35 282.25 360.83 273.88 353.74 259.77C346.1 244.56 351.55 225.66 366.06 216.69C380.71 207.63 401.14 211.28 410.83 225.73C419.78 239.07 418.05 257.09 408.12 268.44Z" fill="#FFE91B"/>
<path d="M326.31 245.52C326.46 251.41 324.94 257.53 321.26 263.43C307.97 284.76 274.86 283.39 262.82 261.39C254.37 245.96 259.95 225.85 274.88 216.69C298.36 202.28 325.72 221.97 326.31 245.52Z" fill="#FFE91B"/>
<path d="M392.18 226.6C392.19 227.97 391.85 229.37 391.1 230.69C385.75 239.94 371.19 231.21 377.08 222.11C381.43 215.38 392.11 218.7 392.18 226.6Z" fill="#AC54FF"/>
<path d="M391.85 262.81C391.94 265.49 390.79 268.19 388.09 269.77C385.45 271.33 381.9 271.2 379.38 269.46C372.98 265.04 376.25 254.71 383.98 254.71C388.73 254.71 391.72 258.73 391.85 262.81Z" fill="#FFBFDD"/>
<path d="M402.08 252.69C398.52 252.74 394.96 250.73 394.06 246.35C393.37 242.98 395.06 239.26 398.06 237.57C403.42 234.55 410.27 238.59 410.27 244.7C410.27 249.82 406.18 252.63 402.08 252.69Z" fill="#69FFA9"/>
<path d="M365.88 252.77C365.11 252.77 364.34 252.68 363.6 252.46C360.22 251.47 357.79 248.22 357.79 244.71C357.79 240.25 361.41 236.63 365.87 236.63C372.91 236.63 376.59 245.43 371.58 250.43C370.09 251.92 367.98 252.75 365.87 252.77H365.88Z" fill="#BF88FF"/>
<path d="M298.18 245.28C298.2 246.26 297.95 247.27 297.34 248.25C295.13 251.79 289.64 251.56 287.64 247.91C286.24 245.35 287.16 242.01 289.64 240.49C293.54 238.1 298.07 241.37 298.17 245.27L298.18 245.28Z" fill="#FFBA0D"/>
<path d="M318.5 250.86L318.19 239.87C318.13 237.79 316.44 236.12 314.36 236.1L302.49 235.94L301.86 222.81C301.76 220.78 300.12 219.17 298.09 219.11L287.43 218.8C285.27 218.74 283.47 220.45 283.43 222.61L283.19 235.68L278.55 235.62L269.86 235.99C267.74 236.08 266.08 237.86 266.14 239.98L266.46 251.09C266.52 253.19 268.24 254.87 270.34 254.87H283.11L283.41 268C283.46 270.11 285.18 271.8 287.3 271.8H297.93C300.02 271.8 301.74 270.14 301.81 268.05L302.28 254.87H314.61C316.8 254.87 318.56 253.06 318.49 250.87L318.5 250.86Z" fill="#FFBA0D"/>
<path d="M287.94 228.69L292.32 223.64L297.44 228.69H287.94Z" fill="#FFBA0D"/>
<path d="M274.63 241.52L270.35 246.28L274.63 250.79V241.52Z" fill="#FFBA0D"/>
<path d="M308.67 241.52L309.09 250.79L314.08 245.23L308.67 241.52Z" fill="#FFBA0D"/>
<path d="M287.94 263.69L292.32 268.26L297.44 263.69H287.94Z" fill="#FFBA0D"/>
<path d="M326.31 245.52C326.46 251.41 324.94 257.53 321.26 263.43C307.97 284.76 274.86 283.39 262.82 261.39C254.37 245.96 259.95 225.85 274.88 216.69C298.36 202.28 325.72 221.97 326.31 245.52Z" stroke="#5200FF" stroke-width="0.8" stroke-linecap="round" stroke-linejoin="round"/>
<path d="M298.18 245.28C298.2 246.26 297.95 247.27 297.34 248.25C295.13 251.79 289.64 251.56 287.64 247.91C286.24 245.35 287.16 242.01 289.64 240.49C293.54 238.1 298.07 241.37 298.17 245.27L298.18 245.28Z" stroke="#5200FF" stroke-width="0.8" stroke-linecap="round" stroke-linejoin="round"/>
<path d="M318.5 250.86L318.19 239.87C318.13 237.79 316.44 236.12 314.36 236.1L302.49 235.94L301.86 222.81C301.76 220.78 300.12 219.17 298.09 219.11L287.43 218.8C285.27 218.74 283.47 220.45 283.43 222.61L283.19 235.68L278.55 235.62L269.86 235.99C267.74 236.08 266.08 237.86 266.14 239.98L266.46 251.09C266.52 253.19 268.24 254.87 270.34 254.87H283.11L283.41 268C283.46 270.11 285.18 271.8 287.3 271.8H297.93C300.02 271.8 301.74 270.14 301.81 268.05L302.28 254.87H314.61C316.8 254.87 318.56 253.06 318.49 250.87L318.5 250.86Z" stroke="#5200FF" stroke-width="0.8" stroke-linecap="round" stroke-linejoin="round"/>
<path d="M287.94 228.69L292.32 223.64L297.44 228.69H287.94Z" stroke="#5200FF" stroke-width="0.8" stroke-linecap="round" stroke-linejoin="round"/>
<path d="M274.63 241.52L270.35 246.28L274.63 250.79V241.52Z" stroke="#5200FF" stroke-width="0.8" stroke-linecap="round" stroke-linejoin="round"/>
<path d="M308.67 241.52L309.09 250.79L314.08 245.23L308.67 241.52Z" stroke="#5200FF" stroke-width="0.8" stroke-linecap="round" stroke-linejoin="round"/>
<path d="M287.94 263.69L292.32 268.26L297.44 263.69H287.94Z" stroke="#5200FF" stroke-width="0.8" stroke-linecap="round" stroke-linejoin="round"/>
<path d="M250.4 245.56C250.4 269.69 269.84 289.31 293.97 289.53L299.73 289.58C307.36 289.65 314.88 287.73 321.54 284.02L326.31 281.36L354.1 281.56L357.86 283.84C364.62 287.93 372.35 290.13 380.25 290.2H380.67C405.1 290.42 425.03 270.67 425.03 246.23V245.57C425.03 221.28 405.34 201.6 381.06 201.6H294.37C270.08 201.6 250.4 221.29 250.4 245.57V245.56Z" stroke="#5200FF" stroke-width="0.8" stroke-linecap="round" stroke-linejoin="round"/>
<path d="M392.18 226.6C392.19 227.97 391.85 229.37 391.1 230.69C385.75 239.94 371.19 231.21 377.08 222.11C381.43 215.38 392.11 218.7 392.18 226.6Z" stroke="#5200FF" stroke-width="0.8" stroke-linecap="round" stroke-linejoin="round"/>
<path d="M391.85 262.81C391.94 265.49 390.79 268.19 388.09 269.77C385.45 271.33 381.9 271.2 379.38 269.46C372.98 265.04 376.25 254.71 383.98 254.71C388.73 254.71 391.72 258.73 391.85 262.81Z" stroke="#5200FF" stroke-width="0.8" stroke-linecap="round" stroke-linejoin="round"/>
<path d="M402.08 252.69C398.52 252.74 394.96 250.73 394.06 246.35C393.37 242.98 395.06 239.26 398.06 237.57C403.42 234.55 410.27 238.59 410.27 244.7C410.27 249.82 406.18 252.63 402.08 252.69Z" stroke="#5200FF" stroke-width="0.8" stroke-linecap="round" stroke-linejoin="round"/>
<path d="M365.88 252.77C365.11 252.77 364.34 252.68 363.6 252.46C360.22 251.47 357.79 248.22 357.79 244.71C357.79 240.25 361.41 236.63 365.87 236.63C372.91 236.63 376.59 245.43 371.58 250.43C370.09 251.92 367.98 252.75 365.87 252.77H365.88Z" stroke="#5200FF" stroke-width="0.8" stroke-linecap="round" stroke-linejoin="round"/>
<path d="M408.12 268.44C404.23 272.88 399.09 276.3 392.83 278.01C377.35 282.25 360.83 273.88 353.74 259.77C346.1 244.56 351.55 225.66 366.06 216.69C380.71 207.63 401.14 211.28 410.83 225.73C419.78 239.07 418.05 257.09 408.12 268.44Z" stroke="#5200FF" stroke-width="0.8" stroke-linecap="round" stroke-linejoin="round"/>
<path d="M345.01 260.79H334.13C332.7 260.79 331.54 261.95 331.54 263.38V263.39C331.54 264.82 332.7 265.98 334.13 265.98H345.01C346.44 265.98 347.6 264.82 347.6 263.39V263.38C347.6 261.95 346.44 260.79 345.01 260.79Z" stroke="#5200FF" stroke-width="0.8" stroke-linecap="round" stroke-linejoin="round"/>
<path d="M98.32 228.27V290.4H144.52C144.52 290.4 142.55 284.14 129.22 276.61V240.06" fill="#FAFFB3"/>
<path d="M98.32 228.27V290.4H144.52C144.52 290.4 142.55 284.14 129.22 276.61V240.06" stroke="#5200FF" stroke-width="0.8" stroke-linecap="round" stroke-linejoin="round"/>
<path d="M71.32 228.27V290.4H117.52C117.52 290.4 115.55 284.14 102.22 276.61V240.06" fill="#FAFFB3"/>
<path d="M71.32 228.27V290.4H117.52C117.52 290.4 115.55 284.14 102.22 276.61V240.06" stroke="#5200FF" stroke-width="0.8" stroke-linecap="round" stroke-linejoin="round"/>
<path d="M57.5 266.16L63.31 263.64C66.07 262.44 69.22 262.54 71.9 263.92L79.92 268.03C90.95 273.68 104.05 273.57 115 267.75L126.32 261.72C129.29 260.14 132.86 260.14 135.83 261.74L142.54 265.35C152.35 270.64 164.24 263.53 164.24 252.39V184.68C164.24 148.27 134.73 118.76 98.32 118.76C61.91 118.76 32.4 148.27 32.4 184.68V249.69C32.4 262.62 45.64 271.31 57.5 266.17V266.16Z" fill="#D9E3FF"/>
<path d="M57.5 266.16L63.31 263.64C66.07 262.44 69.22 262.54 71.9 263.92L79.92 268.03C90.95 273.68 104.05 273.57 115 267.75L126.32 261.72C129.29 260.14 132.86 260.14 135.83 261.74L142.54 265.35C152.35 270.64 164.24 263.53 164.24 252.39V184.68C164.24 148.27 134.73 118.76 98.32 118.76C61.91 118.76 32.4 148.27 32.4 184.68V249.69C32.4 262.62 45.64 271.31 57.5 266.17V266.16Z" stroke="#5200FF" stroke-width="0.8" stroke-linecap="round" stroke-linejoin="round"/>
<path d="M139.53 198.77C148.891 198.77 156.48 191.181 156.48 181.82C156.48 172.459 148.891 164.87 139.53 164.87C130.169 164.87 122.58 172.459 122.58 181.82C122.58 191.181 130.169 198.77 139.53 198.77Z" fill="white"/>
<path d="M139.53 198.77C148.891 198.77 156.48 191.181 156.48 181.82C156.48 172.459 148.891 164.87 139.53 164.87C130.169 164.87 122.58 172.459 122.58 181.82C122.58 191.181 130.169 198.77 139.53 198.77Z" stroke="#5200FF" stroke-width="0.8" stroke-linecap="round" stroke-linejoin="round"/>
<path d="M139.53 193.8C146.146 193.8 151.51 188.436 151.51 181.82C151.51 175.204 146.146 169.84 139.53 169.84C132.914 169.84 127.55 175.204 127.55 181.82C127.55 188.436 132.914 193.8 139.53 193.8Z" fill="#5200FF"/>
<path d="M95.51 198.77C104.871 198.77 112.46 191.181 112.46 181.82C112.46 172.459 104.871 164.87 95.51 164.87C86.1488 164.87 78.56 172.459 78.56 181.82C78.56 191.181 86.1488 198.77 95.51 198.77Z" fill="white"/>
<path d="M95.51 198.77C104.871 198.77 112.46 191.181 112.46 181.82C112.46 172.459 104.871 164.87 95.51 164.87C86.1488 164.87 78.56 172.459 78.56 181.82C78.56 191.181 86.1488 198.77 95.51 198.77Z" stroke="#5200FF" stroke-width="0.8" stroke-linecap="round" stroke-linejoin="round"/>
<path d="M95.51 193.8C102.126 193.8 107.49 188.436 107.49 181.82C107.49 175.204 102.126 169.84 95.51 169.84C88.8936 169.84 83.53 175.204 83.53 181.82C83.53 188.436 88.8936 193.8 95.51 193.8Z" fill="#5200FF"/>
<path d="M89.0481 247.166L95.019 245.735L88.4104 218.166L82.4396 219.597L89.0481 247.166Z" fill="#E8E6D9"/>
<path d="M89.0481 247.166L95.019 245.735L88.4104 218.166L82.4396 219.597L89.0481 247.166Z" stroke="#5200FF" stroke-width="0.8" stroke-linecap="round" stroke-linejoin="round"/>
<path d="M73 221.46C75.59 232.05 90.17 234.56 96.06 225.31C98.72 221.14 98.61 215.38 95.82 211.31C88.56 200.73 71.41 207.08 72.72 219.8C72.78 220.37 72.88 220.92 73.01 221.46H73Z" fill="#FFBFDD"/>
<path d="M73 221.46C75.59 232.05 90.17 234.56 96.06 225.31C98.72 221.14 98.61 215.38 95.82 211.31C88.56 200.73 71.41 207.08 72.72 219.8C72.78 220.37 72.88 220.92 73.01 221.46H73Z" stroke="#5200FF" stroke-width="0.8" stroke-linecap="round" stroke-linejoin="round"/>
<path d="M70.23 262.53H116.52C118.38 262.53 119.9 261.06 119.96 259.2L120.59 243.12C120.66 241.17 119.1 239.56 117.15 239.56H70.23C68.33 239.56 66.79 241.1 66.79 243V259.08C66.79 260.98 68.33 262.52 70.23 262.52V262.53Z" fill="#E8E6D9"/>
<path d="M70.23 262.53H116.52C118.38 262.53 119.9 261.06 119.96 259.2L120.59 243.12C120.66 241.17 119.1 239.56 117.15 239.56H70.23C68.33 239.56 66.79 241.1 66.79 243V259.08C66.79 260.98 68.33 262.52 70.23 262.52V262.53Z" stroke="#5200FF" stroke-width="0.8" stroke-linecap="round" stroke-linejoin="round"/>
<path d="M124.73 274.4C133.937 274.4 141.4 266.937 141.4 257.73C141.4 248.523 133.937 241.06 124.73 241.06C115.523 241.06 108.06 248.523 108.06 257.73C108.06 266.937 115.523 274.4 124.73 274.4Z" fill="#D9E3FF"/>
<path d="M124.73 274.4C133.937 274.4 141.4 266.937 141.4 257.73C141.4 248.523 133.937 241.06 124.73 241.06C115.523 241.06 108.06 248.523 108.06 257.73C108.06 266.937 115.523 274.4 124.73 274.4Z" stroke="#5200FF" stroke-width="0.8" stroke-linecap="round" stroke-linejoin="round"/>
<path d="M66.79 276.77C75.9966 276.77 83.46 269.307 83.46 260.1C83.46 250.893 75.9966 243.43 66.79 243.43C57.5834 243.43 50.12 250.893 50.12 260.1C50.12 269.307 57.5834 276.77 66.79 276.77Z" fill="#D9E3FF"/>
<path d="M66.79 276.77C75.9966 276.77 83.46 269.307 83.46 260.1C83.46 250.893 75.9966 243.43 66.79 243.43C57.5834 243.43 50.12 250.893 50.12 260.1C50.12 269.307 57.5834 276.77 66.79 276.77Z" stroke="#5200FF" stroke-width="0.8" stroke-linecap="round" stroke-linejoin="round"/>
<g clip-path="url(#clip0_2001_2004)">
<path d="M5 90H0V95H5V90Z" fill="#5200FF"/>
<path d="M15 90H10V95H15V90Z" fill="#5200FF"/>
<path d="M10 95H5V100H10V95Z" fill="#5200FF"/>
<path d="M5 100H0V105H5V100Z" fill="#5200FF"/>
<path d="M15 100H10V105H15V100Z" fill="#5200FF"/>
</g>
<g clip-path="url(#clip1_2001_2004)">
<path d="M471 113H466V118H471V113Z" fill="#5200FF"/>
<path d="M481 113H476V118H481V113Z" fill="#5200FF"/>
<path d="M476 118H471V123H476V118Z" fill="#5200FF"/>
<path d="M471 123H466V128H471V123Z" fill="#5200FF"/>
<path d="M481 123H476V128H481V123Z" fill="#5200FF"/>
</g>
<g clip-path="url(#clip2_2001_2004)">
<path d="M51.06 82.61C45.21 89.99 49.81 94.59 57.21 88.75C60.1 86.47 62.03 86.47 64.92 88.75C72.31 94.59 76.92 89.99 71.07 82.61C68.78 79.73 68.78 77.08 71.07 74.19C76.92 66.81 73.03 62.21 65.64 68.05C62.75 70.33 60.1 70.33 57.21 68.05C49.81 62.21 45.21 66.81 51.06 74.19C53.35 77.07 53.35 79.72 51.06 82.61Z" stroke="#5200FF" stroke-width="0.8" stroke-linecap="round" stroke-linejoin="round"/>
</g>
<defs>
<clipPath id="clip0_2001_2004">
<rect width="15" height="15" fill="white" transform="translate(0 90)"/>
</clipPath>
<clipPath id="clip1_2001_2004">
<rect width="15" height="15" fill="white" transform="translate(466 113)"/>
</clipPath>
<clipPath id="clip2_2001_2004">
<rect width="26.3" height="26.8" fill="white" transform="translate(48 65)"/>
</clipPath>
</defs>
</svg>
