<svg width="24" height="24" viewBox="0 0 24 24" fill="none" xmlns="http://www.w3.org/2000/svg">
<g clip-path="url(#clip0_2001_2209)">
<path d="M9.32799 10.068C8.99464 10.0969 8.68425 10.2497 8.45811 10.4964C8.23196 10.743 8.10651 11.0654 8.10651 11.4C8.10651 11.7346 8.23196 12.057 8.45811 12.3036C8.68425 12.5502 8.99464 12.7031 9.32799 12.732C9.49586 12.725 9.66072 12.6851 9.81314 12.6143C9.96555 12.5436 10.1025 12.4435 10.2162 12.3198C10.3299 12.1961 10.4181 12.0512 10.4757 11.8933C10.5333 11.7355 10.5592 11.5679 10.552 11.4C10.5602 11.2319 10.5349 11.0639 10.4776 10.9056C10.4204 10.7474 10.3322 10.6021 10.2184 10.4782C10.1045 10.3543 9.96716 10.2542 9.81431 10.1838C9.66147 10.1134 9.49616 10.074 9.32799 10.068ZM13.708 10.068C13.4397 10.0452 13.1708 10.104 12.9364 10.2366C12.7021 10.3693 12.5133 10.5696 12.3947 10.8113C12.2761 11.053 12.2332 11.3249 12.2717 11.5914C12.3102 11.8579 12.4283 12.1066 12.6105 12.3049C12.7927 12.5031 13.0305 12.6418 13.2928 12.7026C13.5551 12.7635 13.8297 12.7437 14.0805 12.6459C14.3314 12.5481 14.5469 12.3769 14.6988 12.1546C14.8508 11.9323 14.932 11.6692 14.932 11.4C14.9392 11.2321 14.9133 11.0645 14.8557 10.9066C14.7981 10.7488 14.7099 10.6039 14.5962 10.4802C14.4825 10.3564 14.3455 10.2564 14.1931 10.1856C14.0407 10.1149 13.8759 10.0749 13.708 10.068Z" fill="white"/>
<path d="M19.54 0H3.46001C3.13617 0.000786973 2.81565 0.0653515 2.51677 0.190007C2.21788 0.314663 1.94647 0.496969 1.71804 0.726515C1.4896 0.956062 1.30862 1.22835 1.18542 1.52784C1.06222 1.82734 0.999218 2.14816 1.00001 2.472V18.7C0.999218 19.0238 1.06222 19.3447 1.18542 19.6442C1.30862 19.9436 1.4896 20.2159 1.71804 20.4455C1.94647 20.675 2.21788 20.8573 2.51677 20.982C2.81565 21.1066 3.13617 21.1712 3.46001 21.172H17.068L16.432 18.952L17.968 20.38L19.42 21.72L22 24V2.472C22.0008 2.14816 21.9378 1.82734 21.8146 1.52784C21.6914 1.22835 21.5104 0.956062 21.282 0.726515C21.0535 0.496969 20.7821 0.314663 20.4832 0.190007C20.1844 0.0653515 19.8638 0.000786973 19.54 0ZM14.908 15.672C14.908 15.672 14.476 15.156 14.116 14.7C14.9858 14.4952 15.7552 13.9893 16.288 13.272C15.8562 13.5594 15.3933 13.7969 14.908 13.98C14.3498 14.2183 13.7659 14.3914 13.168 14.496C12.1403 14.6852 11.0863 14.6812 10.06 14.484C9.45887 14.3659 8.86976 14.1932 8.30001 13.968C7.81882 13.7842 7.35992 13.5467 6.93201 13.26C7.44554 13.9624 8.18835 14.4632 9.03201 14.676C8.67201 15.132 8.23201 15.676 8.23201 15.676C7.51919 15.6952 6.81258 15.5388 6.17437 15.2208C5.53616 14.9027 4.9859 14.4327 4.57201 13.852C4.61037 11.4179 5.20124 9.02433 6.30001 6.852C7.26643 6.09298 8.44466 5.65272 9.67201 5.592L9.79201 5.736C8.63452 6.02081 7.55416 6.55757 6.62801 7.308C6.62801 7.308 6.89201 7.164 7.33601 6.96C8.19835 6.56489 9.11767 6.3084 10.06 6.2C10.1259 6.18632 10.1928 6.17829 10.26 6.176C11.0641 6.07122 11.8779 6.06317 12.684 6.152C13.9533 6.2975 15.1817 6.69023 16.3 7.308C15.4231 6.5942 14.4047 6.07475 13.312 5.784L13.48 5.592C14.7074 5.65272 15.8856 6.09298 16.852 6.852C17.9508 9.02433 18.5416 11.4179 18.58 13.852C18.1624 14.4314 17.6096 14.9001 16.9697 15.2173C16.3297 15.5344 15.622 15.6905 14.908 15.672Z" fill="white"/>
</g>
<defs>
<clipPath id="clip0_2001_2209">
<rect width="24" height="24" fill="white"/>
</clipPath>
</defs>
</svg>
