<svg width="32" height="30" viewBox="0 0 32 30" fill="none" xmlns="http://www.w3.org/2000/svg">
<path d="M10.1557 28.5882C10.1557 28.3933 10.3139 28.2353 10.509 28.2353H11.5691C11.7643 28.2353 11.9225 28.3933 11.9225 28.5882V29.6471C11.9225 29.842 11.7643 30 11.5691 30H10.509C10.3139 30 10.1557 29.842 10.1557 29.6471V28.5882Z" fill="white"/>
<path d="M11.9225 25.0588C11.9225 24.8639 12.0807 24.7059 12.2759 24.7059H13.336C13.5312 24.7059 13.6894 24.8639 13.6894 25.0588V26.1176C13.6894 26.3126 13.5312 26.4706 13.336 26.4706H12.2759C12.0807 26.4706 11.9225 26.3126 11.9225 26.1176V25.0588Z" fill="white"/>
<path d="M13.7722 26.0792C13.7556 26.2547 13.9055 26.4044 14.0812 26.3878C14.2398 26.3729 14.4247 26.3593 14.5728 26.3593C14.7209 26.3593 14.9058 26.3729 15.0643 26.3878C15.2401 26.4044 15.3899 26.2547 15.3733 26.0792C15.3584 25.9207 15.3447 25.7358 15.3447 25.5883C15.3447 25.4407 15.3584 25.2557 15.3734 25.0972C15.3899 24.9217 15.2401 24.7721 15.0644 24.7886C14.9057 24.8036 14.7206 24.8172 14.5728 24.8172C14.425 24.8172 14.2399 24.8036 14.0811 24.7886C13.9055 24.7721 13.7556 24.9217 13.7722 25.0972C13.7872 25.2557 13.8009 25.4407 13.8009 25.5883C13.8009 25.7358 13.7872 25.9207 13.7722 26.0792Z" fill="white"/>
<path d="M8.38882 28.5882C8.38882 28.3933 8.54703 28.2353 8.74219 28.2353H9.8023C9.99746 28.2353 10.1557 28.3933 10.1557 28.5882V29.6471C10.1557 29.842 9.99746 30 9.8023 30H8.74219C8.54703 30 8.38882 29.842 8.38882 29.6471V28.5882Z" fill="white"/>
<path d="M6.81908 29.3277C6.56947 29.6428 6.97967 30.0525 7.29511 29.8032C7.41834 29.7058 7.59245 29.7058 7.71568 29.8032C8.03112 30.0525 8.44132 29.6428 8.19171 29.3277C8.09419 29.2046 8.09419 29.0307 8.19171 28.9077C8.44132 28.5926 8.03112 28.1829 7.71568 28.4322C7.59245 28.5296 7.41834 28.5296 7.29511 28.4322C6.97967 28.1829 6.56947 28.5926 6.81908 28.9077C6.9166 29.0307 6.9166 29.2046 6.81908 29.3277Z" fill="white"/>
<path d="M10.1557 23.2941C10.1557 23.0992 10.3139 22.9412 10.509 22.9412H11.5691C11.7643 22.9412 11.9225 23.0992 11.9225 23.2941V24.3529C11.9225 24.5479 11.7643 24.7059 11.5691 24.7059H10.509C10.3139 24.7059 10.1557 24.5479 10.1557 24.3529V23.2941Z" fill="white"/>
<path d="M8.58593 24.0336C8.33632 24.3487 8.74652 24.7584 9.06196 24.5091C9.18519 24.4117 9.35929 24.4117 9.48253 24.5091C9.79797 24.7584 10.2082 24.3487 9.95855 24.0336C9.86104 23.9105 9.86104 23.7366 9.95855 23.6135C10.2082 23.2985 9.79797 22.8888 9.48253 23.1381C9.35929 23.2355 9.18519 23.2355 9.06196 23.1381C8.74652 22.8888 8.33632 23.2985 8.58593 23.6135C8.68344 23.7366 8.68344 23.9105 8.58593 24.0336Z" fill="white"/>
<path d="M7.15865 23.9681C6.95764 24.2218 7.11585 24.3799 7.36987 24.1791C7.46911 24.1007 7.53555 24.1007 7.63479 24.1791C7.88881 24.3799 8.04702 24.2218 7.84601 23.9681C7.76749 23.869 7.76749 23.7781 7.84601 23.679C8.04702 23.4253 7.91339 23.2672 7.65937 23.468C7.56014 23.5464 7.46911 23.5464 7.36987 23.468C7.11585 23.2672 6.95764 23.4253 7.15865 23.679C7.23717 23.7781 7.23717 23.869 7.15865 23.9681Z" fill="white"/>
<path d="M7.271 22.1944C7.08254 22.4323 7.13866 22.4883 7.37683 22.3001C7.46987 22.2266 7.53216 22.2266 7.62521 22.3001C7.86337 22.4883 7.91949 22.4323 7.73104 22.1944C7.65741 22.1015 7.65741 22.0162 7.73104 21.9233C7.91949 21.6854 7.88642 21.6294 7.64826 21.8176C7.55521 21.8911 7.46987 21.8911 7.37683 21.8176C7.13866 21.6294 7.08254 21.6854 7.271 21.9233C7.34462 22.0162 7.34462 22.1015 7.271 22.1944Z" fill="white"/>
<path d="M7.3465 20.4159C7.20182 20.5985 7.20952 20.6062 7.39235 20.4617C7.46377 20.4052 7.56468 20.4052 7.63611 20.4617C7.81894 20.6062 7.82663 20.5985 7.68196 20.4159C7.62544 20.3445 7.62544 20.2437 7.68196 20.1724C7.82663 19.9898 7.81894 19.9821 7.63611 20.1266C7.56468 20.1831 7.44608 20.1831 7.37465 20.1266C7.19182 19.9821 7.18413 19.9898 7.3288 20.1724C7.38532 20.2437 7.40302 20.3445 7.3465 20.4159Z" fill="white"/>
<path d="M7.41362 18.589C7.28815 18.7474 7.29482 18.754 7.45339 18.6287C7.51534 18.5798 7.51077 18.5798 7.57272 18.6287C7.73129 18.754 7.73796 18.7474 7.61248 18.589C7.56346 18.5271 7.56346 18.5317 7.61248 18.4698C7.73796 18.3114 7.73129 18.3048 7.57272 18.4301C7.51077 18.4791 7.49999 18.4791 7.43804 18.4301C7.27947 18.3048 7.2728 18.3114 7.39828 18.4698C7.4473 18.5317 7.46264 18.5271 7.41362 18.589Z" fill="white"/>
<path d="M11.9225 18C11.9225 17.8051 12.0807 17.6471 12.2759 17.6471H13.336C13.5312 17.6471 13.6894 17.8051 13.6894 18V19.0588C13.6894 19.2537 13.5312 19.4118 13.336 19.4118H12.2759C12.0807 19.4118 11.9225 19.2537 11.9225 19.0588V18Z" fill="white"/>
<path d="M10.2385 19.0204C10.2219 19.1959 10.3718 19.3456 10.5475 19.329C10.7061 19.3141 10.891 19.3005 11.0391 19.3005C11.1872 19.3005 11.3721 19.3141 11.5307 19.329C11.7064 19.3456 11.8562 19.1959 11.8397 19.0204C11.8247 18.8619 11.811 18.677 11.811 18.5294C11.811 18.3818 11.8247 18.1969 11.8397 18.0384C11.8563 17.8629 11.7064 17.7132 11.5307 17.7298C11.372 17.7448 11.1869 17.7584 11.0391 17.7584C10.8913 17.7584 10.7062 17.7448 10.5474 17.7298C10.3718 17.7132 10.2219 17.8629 10.2385 18.0384C10.2535 18.1969 10.2672 18.3818 10.2672 18.5294C10.2672 18.677 10.2535 18.8619 10.2385 19.0204Z" fill="white"/>
<path d="M13.6894 12.7059C13.6894 12.511 13.8476 12.3529 14.0427 12.3529H15.1028C15.298 12.3529 15.4562 12.511 15.4562 12.7059V13.7647C15.4562 13.9596 15.298 14.1176 15.1028 14.1176H14.0427C13.8476 14.1176 13.6894 13.9596 13.6894 13.7647V12.7059Z" fill="white"/>
<path d="M12.0054 13.7263C11.9888 13.9018 12.1387 14.0515 12.3144 14.0349C12.4729 14.0199 12.6579 14.0063 12.8059 14.0063C12.954 14.0063 13.139 14.0199 13.2975 14.0349C13.4732 14.0515 13.6231 13.9018 13.6065 13.7263C13.5915 13.5678 13.5779 13.3829 13.5779 13.2353C13.5779 13.0877 13.5915 12.9028 13.6065 12.7442C13.6231 12.5688 13.4733 12.4191 13.2976 12.4357C13.1388 12.4507 12.9537 12.4643 12.8059 12.4643C12.6582 12.4643 12.473 12.4507 12.3143 12.4357C12.1386 12.4191 11.9888 12.5688 12.0054 12.7442C12.0204 12.9028 12.034 13.0877 12.034 13.2353C12.034 13.3829 12.0204 13.5678 12.0054 13.7263Z" fill="white"/>
<path d="M10.5815 13.3893C10.3674 13.6594 10.6145 13.9061 10.8849 13.6924C10.9906 13.6088 11.0614 13.6088 11.167 13.6924C11.4375 13.9061 11.6845 13.6594 11.4705 13.3893C11.3869 13.2837 11.4131 13.1869 11.4967 13.0814C11.7107 12.8112 11.4637 12.5645 11.1932 12.7783C11.0875 12.8618 10.9906 12.8618 10.8849 12.7783C10.6145 12.5645 10.3674 12.8112 10.5815 13.0814C10.6651 13.1869 10.6651 13.2837 10.5815 13.3893Z" fill="white"/>
<path d="M8.38882 26.8235C8.38882 26.6286 8.54703 26.4706 8.74219 26.4706H9.8023C9.99746 26.4706 10.1557 26.6286 10.1557 26.8235V27.8824C10.1557 28.0773 9.99746 28.2353 9.8023 28.2353H8.74219C8.54703 28.2353 8.38882 28.0773 8.38882 27.8824V26.8235Z" fill="white"/>
<path d="M6.9342 27.6005C6.70617 27.8884 6.96933 28.1512 7.2575 27.9234C7.37008 27.8345 7.61281 27.8345 7.72539 27.9234C8.01356 28.1512 8.27672 27.8884 8.04869 27.6005C7.95961 27.4881 7.9875 27.2178 8.07659 27.1054C8.30462 26.8175 8.04146 26.5547 7.75328 26.7824C7.64071 26.8714 7.37008 26.8714 7.2575 26.7824C6.96933 26.5547 6.70617 26.8175 6.9342 27.1054C7.02328 27.2178 7.02328 27.4881 6.9342 27.6005Z" fill="white"/>
<path d="M10.1557 21.5294C10.1557 21.3345 10.3139 21.1765 10.509 21.1765H11.5691C11.7643 21.1765 11.9225 21.3345 11.9225 21.5294V22.5882C11.9225 22.7832 11.7643 22.9412 11.5691 22.9412H10.509C10.3139 22.9412 10.1557 22.7832 10.1557 22.5882V21.5294Z" fill="white"/>
<path d="M8.70105 22.3064C8.47302 22.5942 8.73618 22.8571 9.02435 22.6293C9.13693 22.5403 9.37966 22.5403 9.49224 22.6293C9.78041 22.8571 10.0436 22.5942 9.81554 22.3064C9.72646 22.194 9.75435 21.9237 9.84344 21.8112C10.0715 21.5234 9.8083 21.2606 9.52013 21.4883C9.40755 21.5773 9.13693 21.5773 9.02435 21.4883C8.73618 21.2606 8.47302 21.5234 8.70105 21.8112C8.79013 21.9237 8.79013 22.194 8.70105 22.3064Z" fill="white"/>
<path d="M11.9225 16.2353C11.9225 16.0404 12.0807 15.8824 12.2759 15.8824H13.336C13.5312 15.8824 13.6894 16.0404 13.6894 16.2353V17.2941C13.6894 17.489 13.5312 17.6471 13.336 17.6471H12.2759C12.0807 17.6471 11.9225 17.489 11.9225 17.2941V16.2353Z" fill="white"/>
<path d="M10.3528 16.9748C10.1032 17.2898 10.5134 17.6995 10.8288 17.4502C10.952 17.3528 11.1261 17.3528 11.2494 17.4502C11.5648 17.6995 11.975 17.2898 11.7254 16.9748C11.6279 16.8517 11.6279 16.6778 11.7254 16.5547C11.975 16.2397 11.5648 15.83 11.2494 16.0793C11.1261 16.1767 10.952 16.1767 10.8288 16.0793C10.5134 15.83 10.1032 16.2397 10.3528 16.5547C10.4503 16.6778 10.4503 16.8517 10.3528 16.9748Z" fill="white"/>
<path d="M13.6894 10.9412C13.6894 10.7463 13.8476 10.5882 14.0427 10.5882H15.1028C15.298 10.5882 15.4562 10.7463 15.4562 10.9412V12C15.4562 12.1949 15.298 12.3529 15.1028 12.3529H14.0427C13.8476 12.3529 13.6894 12.1949 13.6894 12V10.9412Z" fill="white"/>
<path d="M12.1196 11.6807C11.87 11.9957 12.2802 12.4054 12.5957 12.1561C12.7189 12.0587 12.893 12.0587 13.0162 12.1561C13.3317 12.4054 13.7419 11.9957 13.4922 11.6807C13.3947 11.5576 13.3947 11.3837 13.4922 11.2606C13.7419 10.9455 13.3317 10.5358 13.0162 10.7852C12.893 10.8825 12.7189 10.8825 12.5957 10.7852C12.2802 10.5358 11.87 10.9455 12.1196 11.2606C12.2171 11.3837 12.2171 11.5576 12.1196 11.6807Z" fill="white"/>
<path d="M10.5815 11.6245C10.3674 11.8947 10.6145 12.1414 10.8849 11.9276C10.9906 11.8441 11.0614 11.8441 11.167 11.9276C11.4375 12.1414 11.6845 11.8947 11.4705 11.6245C11.3869 11.519 11.4131 11.4222 11.4967 11.3166C11.7107 11.0465 11.4637 10.7998 11.1932 11.0135C11.0875 11.0971 10.9906 11.0971 10.8849 11.0135C10.6145 10.7998 10.3674 11.0465 10.5815 11.3166C10.6651 11.4222 10.6651 11.519 10.5815 11.6245Z" fill="white"/>
<path d="M8.47168 26.0792C8.45509 26.2547 8.60497 26.4044 8.78068 26.3878C8.93922 26.3729 9.12416 26.3593 9.27224 26.3593C9.42033 26.3593 9.60527 26.3729 9.76381 26.3878C9.93951 26.4044 10.0894 26.2547 10.0728 26.0792C10.0578 25.9207 10.0442 25.7358 10.0442 25.5883C10.0442 25.4407 10.0578 25.2557 10.0728 25.0972C10.0894 24.9217 9.93957 24.7721 9.7639 24.7886C9.60515 24.8036 9.42001 24.8172 9.27224 24.8172C9.12447 24.8172 8.93933 24.8036 8.78059 24.7886C8.60491 24.7721 8.45508 24.9217 8.47167 25.0972C8.48666 25.2557 8.50031 25.4407 8.50031 25.5883C8.50031 25.7358 8.48666 25.9207 8.47168 26.0792Z" fill="white"/>
<path d="M7.04778 25.7422C6.83374 26.0124 7.08076 26.2591 7.35125 26.0453C7.45692 25.9618 7.52767 25.9618 7.63334 26.0453C7.90383 26.2591 8.15085 26.0124 7.93681 25.7422C7.85319 25.6367 7.87937 25.5398 7.96299 25.4343C8.17703 25.1641 7.93001 24.9174 7.65952 25.1312C7.55385 25.2147 7.45692 25.2147 7.35125 25.1312C7.08076 24.9174 6.83374 25.1641 7.04778 25.4343C7.1314 25.5398 7.1314 25.6367 7.04778 25.7422Z" fill="white"/>
<path d="M10.1557 19.7647C10.1557 19.5698 10.3139 19.4118 10.509 19.4118H11.5691C11.7643 19.4118 11.9225 19.5698 11.9225 19.7647V20.8235C11.9225 21.0185 11.7643 21.1765 11.5691 21.1765H10.509C10.3139 21.1765 10.1557 21.0185 10.1557 20.8235V19.7647Z" fill="white"/>
<path d="M8.70105 20.5417C8.47302 20.8295 8.73618 21.0924 9.02435 20.8646C9.13693 20.7756 9.37966 20.7756 9.49224 20.8646C9.78041 21.0924 10.0436 20.8295 9.81554 20.5417C9.72646 20.4293 9.75435 20.159 9.84344 20.0465C10.0715 19.7587 9.8083 19.4959 9.52013 19.7236C9.40755 19.8126 9.13693 19.8126 9.02435 19.7236C8.73618 19.4959 8.47302 19.7587 8.70105 20.0465C8.79013 20.159 8.79013 20.4293 8.70105 20.5417Z" fill="white"/>
<path d="M8.81463 18.6834C8.60059 18.9535 8.84761 19.2003 9.1181 18.9865C9.22377 18.903 9.29452 18.903 9.40019 18.9865C9.67068 19.2002 9.9177 18.9535 9.70366 18.6834C9.62004 18.5778 9.64622 18.481 9.72984 18.3755C9.94388 18.1053 9.69686 17.8586 9.42637 18.0724C9.3207 18.1559 9.22377 18.1559 9.1181 18.0724C8.84761 17.8586 8.60059 18.1053 8.81463 18.3755C8.89825 18.481 8.89825 18.5778 8.81463 18.6834Z" fill="white"/>
<path d="M8.81463 16.9187C8.60059 17.1888 8.84761 17.4355 9.1181 17.2218C9.22377 17.1382 9.29452 17.1382 9.40019 17.2218C9.67068 17.4355 9.9177 17.1888 9.70366 16.9187C9.62004 16.8131 9.64622 16.7163 9.72984 16.6108C9.94388 16.3406 9.69686 16.0939 9.42637 16.3077C9.3207 16.3912 9.22377 16.3912 9.1181 16.3077C8.84761 16.0939 8.60059 16.3406 8.81463 16.6108C8.89825 16.7163 8.89825 16.8131 8.81463 16.9187Z" fill="white"/>
<path d="M8.81463 15.154C8.60059 15.4241 8.84761 15.6708 9.1181 15.4571C9.22377 15.3735 9.29452 15.3735 9.40019 15.4571C9.67068 15.6708 9.9177 15.4241 9.70366 15.154C9.62004 15.0484 9.64622 14.9516 9.72984 14.8461C9.94388 14.5759 9.69686 14.3292 9.42637 14.543C9.3207 14.6265 9.22377 14.6265 9.1181 14.543C8.84761 14.3292 8.60059 14.5759 8.81463 14.8461C8.89825 14.9516 8.89825 15.0484 8.81463 15.154Z" fill="white"/>
<path d="M8.92549 13.3799C8.72449 13.6336 8.8827 13.7916 9.13672 13.5909C9.23596 13.5124 9.3024 13.5124 9.40163 13.5909C9.65565 13.7916 9.81387 13.6336 9.61286 13.3799C9.53433 13.2808 9.53433 13.1899 9.61286 13.0907C9.81387 12.837 9.68024 12.679 9.42622 12.8798C9.32698 12.9582 9.23596 12.9582 9.13672 12.8798C8.8827 12.679 8.72449 12.837 8.92549 13.0907C9.00402 13.1899 9.00402 13.2808 8.92549 13.3799Z" fill="white"/>
<path d="M9.03784 11.6062C8.84939 11.844 8.90551 11.9001 9.14367 11.7119C9.23672 11.6383 9.29901 11.6383 9.39205 11.7119C9.63021 11.9001 9.68634 11.844 9.49788 11.6062C9.42426 11.5132 9.42426 11.428 9.49788 11.3351C9.68634 11.0972 9.65327 11.0411 9.4151 11.2294C9.32206 11.3029 9.23672 11.3029 9.14367 11.2294C8.90551 11.0411 8.84939 11.0972 9.03784 11.3351C9.11147 11.428 9.11147 11.5132 9.03784 11.6062Z" fill="white"/>
<path d="M9.11335 9.82763C8.96867 10.0102 8.97636 10.0179 9.15919 9.87342C9.23062 9.81697 9.33153 9.81697 9.40296 9.87342C9.58579 10.0179 9.59348 10.0102 9.44881 9.82763C9.39229 9.75629 9.39229 9.6555 9.44881 9.58416C9.59348 9.40155 9.58579 9.39387 9.40296 9.53837C9.33153 9.59482 9.21292 9.59482 9.1415 9.53837C8.95867 9.39387 8.95097 9.40155 9.09565 9.58416C9.15217 9.6555 9.16986 9.75629 9.11335 9.82763Z" fill="white"/>
<path d="M11.9225 14.4706C11.9225 14.2757 12.0807 14.1176 12.2759 14.1176H13.336C13.5312 14.1176 13.6894 14.2757 13.6894 14.4706V15.5294C13.6894 15.7243 13.5312 15.8824 13.336 15.8824H12.2759C12.0807 15.8824 11.9225 15.7243 11.9225 15.5294V14.4706Z" fill="white"/>
<path d="M10.4679 15.2476C10.2399 15.5354 10.503 15.7983 10.7912 15.5705C10.9038 15.4815 11.1465 15.4815 11.2591 15.5705C11.5473 15.7983 11.8104 15.5354 11.5824 15.2476C11.4933 15.1351 11.5212 14.8649 11.6103 14.7524C11.8383 14.4646 11.5752 14.2017 11.287 14.4295C11.1744 14.5185 10.9038 14.5185 10.7912 14.4295C10.503 14.2017 10.2399 14.4646 10.4679 14.7524C10.557 14.8649 10.557 15.1351 10.4679 15.2476Z" fill="white"/>
<path d="M13.6894 9.17647C13.6894 8.98155 13.8476 8.82353 14.0427 8.82353H15.1028C15.298 8.82353 15.4562 8.98155 15.4562 9.17647V10.2353C15.4562 10.4302 15.298 10.5882 15.1028 10.5882H14.0427C13.8476 10.5882 13.6894 10.4302 13.6894 10.2353V9.17647Z" fill="white"/>
<path d="M12.1196 9.91595C11.87 10.231 12.2802 10.6407 12.5957 10.3914C12.7189 10.294 12.893 10.294 13.0162 10.3914C13.3317 10.6407 13.7419 10.231 13.4922 9.91595C13.3947 9.79287 13.3947 9.61898 13.4922 9.4959C13.7419 9.18084 13.3317 8.77114 13.0162 9.02044C12.893 9.11784 12.7189 9.11784 12.5957 9.02044C12.2802 8.77114 11.87 9.18084 12.1196 9.4959C12.2171 9.61898 12.2171 9.79287 12.1196 9.91595Z" fill="white"/>
<path d="M10.5815 9.85984C10.3674 10.13 10.6145 10.3767 10.8849 10.1629C10.9906 10.0794 11.0614 10.0794 11.167 10.1629C11.4375 10.3767 11.6845 10.13 11.4705 9.85984C11.3869 9.7543 11.4131 9.65748 11.4967 9.55194C11.7107 9.28178 11.4637 9.03506 11.1932 9.24884C11.0875 9.33236 10.9906 9.33236 10.8849 9.24884C10.6145 9.03506 10.3674 9.28178 10.5815 9.55194C10.6651 9.65748 10.6651 9.7543 10.5815 9.85984Z" fill="white"/>
<path d="M5.64678 29.1772C5.5213 29.3356 5.52797 29.3423 5.68654 29.2169C5.74849 29.168 5.74392 29.168 5.80587 29.2169C5.96444 29.3423 5.97111 29.3356 5.84563 29.1772C5.79662 29.1154 5.79662 29.1199 5.84563 29.0581C5.97111 28.8997 5.96444 28.893 5.80587 29.0183C5.74392 29.0673 5.73314 29.0673 5.67119 29.0183C5.51262 28.893 5.50595 28.8997 5.63143 29.0581C5.68045 29.1199 5.6958 29.1154 5.64678 29.1772Z" fill="white"/>
<path d="M5.57965 25.71C5.43498 25.8926 5.44267 25.9003 5.6255 25.7558C5.69693 25.6993 5.79784 25.6993 5.86926 25.7558C6.05209 25.9003 6.05979 25.8926 5.91511 25.71C5.85859 25.6386 5.85859 25.5379 5.91511 25.4665C6.05979 25.2839 6.05209 25.2762 5.86926 25.4207C5.79784 25.4772 5.67923 25.4772 5.6078 25.4207C5.42497 25.2762 5.41728 25.2839 5.56195 25.4665C5.61847 25.5379 5.63617 25.6386 5.57965 25.71Z" fill="white"/>
<path d="M17.6489 20.4481C17.4348 20.7182 17.6818 20.965 17.9523 20.7512C18.058 20.6677 18.1288 20.6677 18.2344 20.7512C18.5049 20.965 18.7519 20.7182 18.5379 20.4481C18.4543 20.3425 18.4805 20.2457 18.5641 20.1402C18.7781 19.87 18.5311 19.6233 18.2606 19.8371C18.1549 19.9206 18.058 19.9206 17.9523 19.8371C17.6818 19.6233 17.4348 19.87 17.6489 20.1402C17.7325 20.2457 17.7325 20.3425 17.6489 20.4481Z" fill="white"/>
<path d="M15.882 25.7422C15.668 26.0124 15.915 26.2591 16.1855 26.0453C16.2912 25.9618 16.3619 25.9618 16.4676 26.0453C16.7381 26.2591 16.9851 26.0124 16.771 25.7422C16.6874 25.6367 16.7136 25.5398 16.7972 25.4343C17.0113 25.1641 16.7642 24.9174 16.4938 25.1312C16.3881 25.2147 16.2912 25.2147 16.1855 25.1312C15.915 24.9174 15.668 25.1641 15.882 25.4343C15.9656 25.5398 15.9656 25.6367 15.882 25.7422Z" fill="white"/>
<path d="M15.9929 27.4975C15.7919 27.7513 15.9501 27.9093 16.2041 27.7085C16.3033 27.6301 16.3698 27.6301 16.469 27.7085C16.723 27.9093 16.8813 27.7513 16.6802 27.4975C16.6017 27.3984 16.6017 27.3075 16.6802 27.2084C16.8813 26.9547 16.7476 26.7967 16.4936 26.9974C16.3944 27.0759 16.3033 27.0759 16.2041 26.9974C15.9501 26.7967 15.7919 26.9547 15.9929 27.2084C16.0714 27.3075 16.0714 27.3984 15.9929 27.4975Z" fill="white"/>
<path d="M16.1052 29.2532C15.9168 29.4911 15.9729 29.5471 16.2111 29.3589C16.3041 29.2854 16.3664 29.2854 16.4594 29.3589C16.6976 29.5471 16.7537 29.4911 16.5653 29.2532C16.4916 29.1603 16.4916 29.075 16.5653 28.9821C16.7537 28.7442 16.7207 28.6882 16.4825 28.8764C16.3895 28.9499 16.3041 28.9499 16.2111 28.8764C15.9729 28.6882 15.9168 28.7442 16.1052 28.9821C16.1789 29.075 16.1789 29.1603 16.1052 29.2532Z" fill="white"/>
<path d="M5.50415 27.4885C5.31569 27.7264 5.37182 27.7824 5.60998 27.5942C5.70302 27.5207 5.76532 27.5207 5.85836 27.5942C6.09652 27.7824 6.15265 27.7264 5.96419 27.4885C5.89056 27.3956 5.89056 27.3103 5.96419 27.2174C6.15265 26.9795 6.11957 26.9235 5.88141 27.1117C5.78837 27.1852 5.70302 27.1852 5.60998 27.1117C5.37182 26.9235 5.31569 26.9795 5.50415 27.2174C5.57777 27.3103 5.57777 27.3956 5.50415 27.4885Z" fill="white"/>
<path d="M13.8865 27.563C13.6369 27.8781 14.0471 28.2878 14.3625 28.0385C14.4857 27.9411 14.6598 27.9411 14.7831 28.0385C15.0985 28.2878 15.5087 27.8781 15.2591 27.563C15.1616 27.4399 15.1616 27.266 15.2591 27.143C15.5087 26.8279 15.0985 26.4182 14.7831 26.6675C14.6598 26.7649 14.4857 26.7649 14.3625 26.6675C14.0471 26.4182 13.6369 26.8279 13.8865 27.143C13.984 27.266 13.984 27.4399 13.8865 27.563Z" fill="white"/>
<path d="M11.9225 21.5294C11.9225 21.3345 12.0807 21.1765 12.2759 21.1765H13.336C13.5312 21.1765 13.6894 21.3345 13.6894 21.5294V22.5882C13.6894 22.7832 13.5312 22.9412 13.336 22.9412H12.2759C12.0807 22.9412 11.9225 22.7832 11.9225 22.5882V21.5294Z" fill="white"/>
<path d="M13.6894 18C13.6894 17.8051 13.8476 17.6471 14.0427 17.6471H15.1028C15.298 17.6471 15.4562 17.8051 15.4562 18V19.0588C15.4562 19.2537 15.298 19.4118 15.1028 19.4118H14.0427C13.8476 19.4118 13.6894 19.2537 13.6894 19.0588V18Z" fill="white"/>
<path d="M13.6894 14.4706C13.6894 14.2757 13.8476 14.1176 14.0427 14.1176H15.1028C15.298 14.1176 15.4562 14.2757 15.4562 14.4706V15.5294C15.4562 15.7243 15.298 15.8824 15.1028 15.8824H14.0427C13.8476 15.8824 13.6894 15.7243 13.6894 15.5294V14.4706Z" fill="white"/>
<path d="M15.4562 9.17647C15.4562 8.98155 15.6144 8.82353 15.8096 8.82353H16.8697C17.0648 8.82353 17.2231 8.98155 17.2231 9.17647V10.2353C17.2231 10.4302 17.0648 10.5882 16.8697 10.5882H15.8096C15.6144 10.5882 15.4562 10.4302 15.4562 10.2353V9.17647Z" fill="white"/>
<path d="M17.2231 3.88235C17.2231 3.68743 17.3813 3.52941 17.5764 3.52941H18.6365C18.8317 3.52941 18.9899 3.68743 18.9899 3.88235V4.94118C18.9899 5.1361 18.8317 5.29412 18.6365 5.29412H17.5764C17.3813 5.29412 17.2231 5.1361 17.2231 4.94118V3.88235Z" fill="white"/>
<path d="M15.4562 3.88235C15.4562 3.68743 15.6144 3.52941 15.8096 3.52941H16.8697C17.0648 3.52941 17.2231 3.68743 17.2231 3.88235V4.94118C17.2231 5.1361 17.0648 5.29412 16.8697 5.29412H15.8096C15.6144 5.29412 15.4562 5.1361 15.4562 4.94118V3.88235Z" fill="white"/>
<path d="M13.6894 3.88235C13.6894 3.68743 13.8476 3.52941 14.0427 3.52941H15.1028C15.298 3.52941 15.4562 3.68743 15.4562 3.88235V4.94118C15.4562 5.1361 15.298 5.29412 15.1028 5.29412H14.0427C13.8476 5.29412 13.6894 5.1361 13.6894 4.94118V3.88235Z" fill="white"/>
<path d="M11.9225 3.88235C11.9225 3.68743 12.0807 3.52941 12.2759 3.52941H13.336C13.5312 3.52941 13.6894 3.68743 13.6894 3.88235V4.94118C13.6894 5.1361 13.5312 5.29412 13.336 5.29412H12.2759C12.0807 5.29412 11.9225 5.1361 11.9225 4.94118V3.88235Z" fill="white"/>
<path d="M18.9899 0.352941C18.9899 0.158017 19.1481 0 19.3433 0H20.4034C20.5985 0 20.7568 0.158017 20.7568 0.352941V1.41176C20.7568 1.60669 20.5985 1.76471 20.4034 1.76471H19.3433C19.1481 1.76471 18.9899 1.60669 18.9899 1.41176V0.352941Z" fill="white"/>
<path d="M17.2231 0.352941C17.2231 0.158017 17.3813 0 17.5764 0H18.6365C18.8317 0 18.9899 0.158017 18.9899 0.352941V1.41176C18.9899 1.60669 18.8317 1.76471 18.6365 1.76471H17.5764C17.3813 1.76471 17.2231 1.60669 17.2231 1.41176V0.352941Z" fill="white"/>
<path d="M15.4562 0.352941C15.4562 0.158017 15.6144 0 15.8096 0H16.8697C17.0648 0 17.2231 0.158017 17.2231 0.352941V1.41176C17.2231 1.60669 17.0648 1.76471 16.8697 1.76471H15.8096C15.6144 1.76471 15.4562 1.60669 15.4562 1.41176V0.352941Z" fill="white"/>
<path d="M10.1557 26.8235C10.1557 26.6286 10.3139 26.4706 10.509 26.4706H11.5691C11.7643 26.4706 11.9225 26.6286 11.9225 26.8235V27.8824C11.9225 28.0773 11.7643 28.2353 11.5691 28.2353H10.509C10.3139 28.2353 10.1557 28.0773 10.1557 27.8824V26.8235Z" fill="white"/>
<path d="M11.9225 23.2941C11.9225 23.0992 12.0807 22.9412 12.2759 22.9412H13.336C13.5312 22.9412 13.6894 23.0992 13.6894 23.2941V24.3529C13.6894 24.5479 13.5312 24.7059 13.336 24.7059H12.2759C12.0807 24.7059 11.9225 24.5479 11.9225 24.3529V23.2941Z" fill="white"/>
<path d="M11.9225 19.7647C11.9225 19.5698 12.0807 19.4118 12.2759 19.4118H13.336C13.5312 19.4118 13.6894 19.5698 13.6894 19.7647V20.8235C13.6894 21.0185 13.5312 21.1765 13.336 21.1765H12.2759C12.0807 21.1765 11.9225 21.0185 11.9225 20.8235V19.7647Z" fill="white"/>
<path d="M13.6894 16.2353C13.6894 16.0404 13.8476 15.8824 14.0427 15.8824H15.1028C15.298 15.8824 15.4562 16.0404 15.4562 16.2353V17.2941C15.4562 17.489 15.298 17.6471 15.1028 17.6471H14.0427C13.8476 17.6471 13.6894 17.489 13.6894 17.2941V16.2353Z" fill="white"/>
<path d="M15.4562 10.9412C15.4562 10.7463 15.6144 10.5882 15.8096 10.5882H16.8697C17.0648 10.5882 17.2231 10.7463 17.2231 10.9412V12C17.2231 12.1949 17.0648 12.3529 16.8697 12.3529H15.8096C15.6144 12.3529 15.4562 12.1949 15.4562 12V10.9412Z" fill="white"/>
<path d="M17.2231 5.64706C17.2231 5.45213 17.3813 5.29412 17.5764 5.29412H18.6365C18.8317 5.29412 18.9899 5.45213 18.9899 5.64706V6.70588C18.9899 6.90081 18.8317 7.05882 18.6365 7.05882H17.5764C17.3813 7.05882 17.2231 6.90081 17.2231 6.70588V5.64706Z" fill="white"/>
<path d="M15.4562 5.64706C15.4562 5.45213 15.6144 5.29412 15.8096 5.29412H16.8697C17.0648 5.29412 17.2231 5.45213 17.2231 5.64706V6.70588C17.2231 6.90081 17.0648 7.05882 16.8697 7.05882H15.8096C15.6144 7.05882 15.4562 6.90081 15.4562 6.70588V5.64706Z" fill="white"/>
<path d="M13.6894 5.64706C13.6894 5.45213 13.8476 5.29412 14.0427 5.29412H15.1028C15.298 5.29412 15.4562 5.45213 15.4562 5.64706V6.70588C15.4562 6.90081 15.298 7.05882 15.1028 7.05882H14.0427C13.8476 7.05882 13.6894 6.90081 13.6894 6.70588V5.64706Z" fill="white"/>
<path d="M11.9225 5.64706C11.9225 5.45213 12.0807 5.29412 12.2759 5.29412H13.336C13.5312 5.29412 13.6894 5.45213 13.6894 5.64706V6.70588C13.6894 6.90081 13.5312 7.05882 13.336 7.05882H12.2759C12.0807 7.05882 11.9225 6.90081 11.9225 6.70588V5.64706Z" fill="white"/>
<path d="M10.1557 5.64706C10.1557 5.45213 10.3139 5.29412 10.509 5.29412H11.5691C11.7643 5.29412 11.9225 5.45213 11.9225 5.64706V6.70588C11.9225 6.90081 11.7643 7.05882 11.5691 7.05882H10.509C10.3139 7.05882 10.1557 6.90081 10.1557 6.70588V5.64706Z" fill="white"/>
<path d="M18.9899 2.11765C18.9899 1.92272 19.1481 1.76471 19.3433 1.76471H20.4034C20.5985 1.76471 20.7568 1.92272 20.7568 2.11765V3.17647C20.7568 3.37139 20.5985 3.52941 20.4034 3.52941H19.3433C19.1481 3.52941 18.9899 3.37139 18.9899 3.17647V2.11765Z" fill="white"/>
<path d="M17.2231 2.11765C17.2231 1.92272 17.3813 1.76471 17.5764 1.76471H18.6365C18.8317 1.76471 18.9899 1.92272 18.9899 2.11765V3.17647C18.9899 3.37139 18.8317 3.52941 18.6365 3.52941H17.5764C17.3813 3.52941 17.2231 3.37139 17.2231 3.17647V2.11765Z" fill="white"/>
<path d="M15.4562 2.11765C15.4562 1.92272 15.6144 1.76471 15.8096 1.76471H16.8697C17.0648 1.76471 17.2231 1.92272 17.2231 2.11765V3.17647C17.2231 3.37139 17.0648 3.52941 16.8697 3.52941H15.8096C15.6144 3.52941 15.4562 3.37139 15.4562 3.17647V2.11765Z" fill="white"/>
<path d="M13.6894 2.11765C13.6894 1.92272 13.8476 1.76471 14.0427 1.76471H15.1028C15.298 1.76471 15.4562 1.92272 15.4562 2.11765V3.17647C15.4562 3.37139 15.298 3.52941 15.1028 3.52941H14.0427C13.8476 3.52941 13.6894 3.37139 13.6894 3.17647V2.11765Z" fill="white"/>
<path d="M15.4562 12.7059C15.4562 12.511 15.6144 12.3529 15.8096 12.3529H16.8697C17.0648 12.3529 17.2231 12.511 17.2231 12.7059V13.7647C17.2231 13.9596 17.0648 14.1176 16.8697 14.1176H15.8096C15.6144 14.1176 15.4562 13.9596 15.4562 13.7647V12.7059Z" fill="white"/>
<path d="M17.2231 7.41177C17.2231 7.21684 17.3813 7.05882 17.5764 7.05882H18.6365C18.8317 7.05882 18.9899 7.21684 18.9899 7.41177V8.47059C18.9899 8.66551 18.8317 8.82353 18.6365 8.82353H17.5764C17.3813 8.82353 17.2231 8.66551 17.2231 8.47059V7.41177Z" fill="white"/>
<path d="M15.4562 7.41177C15.4562 7.21684 15.6144 7.05882 15.8096 7.05882H16.8697C17.0648 7.05882 17.2231 7.21684 17.2231 7.41177V8.47059C17.2231 8.66551 17.0648 8.82353 16.8697 8.82353H15.8096C15.6144 8.82353 15.4562 8.66551 15.4562 8.47059V7.41177Z" fill="white"/>
<path d="M13.6894 7.41177C13.6894 7.21684 13.8476 7.05882 14.0427 7.05882H15.1028C15.298 7.05882 15.4562 7.21684 15.4562 7.41177V8.47059C15.4562 8.66551 15.298 8.82353 15.1028 8.82353H14.0427C13.8476 8.82353 13.6894 8.66551 13.6894 8.47059V7.41177Z" fill="white"/>
<path d="M11.9225 7.41177C11.9225 7.21684 12.0807 7.05882 12.2759 7.05882H13.336C13.5312 7.05882 13.6894 7.21684 13.6894 7.41177V8.47059C13.6894 8.66551 13.5312 8.82353 13.336 8.82353H12.2759C12.0807 8.82353 11.9225 8.66551 11.9225 8.47059V7.41177Z" fill="white"/>
<path d="M10.1557 7.41177C10.1557 7.21684 10.3139 7.05882 10.509 7.05882H11.5691C11.7643 7.05882 11.9225 7.21684 11.9225 7.41177V8.47059C11.9225 8.66551 11.7643 8.82353 11.5691 8.82353H10.509C10.3139 8.82353 10.1557 8.66551 10.1557 8.47059V7.41177Z" fill="white"/>
<path d="M8.38882 7.41177C8.38882 7.21684 8.54703 7.05882 8.74219 7.05882H9.8023C9.99746 7.05882 10.1557 7.21684 10.1557 7.41177V8.47059C10.1557 8.66551 9.99746 8.82353 9.8023 8.82353H8.74219C8.54703 8.82353 8.38882 8.66551 8.38882 8.47059V7.41177Z" fill="white"/>
<path d="M6.70483 8.43218C6.68824 8.60768 6.83812 8.75735 7.01383 8.74078C7.17237 8.72583 7.35731 8.71222 7.50539 8.71222C7.65348 8.71222 7.83842 8.72583 7.99696 8.74078C8.17266 8.75735 8.32255 8.60768 8.30596 8.43218C8.29097 8.27364 8.27733 8.08877 8.27733 7.9412C8.27733 7.7936 8.29098 7.60868 8.30597 7.45013C8.32256 7.27466 8.17273 7.125 7.99705 7.14157C7.8383 7.15655 7.65317 7.17018 7.50539 7.17018C7.35762 7.17018 7.17248 7.15655 7.01374 7.14157C6.83806 7.125 6.68823 7.27466 6.70482 7.45013C6.71981 7.60868 6.73346 7.7936 6.73346 7.9412C6.73346 8.08877 6.71982 8.27364 6.70483 8.43218Z" fill="white"/>
<path d="M8.47168 6.66747C8.45509 6.84297 8.60497 6.99265 8.78068 6.97607C8.93922 6.96112 9.12416 6.94751 9.27224 6.94751C9.42033 6.94751 9.60527 6.96112 9.76381 6.97607C9.93951 6.99265 10.0894 6.84297 10.0728 6.66747C10.0578 6.50894 10.0442 6.32406 10.0442 6.17649C10.0442 6.0289 10.0578 5.84398 10.0728 5.68542C10.0894 5.50995 9.93957 5.3603 9.7639 5.37687C9.60515 5.39184 9.42001 5.40548 9.27224 5.40548C9.12447 5.40548 8.93933 5.39184 8.78059 5.37687C8.60491 5.3603 8.45508 5.50995 8.47167 5.68542C8.48666 5.84398 8.50031 6.0289 8.50031 6.17649C8.50031 6.32406 8.48666 6.50894 8.47168 6.66747Z" fill="white"/>
<path d="M10.2385 4.90277C10.2219 5.07827 10.3718 5.22794 10.5475 5.21137C10.7061 5.19641 10.891 5.18281 11.0391 5.18281C11.1872 5.18281 11.3721 5.19641 11.5307 5.21137C11.7064 5.22794 11.8562 5.07827 11.8397 4.90277C11.8247 4.74423 11.811 4.55936 11.811 4.41179C11.811 4.26419 11.8247 4.07927 11.8397 3.92072C11.8563 3.74525 11.7064 3.59559 11.5307 3.61216C11.372 3.62713 11.1869 3.64077 11.0391 3.64077C10.8913 3.64077 10.7062 3.62713 10.5474 3.61216C10.3718 3.59559 10.2219 3.74525 10.2385 3.92072C10.2535 4.07927 10.2672 4.26419 10.2672 4.41179C10.2672 4.55936 10.2535 4.74423 10.2385 4.90277Z" fill="white"/>
<path d="M12.0054 3.13806C11.9888 3.31356 12.1387 3.46323 12.3144 3.44666C12.4729 3.43171 12.6579 3.4181 12.8059 3.4181C12.954 3.4181 13.139 3.43171 13.2975 3.44666C13.4732 3.46323 13.6231 3.31356 13.6065 3.13806C13.5915 2.97953 13.5779 2.79465 13.5779 2.64708C13.5779 2.49948 13.5915 2.31457 13.6065 2.15601C13.6231 1.98054 13.4733 1.83089 13.2976 1.84746C13.1388 1.86243 12.9537 1.87606 12.8059 1.87606C12.6582 1.87606 12.473 1.86243 12.3143 1.84746C12.1386 1.83089 11.9888 1.98054 12.0054 2.15601C12.0204 2.31457 12.034 2.49948 12.034 2.64708C12.034 2.79465 12.0204 2.97953 12.0054 3.13806Z" fill="white"/>
<path d="M13.7722 1.37336C13.7556 1.54886 13.9055 1.69853 14.0812 1.68196C14.2398 1.667 14.4247 1.6534 14.5728 1.6534C14.7209 1.6534 14.9058 1.667 15.0643 1.68196C15.2401 1.69853 15.3899 1.54886 15.3733 1.37336C15.3584 1.21482 15.3447 1.02995 15.3447 0.882377C15.3447 0.734779 15.3584 0.549861 15.3734 0.391303C15.3899 0.215833 15.2401 0.0661799 15.0644 0.0827495C14.9057 0.0977222 14.7206 0.111358 14.5728 0.111358C14.425 0.111358 14.2399 0.0977222 14.0811 0.0827495C13.9055 0.0661799 13.7556 0.215833 13.7722 0.391303C13.7872 0.549861 13.8009 0.734779 13.8009 0.882377C13.8009 1.02995 13.7872 1.21482 13.7722 1.37336Z" fill="white"/>
<path d="M5.05223 8.15125C4.80263 8.46631 5.21282 8.87601 5.52826 8.6267C5.65149 8.5293 5.8256 8.5293 5.94883 8.6267C6.26427 8.87601 6.67447 8.46631 6.42486 8.15125C6.32735 8.02817 6.32735 7.85427 6.42486 7.73119C6.67447 7.41613 6.26427 7.00643 5.94883 7.25574C5.8256 7.35313 5.65149 7.35313 5.52826 7.25574C5.21282 7.00643 4.80263 7.41613 5.05223 7.73119C5.14975 7.85427 5.14975 8.02817 5.05223 8.15125Z" fill="white"/>
<path d="M6.81908 6.38654C6.56947 6.7016 6.97967 7.1113 7.29511 6.86199C7.41834 6.7646 7.59245 6.7646 7.71568 6.86199C8.03112 7.1113 8.44132 6.7016 8.19171 6.38654C8.09419 6.26346 8.09419 6.08957 8.19171 5.96648C8.44132 5.65143 8.03112 5.24173 7.71568 5.49103C7.59245 5.58843 7.41834 5.58843 7.29511 5.49103C6.97967 5.24173 6.56947 5.65143 6.81908 5.96648C6.9166 6.08957 6.9166 6.26346 6.81908 6.38654Z" fill="white"/>
<path d="M8.58593 4.62184C8.33632 4.9369 8.74652 5.34659 9.06196 5.09729C9.18519 4.99989 9.35929 4.99989 9.48253 5.09729C9.79797 5.34659 10.2082 4.9369 9.95855 4.62184C9.86104 4.49875 9.86104 4.32486 9.95855 4.20178C10.2082 3.88672 9.79797 3.47702 9.48253 3.72633C9.35929 3.82372 9.18519 3.82372 9.06196 3.72633C8.74652 3.47702 8.33632 3.88672 8.58593 4.20178C8.68344 4.32486 8.68344 4.49875 8.58593 4.62184Z" fill="white"/>
<path d="M10.3528 2.85713C10.1032 3.17219 10.5134 3.58189 10.8288 3.33258C10.952 3.23519 11.1261 3.23519 11.2494 3.33258C11.5648 3.58189 11.975 3.17219 11.7254 2.85713C11.6279 2.73405 11.6279 2.56016 11.7254 2.43707C11.975 2.12201 11.5648 1.71231 11.2494 1.96162C11.1261 2.05902 10.952 2.05902 10.8288 1.96162C10.5134 1.71231 10.1032 2.12201 10.3528 2.43707C10.4503 2.56016 10.4503 2.73405 10.3528 2.85713Z" fill="white"/>
<path d="M12.1196 1.09243C11.87 1.40748 12.2802 1.81718 12.5957 1.56788C12.7189 1.47048 12.893 1.47048 13.0162 1.56788C13.3317 1.81718 13.7419 1.40748 13.4922 1.09243C13.3947 0.969343 13.3947 0.79545 13.4922 0.672367C13.7419 0.357308 13.3317 -0.0523909 13.0162 0.196916C12.893 0.294311 12.7189 0.294311 12.5957 0.196916C12.2802 -0.0523909 11.87 0.357308 12.1196 0.672367C12.2171 0.79545 12.2171 0.969343 12.1196 1.09243Z" fill="white"/>
<path d="M3.40051 8.18877C3.17248 8.47659 3.43564 8.73943 3.72381 8.51168C3.83639 8.4227 4.07912 8.4227 4.1917 8.51168C4.47987 8.73943 4.74303 8.47659 4.515 8.18877C4.42592 8.07632 4.45381 7.80603 4.54289 7.69359C4.77092 7.40576 4.50776 7.14292 4.21959 7.37067C4.10701 7.45965 3.83639 7.45965 3.72381 7.37067C3.43564 7.14292 3.17248 7.40576 3.40051 7.69359C3.48959 7.80603 3.48959 8.07632 3.40051 8.18877Z" fill="white"/>
<path d="M5.16735 6.42406C4.93932 6.71188 5.20249 6.97473 5.49066 6.74697C5.60324 6.658 5.84597 6.658 5.95854 6.74697C6.24672 6.97473 6.50988 6.71188 6.28185 6.42406C6.19276 6.31162 6.22066 6.04132 6.30974 5.92888C6.53777 5.64106 6.27461 5.37821 5.98644 5.60597C5.87386 5.69494 5.60324 5.69494 5.49066 5.60597C5.20249 5.37821 4.93932 5.64106 5.16735 5.92888C5.25644 6.04132 5.25644 6.31162 5.16735 6.42406Z" fill="white"/>
<path d="M6.9342 4.65936C6.70617 4.94718 6.96933 5.21002 7.2575 4.98227C7.37008 4.89329 7.61281 4.89329 7.72539 4.98227C8.01356 5.21002 8.27672 4.94718 8.04869 4.65936C7.95961 4.54691 7.9875 4.27662 8.07659 4.16417C8.30462 3.87635 8.04146 3.61351 7.75328 3.84126C7.64071 3.93024 7.37008 3.93024 7.2575 3.84126C6.96933 3.61351 6.70617 3.87635 6.9342 4.16417C7.02328 4.27662 7.02328 4.54691 6.9342 4.65936Z" fill="white"/>
<path d="M8.70105 2.89465C8.47302 3.18247 8.73618 3.44531 9.02435 3.21756C9.13693 3.12858 9.37966 3.12858 9.49224 3.21756C9.78041 3.44531 10.0436 3.18247 9.81554 2.89465C9.72646 2.78221 9.75435 2.51191 9.84344 2.39947C10.0715 2.11165 9.8083 1.8488 9.52013 2.07656C9.40755 2.16553 9.13693 2.16553 9.02435 2.07656C8.73618 1.8488 8.47302 2.11165 8.70105 2.39947C8.79013 2.51191 8.79013 2.78221 8.70105 2.89465Z" fill="white"/>
<path d="M10.4679 1.12994C10.2399 1.41776 10.503 1.68061 10.7912 1.45285C10.9038 1.36388 11.1465 1.36388 11.2591 1.45285C11.5473 1.68061 11.8104 1.41776 11.5824 1.12994C11.4933 1.0175 11.5212 0.747205 11.6103 0.634763C11.8383 0.346941 11.5752 0.0840975 11.287 0.311851C11.1744 0.400827 10.9038 0.400827 10.7912 0.311851C10.503 0.0840975 10.2399 0.346941 10.4679 0.634763C10.557 0.747205 10.557 1.0175 10.4679 1.12994Z" fill="white"/>
<path d="M1.74724 8.09513C1.5332 8.3653 1.78022 8.61201 2.05071 8.39823C2.15638 8.31472 2.22713 8.31472 2.3328 8.39823C2.60329 8.61201 2.85031 8.3653 2.63627 8.09513C2.55265 7.98959 2.57883 7.89278 2.66245 7.78723C2.87649 7.51707 2.62947 7.27036 2.35898 7.48414C2.25331 7.56765 2.15638 7.56765 2.05071 7.48414C1.78022 7.27036 1.5332 7.51707 1.74724 7.78723C1.83086 7.89278 1.83086 7.98959 1.74724 8.09513Z" fill="white"/>
<path d="M3.51409 6.33043C3.30005 6.60059 3.54706 6.84731 3.81755 6.63353C3.92323 6.55001 3.99398 6.55001 4.09965 6.63353C4.37014 6.84731 4.61715 6.60059 4.40311 6.33043C4.3195 6.22489 4.34568 6.12807 4.4293 6.02253C4.64333 5.75237 4.39632 5.50565 4.12583 5.71943C4.02016 5.80295 3.92323 5.80295 3.81755 5.71943C3.54706 5.50565 3.30005 5.75237 3.51409 6.02253C3.59771 6.12807 3.59771 6.22489 3.51409 6.33043Z" fill="white"/>
<path d="M5.28093 4.56572C5.0669 4.83589 5.31391 5.0826 5.5844 4.86882C5.69007 4.78531 5.76082 4.78531 5.86649 4.86882C6.13698 5.0826 6.384 4.83589 6.16996 4.56572C6.08634 4.46018 6.11252 4.36337 6.19614 4.25782C6.41018 3.98766 6.16317 3.74094 5.89268 3.95472C5.787 4.03824 5.69007 4.03824 5.5844 3.95472C5.31391 3.74094 5.0669 3.98766 5.28093 4.25782C5.36455 4.36337 5.36455 4.46018 5.28093 4.56572Z" fill="white"/>
<path d="M7.04778 2.80102C6.83374 3.07118 7.08076 3.3179 7.35125 3.10412C7.45692 3.0206 7.52767 3.0206 7.63334 3.10412C7.90383 3.3179 8.15085 3.07118 7.93681 2.80102C7.85319 2.69547 7.87937 2.59866 7.96299 2.49312C8.17703 2.22295 7.93001 1.97624 7.65952 2.19002C7.55385 2.27353 7.45692 2.27353 7.35125 2.19002C7.08076 1.97624 6.83374 2.22295 7.04778 2.49312C7.1314 2.59866 7.1314 2.69547 7.04778 2.80102Z" fill="white"/>
<path d="M8.81463 1.03631C8.60059 1.30647 8.84761 1.55319 9.1181 1.33941C9.22377 1.25589 9.29452 1.25589 9.40019 1.33941C9.67068 1.55319 9.9177 1.30647 9.70366 1.03631C9.62004 0.930768 9.64622 0.833954 9.72984 0.728411C9.94388 0.458249 9.69686 0.211532 9.42637 0.425312C9.3207 0.508828 9.22377 0.508828 9.1181 0.425312C8.84761 0.211532 8.60059 0.458249 8.81463 0.728411C8.89825 0.833954 8.89825 0.930768 8.81463 1.03631Z" fill="white"/>
<path d="M0.0912553 8.08578C-0.109751 8.33949 0.0484623 8.49751 0.302482 8.29675C0.401719 8.21832 0.46816 8.21832 0.567397 8.29675C0.821416 8.49751 0.97963 8.33949 0.778623 8.08578C0.700097 7.98666 0.700097 7.89574 0.778623 7.79663C0.97963 7.54291 0.846004 7.38489 0.591984 7.58565C0.492747 7.66409 0.401719 7.66409 0.302482 7.58565C0.0484623 7.38489 -0.109751 7.54291 0.0912553 7.79663C0.169782 7.89574 0.169782 7.98666 0.0912553 8.08578Z" fill="white"/>
<path d="M0.203607 6.31204C0.0151481 6.54991 0.0712751 6.60597 0.309438 6.41774C0.40248 6.34421 0.464773 6.34421 0.557815 6.41774C0.795978 6.60597 0.852105 6.54991 0.663647 6.31204C0.590022 6.21911 0.590022 6.13387 0.663647 6.04094C0.852105 5.80306 0.81903 5.747 0.580868 5.93524C0.487826 6.00877 0.40248 6.00877 0.309438 5.93524C0.0712751 5.747 0.0151481 5.80306 0.203607 6.04094C0.277231 6.13387 0.277231 6.21911 0.203607 6.31204Z" fill="white"/>
<path d="M0.279108 4.53351C0.134434 4.71612 0.142127 4.7238 0.324958 4.57931C0.396384 4.52285 0.497295 4.52285 0.568721 4.57931C0.751552 4.7238 0.759246 4.71612 0.614571 4.53351C0.558052 4.46217 0.558052 4.36138 0.614571 4.29004C0.759246 4.10743 0.751552 4.09975 0.568721 4.24425C0.497295 4.3007 0.378687 4.3007 0.307262 4.24425C0.124431 4.09975 0.116737 4.10743 0.261411 4.29004C0.317931 4.36138 0.335627 4.46217 0.279108 4.53351Z" fill="white"/>
<path d="M2.04596 2.7688C1.90128 2.95141 1.90897 2.9591 2.09181 2.8146C2.16323 2.75815 2.26414 2.75815 2.33557 2.8146C2.5184 2.9591 2.52609 2.95141 2.38142 2.7688C2.3249 2.69747 2.3249 2.59668 2.38142 2.52534C2.52609 2.34273 2.5184 2.33504 2.33557 2.47954C2.26414 2.53599 2.14553 2.53599 2.07411 2.47954C1.89128 2.33504 1.88358 2.34273 2.02826 2.52534C2.08478 2.59668 2.10247 2.69747 2.04596 2.7688Z" fill="white"/>
<path d="M0.346234 2.70664C0.220758 2.86502 0.227431 2.87169 0.386001 2.74636C0.447948 2.6974 0.443379 2.6974 0.505326 2.74636C0.663896 2.87169 0.670569 2.86502 0.545093 2.70664C0.496073 2.64477 0.496073 2.64934 0.545093 2.58746C0.670569 2.42909 0.663896 2.42242 0.505326 2.54775C0.443379 2.59671 0.4326 2.59671 0.370652 2.54775C0.212082 2.42242 0.205409 2.42909 0.330886 2.58746C0.379905 2.64934 0.395254 2.64477 0.346234 2.70664Z" fill="white"/>
<path d="M2.11308 0.941939C1.98761 1.10032 1.99428 1.10698 2.15285 0.981657C2.2148 0.932697 2.21023 0.932697 2.27217 0.981657C2.43074 1.10698 2.43742 1.10032 2.31194 0.941939C2.26292 0.880066 2.26292 0.88463 2.31194 0.822757C2.43742 0.664379 2.43074 0.657715 2.27217 0.783039C2.21023 0.831999 2.19945 0.831999 2.1375 0.783039C1.97893 0.657715 1.97226 0.664379 2.09773 0.822757C2.14675 0.88463 2.1621 0.880066 2.11308 0.941939Z" fill="white"/>
<path d="M3.8128 1.0041C3.66813 1.18671 3.67582 1.19439 3.85865 1.04989C3.93008 0.993443 4.03099 0.993443 4.10242 1.04989C4.28525 1.19439 4.29294 1.18671 4.14827 1.0041C4.09175 0.93276 4.09175 0.831971 4.14827 0.760632C4.29294 0.578022 4.28525 0.570338 4.10242 0.714837C4.03099 0.771288 3.91238 0.771288 3.84096 0.714837C3.65813 0.570338 3.65043 0.578022 3.79511 0.760632C3.85163 0.831971 3.86932 0.93276 3.8128 1.0041Z" fill="white"/>
<path d="M1.97045 4.54733C1.782 4.78521 1.83812 4.84127 2.07628 4.65304C2.16933 4.5795 2.23162 4.5795 2.32466 4.65304C2.56283 4.84127 2.61895 4.78521 2.43049 4.54733C2.35687 4.4544 2.35687 4.36916 2.43049 4.27623C2.61895 4.03836 2.58588 3.9823 2.34772 4.17053C2.25467 4.24406 2.16933 4.24406 2.07628 4.17053C1.83812 3.9823 1.782 4.03836 1.97045 4.27623C2.04408 4.36916 2.04408 4.4544 1.97045 4.54733Z" fill="white"/>
<path d="M3.7373 2.78263C3.54884 3.0205 3.60497 3.07656 3.84313 2.88833C3.93617 2.8148 3.99847 2.8148 4.09151 2.88833C4.32967 3.07656 4.3858 3.0205 4.19734 2.78263C4.12372 2.6897 4.12372 2.60446 4.19734 2.51153C4.3858 2.27365 4.35273 2.21759 4.11456 2.40582C4.02152 2.47936 3.93617 2.47936 3.84313 2.40582C3.60497 2.21759 3.54884 2.27365 3.7373 2.51153C3.81093 2.60446 3.81093 2.6897 3.7373 2.78263Z" fill="white"/>
<path d="M5.50415 1.01792C5.31569 1.2558 5.37182 1.31185 5.60998 1.12362C5.70302 1.05009 5.76532 1.05009 5.85836 1.12362C6.09652 1.31185 6.15265 1.2558 5.96419 1.01792C5.89056 0.924993 5.89056 0.83975 5.96419 0.746821C6.15265 0.508947 6.11957 0.452888 5.88141 0.641118C5.78837 0.714653 5.70302 0.714653 5.60998 0.641118C5.37182 0.452888 5.31569 0.508947 5.50415 0.746821C5.57777 0.83975 5.57777 0.924993 5.50415 1.01792Z" fill="white"/>
<path d="M1.8581 6.32107C1.6571 6.57478 1.81531 6.7328 2.06933 6.53204C2.16857 6.45361 2.23501 6.45361 2.33424 6.53204C2.58826 6.7328 2.74648 6.57478 2.54547 6.32107C2.46694 6.22195 2.46694 6.13104 2.54547 6.03192C2.74648 5.77821 2.61285 5.62019 2.35883 5.82095C2.25959 5.89938 2.16857 5.89938 2.06933 5.82095C1.81531 5.62019 1.6571 5.77821 1.8581 6.03192C1.93663 6.13104 1.93663 6.22195 1.8581 6.32107Z" fill="white"/>
<path d="M3.62495 4.55637C3.42394 4.81008 3.58216 4.9681 3.83618 4.76734C3.93541 4.6889 4.00185 4.6889 4.10109 4.76734C4.35511 4.9681 4.51332 4.81008 4.31232 4.55637C4.23379 4.45725 4.23379 4.36633 4.31232 4.26721C4.51332 4.0135 4.3797 3.85548 4.12568 4.05624C4.02644 4.13467 3.93541 4.13467 3.83618 4.05624C3.58216 3.85548 3.42394 4.0135 3.62495 4.26721C3.70348 4.36633 3.70348 4.45725 3.62495 4.55637Z" fill="white"/>
<path d="M5.3918 2.79166C5.19079 3.04537 5.349 3.20339 5.60302 3.00263C5.70226 2.9242 5.7687 2.9242 5.86794 3.00263C6.12196 3.20339 6.28017 3.04537 6.07917 2.79166C6.00064 2.69254 6.00064 2.60162 6.07917 2.50251C6.28017 2.2488 6.14655 2.09077 5.89253 2.29154C5.79329 2.36997 5.70226 2.36997 5.60302 2.29154C5.349 2.09077 5.19079 2.2488 5.3918 2.50251C5.47032 2.60162 5.47032 2.69254 5.3918 2.79166Z" fill="white"/>
<path d="M7.15865 1.02695C6.95764 1.28066 7.11585 1.43869 7.36987 1.23792C7.46911 1.15949 7.53555 1.15949 7.63479 1.23792C7.88881 1.43869 8.04702 1.28066 7.84601 1.02695C7.76749 0.927837 7.76749 0.836918 7.84601 0.737802C8.04702 0.48409 7.91339 0.326069 7.65937 0.526831C7.56014 0.605262 7.46911 0.605262 7.36987 0.526831C7.11585 0.326069 6.95764 0.48409 7.15865 0.737802C7.23717 0.836918 7.23717 0.927837 7.15865 1.02695Z" fill="white"/>
<path d="M11.9225 28.5882C11.9225 28.3933 12.0807 28.2353 12.2759 28.2353H13.336C13.5312 28.2353 13.6894 28.3933 13.6894 28.5882V29.6471C13.6894 29.842 13.5312 30 13.336 30H12.2759C12.0807 30 11.9225 29.842 11.9225 29.6471V28.5882Z" fill="white"/>
<path d="M10.1557 25.0588C10.1557 24.8639 10.3139 24.7059 10.509 24.7059H11.5691C11.7643 24.7059 11.9225 24.8639 11.9225 25.0588V26.1176C11.9225 26.3126 11.7643 26.4706 11.5691 26.4706H10.509C10.3139 26.4706 10.1557 26.3126 10.1557 26.1176V25.0588Z" fill="white"/>
<path d="M13.6894 21.5294C13.6894 21.3345 13.8476 21.1765 14.0427 21.1765H15.1028C15.298 21.1765 15.4562 21.3345 15.4562 21.5294V22.5882C15.4562 22.7832 15.298 22.9412 15.1028 22.9412H14.0427C13.8476 22.9412 13.6894 22.7832 13.6894 22.5882V21.5294Z" fill="white"/>
<path d="M15.4562 18C15.4562 17.8051 15.6144 17.6471 15.8096 17.6471H16.8697C17.0648 17.6471 17.2231 17.8051 17.2231 18V19.0588C17.2231 19.2537 17.0648 19.4118 16.8697 19.4118H15.8096C15.6144 19.4118 15.4562 19.2537 15.4562 19.0588V18Z" fill="white"/>
<path d="M15.4562 14.4706C15.4562 14.2757 15.6144 14.1176 15.8096 14.1176H16.8697C17.0648 14.1176 17.2231 14.2757 17.2231 14.4706V15.5294C17.2231 15.7243 17.0648 15.8824 16.8697 15.8824H15.8096C15.6144 15.8824 15.4562 15.7243 15.4562 15.5294V14.4706Z" fill="white"/>
<path d="M17.3059 15.491C17.2893 15.6665 17.4392 15.8162 17.6149 15.7996C17.7735 15.7846 17.9584 15.771 18.1065 15.771C18.2546 15.771 18.4395 15.7846 18.598 15.7996C18.7737 15.8162 18.9236 15.6665 18.907 15.491C18.8921 15.3325 18.8784 15.1476 18.8784 15C18.8784 14.8524 18.8921 14.6675 18.9071 14.509C18.9236 14.3335 18.7738 14.1838 18.5981 14.2004C18.4394 14.2154 18.2543 14.229 18.1065 14.229C17.9587 14.229 17.7736 14.2154 17.6148 14.2004C17.4391 14.1838 17.2893 14.3335 17.3059 14.509C17.3209 14.6675 17.3345 14.8524 17.3345 15C17.3345 15.1476 17.3209 15.3325 17.3059 15.491Z" fill="white"/>
<path d="M17.4202 16.9748C17.1706 17.2898 17.5808 17.6995 17.8962 17.4502C18.0194 17.3528 18.1935 17.3528 18.3168 17.4502C18.6322 17.6995 19.0424 17.2898 18.7928 16.9748C18.6953 16.8517 18.6953 16.6778 18.7928 16.5547C19.0424 16.2397 18.6322 15.83 18.3168 16.0793C18.1935 16.1767 18.0194 16.1767 17.8962 16.0793C17.5808 15.83 17.1706 16.2397 17.4202 16.5547C17.5177 16.6778 17.5177 16.8517 17.4202 16.9748Z" fill="white"/>
<path d="M17.2231 9.17647C17.2231 8.98155 17.3813 8.82353 17.5764 8.82353H18.6365C18.8317 8.82353 18.9899 8.98155 18.9899 9.17647V10.2353C18.9899 10.4302 18.8317 10.5882 18.6365 10.5882H17.5764C17.3813 10.5882 17.2231 10.4302 17.2231 10.2353V9.17647Z" fill="white"/>
<path d="M19.0728 10.1969C19.0562 10.3724 19.2061 10.5221 19.3818 10.5055C19.5403 10.4905 19.7252 10.4769 19.8733 10.4769C20.0214 10.4769 20.2064 10.4905 20.3649 10.5055C20.5406 10.5221 20.6905 10.3724 20.6739 10.1969C20.6589 10.0383 20.6453 9.85348 20.6453 9.70591C20.6453 9.55831 20.6589 9.37339 20.6739 9.21483C20.6905 9.03936 20.5407 8.88971 20.365 8.90628C20.2062 8.92125 20.0211 8.93489 19.8733 8.93489C19.7256 8.93489 19.5404 8.92125 19.3817 8.90628C19.206 8.88971 19.0562 9.03936 19.0728 9.21483C19.0877 9.37339 19.1014 9.55831 19.1014 9.70591C19.1014 9.85348 19.0877 10.0383 19.0728 10.1969Z" fill="white"/>
<path d="M19.3021 11.7182C19.0741 12.006 19.3373 12.2688 19.6254 12.0411C19.738 11.9521 19.9807 11.9521 20.0933 12.0411C20.3815 12.2688 20.6447 12.006 20.4166 11.7182C20.3275 11.6057 20.3554 11.3354 20.4445 11.223C20.6726 10.9352 20.4094 10.6723 20.1212 10.9001C20.0086 10.9891 19.738 10.9891 19.6254 10.9001C19.3373 10.6723 19.0741 10.9352 19.3021 11.223C19.3912 11.3354 19.3912 11.6057 19.3021 11.7182Z" fill="white"/>
<path d="M18.9899 3.88235C18.9899 3.68743 19.1481 3.52941 19.3433 3.52941H20.4034C20.5985 3.52941 20.7568 3.68743 20.7568 3.88235V4.94118C20.7568 5.1361 20.5985 5.29412 20.4034 5.29412H19.3433C19.1481 5.29412 18.9899 5.1361 18.9899 4.94118V3.88235Z" fill="white"/>
<path d="M20.7568 0.352941C20.7568 0.158017 20.915 0 21.1101 0H22.1702C22.3654 0 22.5236 0.158017 22.5236 0.352941V1.41176C22.5236 1.60669 22.3654 1.76471 22.1702 1.76471H21.1101C20.915 1.76471 20.7568 1.60669 20.7568 1.41176V0.352941Z" fill="white"/>
<path d="M11.9225 26.8235C11.9225 26.6286 12.0807 26.4706 12.2759 26.4706H13.336C13.5312 26.4706 13.6894 26.6286 13.6894 26.8235V27.8824C13.6894 28.0773 13.5312 28.2353 13.336 28.2353H12.2759C12.0807 28.2353 11.9225 28.0773 11.9225 27.8824V26.8235Z" fill="white"/>
<path d="M13.6894 23.2941C13.6894 23.0992 13.8476 22.9412 14.0427 22.9412H15.1028C15.298 22.9412 15.4562 23.0992 15.4562 23.2941V24.3529C15.4562 24.5479 15.298 24.7059 15.1028 24.7059H14.0427C13.8476 24.7059 13.6894 24.5479 13.6894 24.3529V23.2941Z" fill="white"/>
<path d="M13.6894 19.7647C13.6894 19.5698 13.8476 19.4118 14.0427 19.4118H15.1028C15.298 19.4118 15.4562 19.5698 15.4562 19.7647V20.8235C15.4562 21.0185 15.298 21.1765 15.1028 21.1765H14.0427C13.8476 21.1765 13.6894 21.0185 13.6894 20.8235V19.7647Z" fill="white"/>
<path d="M15.5391 20.7851C15.5225 20.9606 15.6724 21.1103 15.8481 21.0937C16.0066 21.0788 16.1915 21.0652 16.3396 21.0652C16.4877 21.0652 16.6727 21.0788 16.8312 21.0937C17.0069 21.1103 17.1568 20.9606 17.1402 20.7851C17.1252 20.6266 17.1116 20.4417 17.1116 20.2941C17.1116 20.1465 17.1252 19.9616 17.1402 19.8031C17.1568 19.6276 17.007 19.4779 16.8313 19.4945C16.6725 19.5095 16.4874 19.5231 16.3396 19.5231C16.1919 19.5231 16.0067 19.5095 15.848 19.4945C15.6723 19.4779 15.5225 19.6276 15.5391 19.8031C15.554 19.9616 15.5677 20.1465 15.5677 20.2941C15.5677 20.4417 15.5541 20.6266 15.5391 20.7851Z" fill="white"/>
<path d="M15.6533 22.2689C15.4037 22.584 15.8139 22.9937 16.1293 22.7443C16.2526 22.647 16.4267 22.647 16.5499 22.7443C16.8654 22.9937 17.2756 22.584 17.0259 22.2689C16.9284 22.1458 16.9284 21.9719 17.0259 21.8488C17.2756 21.5338 16.8654 21.1241 16.5499 21.3734C16.4267 21.4708 16.2526 21.4708 16.1293 21.3734C15.8139 21.1241 15.4037 21.5338 15.6533 21.8488C15.7508 21.9719 15.7508 22.1458 15.6533 22.2689Z" fill="white"/>
<path d="M15.7684 24.0711C15.5404 24.3589 15.8036 24.6218 16.0917 24.394C16.2043 24.3051 16.447 24.3051 16.5596 24.394C16.8478 24.6218 17.111 24.3589 16.8829 24.0711C16.7938 23.9587 16.8217 23.6884 16.9108 23.5759C17.1389 23.2881 16.8757 23.0253 16.5875 23.253C16.4749 23.342 16.2043 23.342 16.0917 23.253C15.8036 23.0253 15.5404 23.2881 15.7684 23.5759C15.8575 23.6884 15.8575 23.9587 15.7684 24.0711Z" fill="white"/>
<path d="M14.0016 29.3652C13.7736 29.6531 14.0367 29.9159 14.3249 29.6882C14.4375 29.5992 14.6802 29.5992 14.7928 29.6882C15.081 29.9159 15.3441 29.6531 15.1161 29.3652C15.027 29.2528 15.0549 28.9825 15.144 28.8701C15.372 28.5822 15.1088 28.3194 14.8207 28.5471C14.7081 28.6361 14.4375 28.6361 14.3249 28.5471C14.0367 28.3194 13.7736 28.5822 14.0016 28.8701C14.0907 28.9825 14.0907 29.2528 14.0016 29.3652Z" fill="white"/>
<path d="M17.5353 18.777C17.3073 19.0648 17.5704 19.3277 17.8586 19.0999C17.9712 19.0109 18.2139 19.0109 18.3265 19.0999C18.6146 19.3277 18.8778 19.0648 18.6498 18.777C18.5607 18.6646 18.5886 18.3943 18.6777 18.2818C18.9057 17.994 18.6425 17.7312 18.3544 17.9589C18.2418 18.0479 17.9712 18.0479 17.8586 17.9589C17.5704 17.7312 17.3073 17.994 17.5353 18.2818C17.6244 18.3943 17.6244 18.6646 17.5353 18.777Z" fill="white"/>
<path d="M19.5266 13.3799C19.3256 13.6336 19.4838 13.7916 19.7378 13.5909C19.837 13.5124 19.9035 13.5124 20.0027 13.5909C20.2567 13.7916 20.415 13.6336 20.2139 13.3799C20.1354 13.2808 20.1354 13.1899 20.2139 13.0907C20.415 12.837 20.2813 12.679 20.0273 12.8798C19.9281 12.9582 19.837 12.9582 19.7378 12.8798C19.4838 12.679 19.3256 12.837 19.5266 13.0907C19.6051 13.1899 19.6051 13.2808 19.5266 13.3799Z" fill="white"/>
<path d="M15.4562 16.2353C15.4562 16.0404 15.6144 15.8824 15.8096 15.8824H16.8697C17.0648 15.8824 17.2231 16.0404 17.2231 16.2353V17.2941C17.2231 17.489 17.0648 17.6471 16.8697 17.6471H15.8096C15.6144 17.6471 15.4562 17.489 15.4562 17.2941V16.2353Z" fill="white"/>
<path d="M17.2231 10.9412C17.2231 10.7463 17.3813 10.5882 17.5764 10.5882H18.6365C18.8317 10.5882 18.9899 10.7463 18.9899 10.9412V12C18.9899 12.1949 18.8317 12.3529 18.6365 12.3529H17.5764C17.3813 12.3529 17.2231 12.1949 17.2231 12V10.9412Z" fill="white"/>
<path d="M18.9899 5.64706C18.9899 5.45213 19.1481 5.29412 19.3433 5.29412H20.4034C20.5985 5.29412 20.7568 5.45213 20.7568 5.64706V6.70588C20.7568 6.90081 20.5985 7.05882 20.4034 7.05882H19.3433C19.1481 7.05882 18.9899 6.90081 18.9899 6.70588V5.64706Z" fill="white"/>
<path d="M22.6065 6.66747C22.5899 6.84297 22.7397 6.99265 22.9155 6.97607C23.074 6.96112 23.2589 6.94751 23.407 6.94751C23.5551 6.94751 23.74 6.96112 23.8986 6.97607C24.0743 6.99265 24.2242 6.84297 24.2076 6.66747C24.1926 6.50894 24.179 6.32406 24.179 6.17649C24.179 6.0289 24.1926 5.84398 24.2076 5.68542C24.2242 5.50995 24.0744 5.3603 23.8987 5.37687C23.7399 5.39184 23.5548 5.40548 23.407 5.40548C23.2592 5.40548 23.0741 5.39184 22.9154 5.37687C22.7397 5.3603 22.5899 5.50995 22.6064 5.68542C22.6214 5.84398 22.6351 6.0289 22.6351 6.17649C22.6351 6.32406 22.6214 6.50894 22.6065 6.66747Z" fill="white"/>
<path d="M24.3733 4.90277C24.3567 5.07827 24.5066 5.22794 24.6823 5.21137C24.8408 5.19641 25.0258 5.18281 25.1739 5.18281C25.322 5.18281 25.5069 5.19641 25.6654 5.21137C25.8411 5.22794 25.991 5.07827 25.9744 4.90277C25.9594 4.74423 25.9458 4.55936 25.9458 4.41179C25.9458 4.26419 25.9594 4.07927 25.9744 3.92072C25.991 3.74525 25.8412 3.59559 25.6655 3.61216C25.5068 3.62713 25.3216 3.64077 25.1739 3.64077C25.0261 3.64077 24.841 3.62713 24.6822 3.61216C24.5065 3.59559 24.3567 3.74525 24.3733 3.92072C24.3883 4.07927 24.4019 4.26419 24.4019 4.41179C24.4019 4.55936 24.3883 4.74423 24.3733 4.90277Z" fill="white"/>
<path d="M26.1402 3.13806C26.1236 3.31356 26.2734 3.46323 26.4492 3.44666C26.6077 3.43171 26.7926 3.4181 26.9407 3.4181C27.0888 3.4181 27.2737 3.43171 27.4323 3.44666C27.608 3.46323 27.7579 3.31356 27.7413 3.13806C27.7263 2.97953 27.7126 2.79465 27.7126 2.64708C27.7126 2.49948 27.7263 2.31457 27.7413 2.15601C27.7579 1.98054 27.608 1.83089 27.4324 1.84746C27.2736 1.86243 27.0885 1.87606 26.9407 1.87606C26.7929 1.87606 26.6078 1.86243 26.4491 1.84746C26.2734 1.83089 26.1236 1.98054 26.1401 2.15601C26.1551 2.31457 26.1688 2.49948 26.1688 2.64708C26.1688 2.79465 26.1551 2.97953 26.1402 3.13806Z" fill="white"/>
<path d="M27.907 1.37336C27.8904 1.54886 28.0403 1.69853 28.216 1.68196C28.3745 1.667 28.5595 1.6534 28.7076 1.6534C28.8556 1.6534 29.0406 1.667 29.1991 1.68196C29.3748 1.69853 29.5247 1.54886 29.5081 1.37336C29.4931 1.21482 29.4795 1.02995 29.4795 0.882377C29.4795 0.734779 29.4931 0.549861 29.5081 0.391303C29.5247 0.215833 29.3749 0.0661799 29.1992 0.0827495C29.0405 0.0977222 28.8553 0.111358 28.7076 0.111358C28.5598 0.111358 28.3747 0.0977222 28.2159 0.0827495C28.0402 0.0661799 27.8904 0.215833 27.907 0.391303C27.922 0.549861 27.9356 0.734779 27.9356 0.882377C27.9356 1.02995 27.922 1.21482 27.907 1.37336Z" fill="white"/>
<path d="M20.7568 2.11765C20.7568 1.92272 20.915 1.76471 21.1101 1.76471H22.1702C22.3654 1.76471 22.5236 1.92272 22.5236 2.11765V3.17647C22.5236 3.37139 22.3654 3.52941 22.1702 3.52941H21.1101C20.915 3.52941 20.7568 3.37139 20.7568 3.17647V2.11765Z" fill="white"/>
<path d="M22.5236 0.352941C22.5236 0.158017 22.6818 0 22.877 0H23.9371C24.1322 0 24.2904 0.158017 24.2904 0.352941V1.41176C24.2904 1.60669 24.1322 1.76471 23.9371 1.76471H22.877C22.6818 1.76471 22.5236 1.60669 22.5236 1.41176V0.352941Z" fill="white"/>
<path d="M26.4831 8.09513C26.2691 8.3653 26.5161 8.61201 26.7866 8.39823C26.8922 8.31472 26.963 8.31472 27.0687 8.39823C27.3392 8.61201 27.5862 8.3653 27.3721 8.09513C27.2885 7.98959 27.3147 7.89278 27.3983 7.78723C27.6124 7.51707 27.3653 7.27036 27.0948 7.48414C26.9892 7.56765 26.8922 7.56765 26.7866 7.48414C26.5161 7.27036 26.2691 7.51707 26.4831 7.78723C26.5667 7.89278 26.5667 7.98959 26.4831 8.09513Z" fill="white"/>
<path d="M28.25 6.33043C28.0359 6.60059 28.2829 6.84731 28.5534 6.63353C28.6591 6.55001 28.7298 6.55001 28.8355 6.63353C29.106 6.84731 29.353 6.60059 29.139 6.33043C29.0554 6.22489 29.0815 6.12807 29.1652 6.02253C29.3792 5.75237 29.1322 5.50565 28.8617 5.71943C28.756 5.80295 28.6591 5.80295 28.5534 5.71943C28.2829 5.50565 28.0359 5.75237 28.25 6.02253C28.3336 6.12807 28.3336 6.22489 28.25 6.33043Z" fill="white"/>
<path d="M30.0168 4.56572C29.8028 4.83589 30.0498 5.0826 30.3203 4.86882C30.4259 4.78531 30.4967 4.78531 30.6024 4.86882C30.8728 5.0826 31.1199 4.83589 30.9058 4.56572C30.8222 4.46018 30.8484 4.36337 30.932 4.25782C31.146 3.98766 30.899 3.74094 30.6285 3.95472C30.5229 4.03824 30.4259 4.03824 30.3203 3.95472C30.0498 3.74094 29.8028 3.98766 30.0168 4.25782C30.1004 4.36337 30.1004 4.46018 30.0168 4.56572Z" fill="white"/>
<path d="M28.3608 8.08578C28.1598 8.33949 28.318 8.49751 28.572 8.29675C28.6713 8.21832 28.7377 8.21832 28.837 8.29675C29.091 8.49751 29.2492 8.33949 29.0482 8.08578C28.9697 7.98666 28.9697 7.89574 29.0482 7.79663C29.2492 7.54291 29.1156 7.38489 28.8615 7.58565C28.7623 7.66409 28.6713 7.66409 28.572 7.58565C28.318 7.38489 28.1598 7.54291 28.3608 7.79663C28.4393 7.89574 28.4393 7.98666 28.3608 8.08578Z" fill="white"/>
<path d="M30.1277 6.32107C29.9267 6.57478 30.0849 6.7328 30.3389 6.53204C30.4381 6.45361 30.5046 6.45361 30.6038 6.53204C30.8578 6.7328 31.016 6.57478 30.815 6.32107C30.7365 6.22195 30.7365 6.13104 30.815 6.03192C31.016 5.77821 30.8824 5.62019 30.6284 5.82095C30.5292 5.89938 30.4381 5.89938 30.3389 5.82095C30.0849 5.62019 29.9267 5.77821 30.1277 6.03192C30.2062 6.13104 30.2062 6.22195 30.1277 6.32107Z" fill="white"/>
<path d="M20.7568 3.88235C20.7568 3.68743 20.915 3.52941 21.1101 3.52941H22.1702C22.3654 3.52941 22.5236 3.68743 22.5236 3.88235V4.94118C22.5236 5.1361 22.3654 5.29412 22.1702 5.29412H21.1101C20.915 5.29412 20.7568 5.1361 20.7568 4.94118V3.88235Z" fill="white"/>
<path d="M22.5236 2.11765C22.5236 1.92272 22.6818 1.76471 22.877 1.76471H23.9371C24.1322 1.76471 24.2904 1.92272 24.2904 2.11765V3.17647C24.2904 3.37139 24.1322 3.52941 23.9371 3.52941H22.877C22.6818 3.52941 22.5236 3.37139 22.5236 3.17647V2.11765Z" fill="white"/>
<path d="M24.2904 0.352941C24.2904 0.158017 24.4487 0 24.6438 0H25.7039C25.8991 0 26.0573 0.158017 26.0573 0.352941V1.41176C26.0573 1.60669 25.8991 1.76471 25.7039 1.76471H24.6438C24.4487 1.76471 24.2904 1.60669 24.2904 1.41176V0.352941Z" fill="white"/>
<path d="M24.4876 6.38654C24.2379 6.7016 24.6481 7.1113 24.9636 6.86199C25.0868 6.7646 25.2609 6.7646 25.3842 6.86199C25.6996 7.1113 26.1098 6.7016 25.8602 6.38654C25.7627 6.26346 25.7627 6.08957 25.8602 5.96648C26.1098 5.65143 25.6996 5.24173 25.3842 5.49103C25.2609 5.58843 25.0868 5.58843 24.9636 5.49103C24.6481 5.24173 24.2379 5.65143 24.4876 5.96648C24.5851 6.08957 24.5851 6.26346 24.4876 6.38654Z" fill="white"/>
<path d="M26.2544 4.62184C26.0048 4.9369 26.415 5.34659 26.7304 5.09729C26.8537 4.99989 27.0278 4.99989 27.151 5.09729C27.4664 5.34659 27.8766 4.9369 27.627 4.62184C27.5295 4.49875 27.5295 4.32486 27.627 4.20178C27.8766 3.88672 27.4664 3.47702 27.151 3.72633C27.0278 3.82372 26.8537 3.82372 26.7304 3.72633C26.415 3.47702 26.0048 3.88672 26.2544 4.20178C26.3519 4.32486 26.3519 4.49875 26.2544 4.62184Z" fill="white"/>
<path d="M28.0212 2.85713C27.7716 3.17219 28.1818 3.58189 28.4973 3.33258C28.6205 3.23519 28.7946 3.23519 28.9178 3.33258C29.2333 3.58189 29.6435 3.17219 29.3939 2.85713C29.2964 2.73405 29.2964 2.56016 29.3939 2.43707C29.6435 2.12201 29.2333 1.71231 28.9178 1.96162C28.7946 2.05902 28.6205 2.05902 28.4973 1.96162C28.1818 1.71231 27.7716 2.12201 28.0212 2.43707C28.1188 2.56016 28.1188 2.73405 28.0212 2.85713Z" fill="white"/>
<path d="M29.7881 1.09243C29.5385 1.40748 29.9487 1.81718 30.2641 1.56788C30.3874 1.47048 30.5615 1.47048 30.6847 1.56788C31.0001 1.81718 31.4103 1.40748 31.1607 1.09243C31.0632 0.969343 31.0632 0.79545 31.1607 0.672367C31.4103 0.357308 31.0001 -0.0523909 30.6847 0.196916C30.5615 0.294311 30.3874 0.294311 30.2641 0.196916C29.9487 -0.0523909 29.5385 0.357308 29.7881 0.672367C29.8856 0.79545 29.8856 0.969343 29.7881 1.09243Z" fill="white"/>
<path d="M26.3695 6.42406C26.1415 6.71188 26.4047 6.97473 26.6928 6.74697C26.8054 6.658 27.0481 6.658 27.1607 6.74697C27.4489 6.97473 27.712 6.71188 27.484 6.42406C27.3949 6.31162 27.4228 6.04132 27.5119 5.92888C27.7399 5.64106 27.4768 5.37821 27.1886 5.60597C27.076 5.69494 26.8054 5.69494 26.6928 5.60597C26.4047 5.37821 26.1415 5.64106 26.3695 5.92888C26.4586 6.04132 26.4586 6.31162 26.3695 6.42406Z" fill="white"/>
<path d="M28.1364 4.65936C27.9083 4.94718 28.1715 5.21002 28.4597 4.98227C28.5722 4.89329 28.815 4.89329 28.9276 4.98227C29.2157 5.21002 29.4789 4.94718 29.2509 4.65936C29.1618 4.54691 29.1897 4.27662 29.2788 4.16417C29.5068 3.87635 29.2436 3.61351 28.9555 3.84126C28.8429 3.93024 28.5722 3.93024 28.4597 3.84126C28.1715 3.61351 27.9083 3.87635 28.1364 4.16417C28.2255 4.27662 28.2255 4.54691 28.1364 4.65936Z" fill="white"/>
<path d="M29.9032 2.89465C29.6752 3.18247 29.9383 3.44531 30.2265 3.21756C30.3391 3.12858 30.5818 3.12858 30.6944 3.21756C30.9826 3.44531 31.2457 3.18247 31.0177 2.89465C30.9286 2.78221 30.9565 2.51191 31.0456 2.39947C31.2736 2.11165 31.0105 1.8488 30.7223 2.07656C30.6097 2.16553 30.3391 2.16553 30.2265 2.07656C29.9383 1.8488 29.6752 2.11165 29.9032 2.39947C29.9923 2.51191 29.9923 2.78221 29.9032 2.89465Z" fill="white"/>
<path d="M24.6027 8.18877C24.3746 8.47659 24.6378 8.73943 24.926 8.51168C25.0386 8.4227 25.2813 8.4227 25.3939 8.51168C25.682 8.73943 25.9452 8.47659 25.7172 8.18877C25.6281 8.07632 25.656 7.80603 25.7451 7.69359C25.9731 7.40576 25.7099 7.14292 25.4218 7.37067C25.3092 7.45965 25.0386 7.45965 24.926 7.37067C24.6378 7.14292 24.3746 7.40576 24.6027 7.69359C24.6918 7.80603 24.6918 8.07632 24.6027 8.18877Z" fill="white"/>
<path d="M17.2231 12.7059C17.2231 12.511 17.3813 12.3529 17.5764 12.3529H18.6365C18.8317 12.3529 18.9899 12.511 18.9899 12.7059V13.7647C18.9899 13.9596 18.8317 14.1176 18.6365 14.1176H17.5764C17.3813 14.1176 17.2231 13.9596 17.2231 13.7647V12.7059Z" fill="white"/>
<path d="M18.9899 7.41177C18.9899 7.21684 19.1481 7.05882 19.3433 7.05882H20.4034C20.5985 7.05882 20.7568 7.21684 20.7568 7.41177V8.47059C20.7568 8.66551 20.5985 8.82353 20.4034 8.82353H19.3433C19.1481 8.82353 18.9899 8.66551 18.9899 8.47059V7.41177Z" fill="white"/>
<path d="M20.7568 5.64706C20.7568 5.45213 20.915 5.29412 21.1101 5.29412H22.1702C22.3654 5.29412 22.5236 5.45213 22.5236 5.64706V6.70588C22.5236 6.90081 22.3654 7.05882 22.1702 7.05882H21.1101C20.915 7.05882 20.7568 6.90081 20.7568 6.70588V5.64706Z" fill="white"/>
<path d="M22.5236 3.88235C22.5236 3.68743 22.6818 3.52941 22.877 3.52941H23.9371C24.1322 3.52941 24.2904 3.68743 24.2904 3.88235V4.94118C24.2904 5.1361 24.1322 5.29412 23.9371 5.29412H22.877C22.6818 5.29412 22.5236 5.1361 22.5236 4.94118V3.88235Z" fill="white"/>
<path d="M24.2904 2.11765C24.2904 1.92272 24.4487 1.76471 24.6438 1.76471H25.7039C25.8991 1.76471 26.0573 1.92272 26.0573 2.11765V3.17647C26.0573 3.37139 25.8991 3.52941 25.7039 3.52941H24.6438C24.4487 3.52941 24.2904 3.37139 24.2904 3.17647V2.11765Z" fill="white"/>
<path d="M26.0573 0.352941C26.0573 0.158017 26.2155 0 26.4107 0H27.4708C27.6659 0 27.8241 0.158017 27.8241 0.352941V1.41176C27.8241 1.60669 27.6659 1.76471 27.4708 1.76471H26.4107C26.2155 1.76471 26.0573 1.60669 26.0573 1.41176V0.352941Z" fill="white"/>
<path d="M20.8396 8.43218C20.823 8.60768 20.9729 8.75735 21.1486 8.74078C21.3071 8.72583 21.4921 8.71222 21.6402 8.71222C21.7883 8.71222 21.9732 8.72583 22.1317 8.74078C22.3074 8.75735 22.4573 8.60768 22.4407 8.43218C22.4258 8.27364 22.4121 8.08877 22.4121 7.9412C22.4121 7.7936 22.4258 7.60868 22.4407 7.45013C22.4573 7.27466 22.3075 7.125 22.1318 7.14157C21.9731 7.15655 21.7879 7.17018 21.6402 7.17018C21.4924 7.17018 21.3073 7.15655 21.1485 7.14157C20.9728 7.125 20.823 7.27466 20.8396 7.45013C20.8546 7.60868 20.8682 7.7936 20.8682 7.9412C20.8682 8.08877 20.8546 8.27364 20.8396 8.43218Z" fill="white"/>
<path d="M22.7207 8.15125C22.4711 8.46631 22.8813 8.87601 23.1967 8.6267C23.32 8.5293 23.4941 8.5293 23.6173 8.6267C23.9327 8.87601 24.3429 8.46631 24.0933 8.15125C23.9958 8.02817 23.9958 7.85427 24.0933 7.73119C24.3429 7.41613 23.9327 7.00643 23.6173 7.25574C23.4941 7.35313 23.32 7.35313 23.1967 7.25574C22.8813 7.00643 22.4711 7.41613 22.7207 7.73119C22.8182 7.85427 22.8182 8.02817 22.7207 8.15125Z" fill="white"/>
</svg>
