<svg width="56" height="64" viewBox="0 0 56 64" fill="none" xmlns="http://www.w3.org/2000/svg">
<g id="Layer_3" clip-path="url(#clip0_2001_2228)">
<path id="Vector" d="M56 20L56 16L52 16L52 20L56 20Z" fill="black"/>
<path id="Vector_2" d="M56 24L56 20L52 20L52 24L56 24Z" fill="black"/>
<path id="Vector_3" d="M56 28L56 24L52 24L52 28L56 28Z" fill="black"/>
<path id="Vector_4" d="M56 32L56 28L52 28L52 32L56 32Z" fill="black"/>
<path id="Vector_5" d="M56 36L56 32L52 32L52 36L56 36Z" fill="black"/>
<path id="Vector_6" d="M52 16L52 12L48 12L48 16L52 16Z" fill="black"/>
<path id="Vector_7" d="M52 40L52 36L48 36L48 40L52 40Z" fill="black"/>
<path id="Vector_8" d="M48 8L48 4L44 4L44 8L48 8Z" fill="black"/>
<path id="Vector_9" d="M48 16L48 12L44 12L44 16L48 16Z" fill="black"/>
<path id="Vector_10" d="M48 32L48 28L44 28L44 32L48 32Z" fill="black"/>
<path id="Vector_11" d="M48 36L48 32L44 32L44 36L48 36Z" fill="black"/>
<path id="Vector_12" d="M48 40L48 36L44 36L44 40L48 40Z" fill="black"/>
<path id="Vector_13" d="M48 44L48 40L44 40L44 44L48 44Z" fill="black"/>
<path id="Vector_14" d="M48 48L48 44L44 44L44 48L48 48Z" fill="black"/>
<path id="Vector_15" d="M48 52L48 48L44 48L44 52L48 52Z" fill="black"/>
<path id="Vector_16" d="M48 56L48 52L44 52L44 56L48 56Z" fill="black"/>
<path id="Vector_17" d="M48 60L48 56L44 56L44 60L48 60Z" fill="black"/>
<path id="Vector_18" d="M44 4L44 0L40 -1.74846e-07L40 4L44 4Z" fill="black"/>
<path id="Vector_19" d="M44 12L44 8L40 8L40 12L44 12Z" fill="black"/>
<path id="Vector_20" d="M44 64L44 60L40 60L40 64L44 64Z" fill="black"/>
<path id="Vector_21" d="M40 4L40 0L36 -1.74846e-07L36 4L40 4Z" fill="black"/>
<path id="Vector_22" d="M40 12L40 8L36 8L36 12L40 12Z" fill="black"/>
<path id="Vector_23" d="M40 64L40 60L36 60L36 64L40 64Z" fill="black"/>
<path id="Vector_24" d="M36 4L36 0L32 -1.74846e-07L32 4L36 4Z" fill="black"/>
<path id="Vector_25" d="M36 12L36 8L32 8L32 12L36 12Z" fill="black"/>
<path id="Vector_26" d="M36 40L36 36L32 36L32 40L36 40Z" fill="black"/>
<path id="Vector_27" d="M36 44L36 40L32 40L32 44L36 44Z" fill="black"/>
<path id="Vector_28" d="M36 48L36 44L32 44L32 48L36 48Z" fill="black"/>
<path id="Vector_29" d="M36 52L36 48L32 48L32 52L36 52Z" fill="black"/>
<path id="Vector_30" d="M36 56L36 52L32 52L32 56L36 56Z" fill="black"/>
<path id="Vector_31" d="M36 60L36 56L32 56L32 60L36 60Z" fill="black"/>
<path id="Vector_32" d="M32 4L32 0L28 -1.74846e-07L28 4L32 4Z" fill="black"/>
<path id="Vector_33" d="M32 12L32 8L28 8L28 12L32 12Z" fill="black"/>
<path id="Vector_34" d="M32 52L32 48L28 48L28 52L32 52Z" fill="black"/>
<path id="Vector_35" d="M28 4L28 0L24 -1.74846e-07L24 4L28 4Z" fill="black"/>
<path id="Vector_36" d="M28 12L28 8L24 8L24 12L28 12Z" fill="black"/>
<path id="Vector_37" d="M28 52L28 48L24 48L24 52L28 52Z" fill="black"/>
<path id="Vector_38" d="M24 4L24 0L20 -1.74846e-07L20 4L24 4Z" fill="black"/>
<path id="Vector_39" d="M24 12L24 8L20 8L20 12L24 12Z" fill="black"/>
<path id="Vector_40" d="M24 40L24 36L20 36L20 40L24 40Z" fill="black"/>
<path id="Vector_41" d="M24 44L24 40L20 40L20 44L24 44Z" fill="black"/>
<path id="Vector_42" d="M24 48L24 44L20 44L20 48L24 48Z" fill="black"/>
<path id="Vector_43" d="M20 4L20 0L16 -1.74846e-07L16 4L20 4Z" fill="black"/>
<path id="Vector_44" d="M20 12L20 8L16 8L16 12L20 12Z" fill="black"/>
<path id="Vector_45" d="M20 48L20 44L16 44L16 48L20 48Z" fill="black"/>
<path id="Vector_46" d="M16 4L16 0L12 -1.74846e-07L12 4L16 4Z" fill="black"/>
<path id="Vector_47" d="M16 12L16 8L12 8L12 12L16 12Z" fill="black"/>
<path id="Vector_48" d="M16 48L16 44L12 44L12 48L16 48Z" fill="black"/>
<path id="Vector_49" d="M12 4L12 0L8 -1.74846e-07L8 4L12 4Z" fill="black"/>
<path id="Vector_50" d="M12 12L12 8L8 8L8 12L12 12Z" fill="black"/>
<path id="Vector_51" d="M12 40L12 36L8 36L8 40L12 40Z" fill="black"/>
<path id="Vector_52" d="M12 44L12 40L8 40L8 44L12 44Z" fill="black"/>
<path id="Vector_53" d="M8 8L8 4L4 4L4 8L8 8Z" fill="black"/>
<path id="Vector_54" d="M8 16L8 12L4 12L4 16L8 16Z" fill="black"/>
<path id="Vector_55" d="M8 44L8 40L4 40L4 44L8 44Z" fill="black"/>
<path id="Vector_56" d="M4 20L4 16L0 16L-1.74846e-07 20L4 20Z" fill="black"/>
<path id="Vector_57" d="M4 24L4 20L0 20L-1.74846e-07 24L4 24Z" fill="black"/>
<path id="Vector_58" d="M4 28L4 24L0 24L-1.74846e-07 28L4 28Z" fill="black"/>
<path id="Vector_59" d="M4 32L4 28L0 28L-1.74846e-07 32L4 32Z" fill="black"/>
<path id="Vector_60" d="M4 36L4 32L0 32L-1.74846e-07 36L4 36Z" fill="black"/>
<path id="Vector_61" d="M4 40L4 36L0 36L-1.74846e-07 40L4 40Z" fill="black"/>
</g>
<defs>
<clipPath id="clip0_2001_2228">
<rect width="64" height="56" fill="white" transform="translate(56) rotate(90)"/>
</clipPath>
</defs>
</svg>
