<svg width="433" height="250" viewBox="0 0 433 250" fill="none" xmlns="http://www.w3.org/2000/svg">
<path d="M405.31 212.27C403.05 207.04 394.32 207.72 389.43 207.98C382.08 208.37 376.51 209.76 372.51 211.25L357.56 177.08L320.57 171.61C320.57 171.61 343.18 235.93 343.21 236.01C348.13 250.4 368.45 243.34 377.59 238.96C383.79 235.99 389.8 232.57 395.23 228.34C399.53 224.99 408.11 218.77 405.3 212.27H405.31Z" fill="#FFFF7D"/>
<path d="M260.39 190.31L239.48 195.85L229.55 198.32C229.55 198.32 225.44 194.45 219.95 195.91C207.24 199.29 216.27 220.41 219.08 227.39C221.48 233.34 227.64 247.24 234.63 249.13C245 251.93 242.88 232.76 242.01 225.7L241.98 225.36L259.8 220.1C267.32 217.88 274.19 213.84 279.78 208.33L300.79 187.65L260.4 190.31H260.39Z" fill="#FFFF7D"/>
<path d="M239.48 195.85L229.55 198.32C229.55 198.32 225.44 194.45 219.95 195.91C207.24 199.29 216.27 220.41 219.08 227.39C221.48 233.34 227.64 247.24 234.63 249.13C245 251.93 242.88 232.76 242.01 225.7" stroke="#5200FF" stroke-width="0.8" stroke-linecap="round" stroke-linejoin="round"/>
<path d="M237.34 226.72L259.79 220.09C267.31 217.87 274.18 213.83 279.77 208.32L300.78 187.64" stroke="#5200FF" stroke-width="0.8" stroke-linecap="round" stroke-linejoin="round"/>
<path d="M304.97 70.51C304.97 70.51 277.79 70.51 277.69 70.51C254.78 70.51 240.7 92.56 232.11 111C222.67 131.25 208.99 161.11 222.6 182.11C233.02 198.18 253.65 202.57 271.37 199.26C279.49 197.75 287.39 195.18 294.66 191.2C298.78 188.94 302.66 186.26 306.21 183.18C307.85 181.75 315.42 171.59 316.67 171.59H328.36C329.6 171.59 338.55 185.1 340.12 186.53C347.22 193.02 355.98 198.55 366.02 196.39C397.67 189.6 384.91 132.9 381.26 112.02C378.17 94.35 368.36 72.95 348.05 70.57C334.05 68.93 319.07 70.47 304.97 70.48V70.51Z" fill="#FFFF7D"/>
<path d="M298.62 133.59C298.62 133.59 307.49 140.26 320.66 139.44" stroke="#5200FF" stroke-width="0.8" stroke-linecap="round" stroke-linejoin="round"/>
<path d="M320.57 154.25C302.45 168.98 249.93 182.71 227.4 179.88C205.18 177.09 185.78 164.95 164.54 158.78C129.97 148.74 103.86 166.14 77.01 185.64C55.08 201.56 28.08 220.78 0.410034 222.49" stroke="#5200FF" stroke-width="0.8" stroke-linecap="round" stroke-linejoin="round"/>
<path d="M299.52 154.25C299.52 154.25 286.66 156.42 288.89 167.37C288.89 167.37 290.93 177.58 303.37 173.49C315.81 169.41 299.52 154.24 299.52 154.24V154.25Z" fill="#FFBFDD"/>
<path d="M299.52 154.25C299.52 154.25 286.66 156.42 288.89 167.37C288.89 167.37 290.93 177.58 303.37 173.49C315.81 169.41 299.52 154.24 299.52 154.24V154.25Z" stroke="#5200FF" stroke-width="0.8" stroke-linecap="round" stroke-linejoin="round"/>
<path d="M323.5 69.76C319.28 70.83 311.5 70.42 304.97 70.51C298.68 70.42 290.35 70.83 285.82 69.9C276.06 68.18 271.88 56.82 280.59 50.72C285.43 46.91 296.7 48.16 305.3 47.95C314.12 48.09 323.28 47.19 327.89 50.61C336.37 56.32 333.09 67.45 323.7 69.72L323.51 69.77L323.5 69.76Z" fill="#FFFF7D"/>
<path d="M323.5 69.76C319.28 70.83 311.5 70.42 304.97 70.51C298.68 70.42 290.35 70.83 285.82 69.9C276.06 68.18 271.88 56.82 280.59 50.72C285.43 46.91 296.7 48.16 305.3 47.95C314.12 48.09 323.28 47.19 327.89 50.61C336.37 56.32 333.09 67.45 323.7 69.72L323.51 69.77L323.5 69.76Z" stroke="#5200FF" stroke-width="0.8" stroke-linecap="round" stroke-linejoin="round"/>
<path d="M304.38 9.3999L292.77 34.2099L314.28 24.0499C314.28 24.0499 310.98 40.1499 304.65 47.9399" stroke="#5200FF" stroke-width="0.8" stroke-linecap="round" stroke-linejoin="round"/>
<path d="M304.97 70.51C304.97 70.51 277.79 70.51 277.69 70.51C254.78 70.51 240.7 92.56 232.11 111C222.67 131.25 208.99 161.11 222.6 182.11C232.74 197.76 254.11 202.37 271.43 199.25C279.38 197.82 287.16 195.26 294.27 191.41C298.61 189.06 302.7 186.25 306.41 183C308.01 181.6 315.43 171.6 316.66 171.6H328.35C329.59 171.6 338.54 185.11 340.11 186.54C347.21 193.03 355.97 198.56 366.01 196.4C397.66 189.61 384.9 132.91 381.25 112.03C378.16 94.36 368.35 72.96 348.04 70.58C334.04 68.94 319.06 70.48 304.96 70.49L304.97 70.51Z" stroke="#5200FF" stroke-width="0.8" stroke-linecap="round" stroke-linejoin="round"/>
<path d="M264.31 121.16C264.31 121.16 268.3 110.25 280.78 107.75C294.27 103.8 303.79 112.98 303.79 112.98" stroke="#5200FF" stroke-width="0.8" stroke-linecap="round" stroke-linejoin="round"/>
<path d="M368.46 115.55C368.46 115.55 363.54 105.03 350.9 103.61C337.13 100.83 328.43 110.8 328.43 110.8" stroke="#5200FF" stroke-width="0.8" stroke-linecap="round" stroke-linejoin="round"/>
<path d="M372.5 211.24L366.02 196.41" stroke="#5200FF" stroke-width="0.8" stroke-linecap="round" stroke-linejoin="round"/>
<path d="M320.57 171.6C320.57 171.6 343.18 235.92 343.21 236C348.13 250.39 368.45 243.33 377.59 238.95C383.79 235.98 389.8 232.56 395.23 228.33C399.53 224.98 408.11 218.76 405.3 212.26C403.04 207.03 394.31 207.71 389.42 207.97C371.82 208.9 364.42 215.58 364.42 215.58" stroke="#5200FF" stroke-width="0.8" stroke-linecap="round" stroke-linejoin="round"/>
<path d="M393.51 216.7C379.22 221.34 371.62 225.72 366.5 229.76C365.45 230.59 357.12 237 360.4 238.47C360.85 238.67 361.35 238.65 361.84 238.62C365.59 238.34 369.28 236.96 372.51 235.08" stroke="#5200FF" stroke-width="0.8" stroke-linecap="round" stroke-linejoin="round"/>
<path d="M330.2 170.38L309.15 176.87C305.68 177.94 302 175.99 300.92 172.52L295.25 154.15C294.18 150.68 296.13 147 299.6 145.92L320.65 139.43L330.19 170.37L330.2 170.38Z" fill="#FFBFDD"/>
<path d="M330.2 170.38L309.15 176.87C305.68 177.94 302 175.99 300.92 172.52L295.25 154.15C294.18 150.68 296.13 147 299.6 145.92L320.65 139.43L330.19 170.37L330.2 170.38Z" stroke="#5200FF" stroke-width="0.8" stroke-linecap="round" stroke-linejoin="round"/>
<path d="M324.207 114.916L369.674 100.894L392.423 174.656L349.641 187.85C334.008 192.672 317.404 183.895 312.582 168.262L306.476 148.462C302.111 134.31 310.055 119.281 324.207 114.916Z" fill="#FFDDED"/>
<path d="M324.207 114.916L369.674 100.894L392.423 174.656L349.641 187.85C334.008 192.672 317.404 183.895 312.582 168.262L306.476 148.462C302.111 134.31 310.055 119.281 324.207 114.916Z" stroke="#5200FF" stroke-width="0.8" stroke-linecap="round" stroke-linejoin="round"/>
<path d="M382.608 91.1757L370.347 94.9568C363.545 97.0548 359.731 104.27 361.829 111.073L380.213 170.683C382.311 177.485 389.526 181.299 396.329 179.201L408.589 175.42C415.392 173.322 419.206 166.107 417.108 159.304L398.724 99.6945C396.626 92.8917 389.41 89.0777 382.608 91.1757Z" fill="#FFDC84"/>
<path d="M408.687 161.174L390.683 102.798C389.877 100.185 387.106 98.7205 384.494 99.5262L373.457 102.93C370.845 103.736 369.38 106.507 370.186 109.119L388.189 167.496C388.995 170.108 391.766 171.573 394.378 170.767L405.415 167.363C408.028 166.558 409.492 163.787 408.687 161.174Z" fill="#D9E3FF"/>
<path d="M408.687 161.174L390.683 102.798C389.877 100.185 387.106 98.7205 384.494 99.5262L373.457 102.93C370.845 103.736 369.38 106.507 370.186 109.119L388.189 167.496C388.995 170.108 391.766 171.573 394.378 170.767L405.415 167.363C408.028 166.558 409.492 163.787 408.687 161.174Z" stroke="#5200FF" stroke-width="0.8" stroke-linecap="round" stroke-linejoin="round"/>
<path d="M382.608 91.1757L370.347 94.9568C363.545 97.0548 359.731 104.27 361.829 111.073L380.213 170.683C382.311 177.485 389.526 181.299 396.329 179.201L408.589 175.42C415.392 173.322 419.206 166.107 417.108 159.304L398.724 99.6945C396.626 92.8917 389.41 89.0777 382.608 91.1757Z" stroke="#5200FF" stroke-width="0.8" stroke-linecap="round" stroke-linejoin="round"/>
<path d="M379.922 140.616L415.451 129.659C421.108 127.915 427.122 131.093 428.867 136.75C430.611 142.408 427.432 148.421 421.775 150.166L386.247 161.123L379.925 140.626L379.922 140.616Z" fill="#E8E6D9"/>
<path d="M418.96 144.63C416.51 145.39 413.91 144.01 413.15 141.56C412.39 139.11 413.77 136.51 416.22 135.75C418.67 134.99 421.27 136.37 422.03 138.82C422.79 141.27 421.41 143.87 418.96 144.63Z" fill="#5200FF"/>
<path d="M379.922 140.616L415.451 129.659C421.108 127.915 427.122 131.093 428.867 136.75C430.611 142.408 427.432 148.421 421.775 150.166L386.247 161.123L379.925 140.626L379.922 140.616Z" stroke="#5200FF" stroke-width="0.8" stroke-linecap="round" stroke-linejoin="round"/>
<path d="M371.359 112.845L406.887 101.888C412.544 100.143 418.558 103.322 420.303 108.979C422.048 114.636 418.869 120.65 413.212 122.395L377.683 133.352L371.362 112.855L371.359 112.845Z" fill="#E8E6D9"/>
<path d="M410.39 116.86C407.94 117.62 405.34 116.24 404.58 113.79C403.82 111.34 405.2 108.74 407.65 107.98C410.1 107.22 412.7 108.6 413.46 111.05C414.22 113.5 412.84 116.1 410.39 116.86Z" fill="#5200FF"/>
<path d="M371.359 112.845L406.887 101.888C412.544 100.143 418.558 103.322 420.303 108.979C422.048 114.636 418.869 120.65 413.212 122.395L377.683 133.352L371.362 112.855L371.359 112.845Z" stroke="#5200FF" stroke-width="0.8" stroke-linecap="round" stroke-linejoin="round"/>
<path d="M407.95 171.5C404.25 159.04 388.89 156.35 379.32 160.61C372.38 163.7 368.4 170.58 370.25 178.98C373.69 194.66 396.19 196.09 404.83 185.86C408.7 181.29 409.33 176.13 407.95 171.49V171.5Z" fill="#FFFF7D"/>
<path d="M407.95 171.5C404.25 159.04 388.89 156.35 379.32 160.61C372.38 163.7 368.4 170.58 370.25 178.98C373.69 194.66 396.19 196.09 404.83 185.86C408.7 181.29 409.33 176.13 407.95 171.49V171.5Z" stroke="#5200FF" stroke-width="0.8" stroke-linecap="round" stroke-linejoin="round"/>
<path d="M333.6 181.66C332.19 174.24 326.75 167.48 318.57 165.69C304.9 162.72 281.91 169.76 288.61 189.8C296.18 212.41 338.78 208.91 333.6 181.66Z" fill="#FFFF7D"/>
<path d="M333.6 181.66C332.19 174.24 326.75 167.48 318.57 165.69C304.9 162.72 281.91 169.76 288.61 189.8C296.18 212.41 338.78 208.91 333.6 181.66Z" stroke="#5200FF" stroke-width="0.8" stroke-linecap="round" stroke-linejoin="round"/>
<g clip-path="url(#clip0_2001_2131)">
<path d="M423 49H418V54H423V49Z" fill="#5200FF"/>
<path d="M433 49H428V54H433V49Z" fill="#5200FF"/>
<path d="M428 54H423V59H428V54Z" fill="#5200FF"/>
<path d="M423 59H418V64H423V59Z" fill="#5200FF"/>
<path d="M433 59H428V64H433V59Z" fill="#5200FF"/>
</g>
<g clip-path="url(#clip1_2001_2131)">
<path d="M198.06 17.61C192.21 24.99 196.81 29.59 204.21 23.75C207.1 21.47 209.03 21.47 211.92 23.75C219.31 29.59 223.92 24.99 218.07 17.61C215.78 14.73 215.78 12.08 218.07 9.18996C223.92 1.80996 220.03 -2.79004 212.64 3.04996C209.75 5.32996 207.1 5.32996 204.21 3.04996C196.81 -2.79004 192.21 1.80996 198.06 9.18996C200.35 12.07 200.35 14.72 198.06 17.61Z" stroke="#5200FF" stroke-width="0.8" stroke-linecap="round" stroke-linejoin="round"/>
</g>
<g clip-path="url(#clip2_2001_2131)">
<path d="M116 65H121H126V60H121H116H111H106V65H111H116Z" fill="#5200FF"/>
<path d="M141 65H146H151V60H146H141H136H131V65H136H141Z" fill="#5200FF"/>
<path d="M166 65H171H176V60H171H166H161H156V65H161H166Z" fill="#5200FF"/>
<path d="M176 65V70V75V80V85V90V95V100H181V95V90V85V80V75V70V65H176Z" fill="#5200FF"/>
<path d="M136 75V80V85V90V95H141V90V85V80V75V70H136V75Z" fill="#5200FF"/>
<path d="M161 75V80V85V90V95H166V90V85V80V75V70H161V75Z" fill="#5200FF"/>
<path d="M111 90V85V80V75V70H106V65H101V70V75H106V80V85V90V95V100H111V95V90Z" fill="#5200FF"/>
<path d="M131 90V85V80V75V70V65H126V70V75V80V85V90V95V100H131V95V90Z" fill="#5200FF"/>
<path d="M156 90V85V80V75V70V65H151V70V75V80V85V90V95V100H156V95V90Z" fill="#5200FF"/>
<path d="M116 100H111V105H116H121H126V100H121H116Z" fill="#5200FF"/>
<path d="M141 100H136H131V105H136H141H146H151V100H146H141Z" fill="#5200FF"/>
<path d="M166 100H161H156V105H161H166H171H176V100H171H166Z" fill="#5200FF"/>
</g>
<g clip-path="url(#clip3_2001_2131)">
<path d="M62 94H57V99H62V94Z" fill="#5200FF"/>
<path d="M57 99H52V104H57V99Z" fill="#5200FF"/>
<path d="M67 99H62V104H67V99Z" fill="#5200FF"/>
<path d="M52 104H47V109H52V104Z" fill="#5200FF"/>
<path d="M72 104H67V109H72V104Z" fill="#5200FF"/>
<path d="M57 109H52V114H57V109Z" fill="#5200FF"/>
<path d="M67 109H62V114H67V109Z" fill="#5200FF"/>
<path d="M62 114H57V119H62V114Z" fill="#5200FF"/>
</g>
<defs>
<clipPath id="clip0_2001_2131">
<rect width="15" height="15" fill="white" transform="translate(418 49)"/>
</clipPath>
<clipPath id="clip1_2001_2131">
<rect width="26.3" height="26.8" fill="white" transform="translate(195)"/>
</clipPath>
<clipPath id="clip2_2001_2131">
<rect width="80" height="45" fill="white" transform="translate(101 60)"/>
</clipPath>
<clipPath id="clip3_2001_2131">
<rect width="25" height="25" fill="white" transform="translate(47 94)"/>
</clipPath>
</defs>
</svg>
